<svg xmlns="http://www.w3.org/2000/svg" width="177" height="177" fill="none">
  <path fill="#aaa"
        d="M88.5 165.938c-42.767 0-77.437-34.67-77.437-77.438S45.733 11.063 88.5 11.063c42.768 0 77.438 34.67 77.438 77.437 0 42.768-34.67 77.438-77.438 77.438m0 11.062c48.877 0 88.5-39.623 88.5-88.5S137.377 0 88.5 0 0 39.623 0 88.5 39.623 177 88.5 177"/>
  <path fill="#aaa"
        d="M47.4 137.538a5.53 5.53 0 0 0 7.558-2.018c6.703-11.588 19.218-19.364 33.542-19.364s26.84 7.776 33.543 19.364a5.53 5.53 0 1 0 9.575-5.54c-8.599-14.865-24.685-24.886-43.118-24.886s-34.519 10.021-43.118 24.886a5.53 5.53 0 0 0 2.019 7.558M77.438 71.906c0 9.165-4.953 16.594-11.063 16.594s-11.062-7.43-11.062-16.594 4.952-16.594 11.062-16.594 11.063 7.43 11.063 16.594M121.688 71.906c0 9.165-4.953 16.594-11.063 16.594s-11.062-7.43-11.062-16.594 4.952-16.594 11.062-16.594 11.063 7.43 11.063 16.594"/>
</svg>
