<svg xmlns="http://www.w3.org/2000/svg" width="158" height="158" fill="none">
  <path fill="#aaa"
        d="M108.625 59.25c0 16.361-13.264 29.625-29.625 29.625S49.375 75.611 49.375 59.25 62.639 29.625 79 29.625s29.625 13.264 29.625 29.625"/>
  <path fill="#aaa" fill-rule="evenodd"
        d="M0 79C0 35.37 35.37 0 79 0s79 35.37 79 79-35.37 79-79 79S0 122.63 0 79M79 9.875C40.823 9.875 9.875 40.823 9.875 79c0 16.328 5.66 31.333 15.127 43.161C32.024 110.849 47.446 98.75 79 98.75s46.976 12.099 53.998 23.411c9.466-11.828 15.127-26.833 15.127-43.161 0-38.177-30.948-69.125-69.125-69.125"
        clip-rule="evenodd"/>

</svg>
