<svg xmlns="http://www.w3.org/2000/svg" width="48" height="48" viewBox="0 0 46 46">
  <path fill="#E8E8E8" d="M23 46c12.668 0 23-10.332 23-23S35.668 0 23 0 0 10.332 0 23s10.332 23 23 23z"/>
  <path fill="#EF5E54"
        d="M17.527 13.41a.817.817 0 0 1-1.118.311.829.829 0 0 1-.308-1.126 7.72 7.72 0 0 1 2.814-2.875 7.59 7.59 0 0 1 3.859-1.048c1.406 0 2.724.381 3.858 1.048a7.7 7.7 0 0 1 1.97 1.659l.04-.385a.822.822 0 0 1 .9-.738c.45.046.778.452.732.906l-.139 1.337L30 13.816a.826.826 0 0 1-1.05.728l-1.28-.38-1.28-.381a.827.827 0 0 1-.556-1.025.82.82 0 0 1 1.018-.56l.377.112a6.075 6.075 0 0 0-1.424-1.16 5.959 5.959 0 0 0-3.03-.822c-1.105 0-2.14.3-3.03.822a6.077 6.077 0 0 0-2.217 2.26zm-3.64 8.275c1.71 0 3.103-1.404 3.103-3.125 0-1.722-1.394-3.125-3.103-3.125-1.71 0-3.103 1.403-3.103 3.125 0 1.721 1.393 3.125 3.103 3.125zm0 3.835c-.096 0-.19-.056-.274-.165l-1.68-2.373c-.163-.24-.268-.338-.63-.336h-.775c-1.472 0-2.105.8-1.992 2.187l.216 2.918c.08.885.438 1.343 1.405 1.35h7.461c.967-.007 1.325-.464 1.405-1.35l.216-2.918c.112-1.387-.52-2.187-1.992-2.187h-.776c-.361-.002-.466.097-.629.336l-1.68 2.373c-.084.11-.18.165-.275.165z"/>
  <path fill="#52BE8D"
        d="M32.726 25.649c-.096 0-.19-.055-.274-.165l-1.68-2.372c-.163-.24-.268-.339-.63-.337h-.775c-1.472 0-2.104.8-1.992 2.188l.216 2.917c.08.886.438 1.344 1.405 1.35h7.461c.967-.006 1.325-.464 1.404-1.35l.218-2.917c.111-1.388-.521-2.188-1.993-2.188h-.776c-.361-.002-.466.097-.63.337L33 25.484c-.083.11-.178.165-.274.165zm-3.64 6.709a.817.817 0 0 1 1.118-.31.83.83 0 0 1 .308 1.125 7.723 7.723 0 0 1-2.814 2.876 7.588 7.588 0 0 1-3.858 1.048 7.588 7.588 0 0 1-3.86-1.048c-.745-.439-1.41-1-1.969-1.66l-.04.386a.822.822 0 0 1-.9.738.825.825 0 0 1-.732-.906l.139-1.337.137-1.318a.824.824 0 0 1 1.049-.728l1.28.381 1.28.38a.827.827 0 0 1-.462 1.586l-.377-.112c.412.455.892.847 1.424 1.16a5.956 5.956 0 0 0 3.03.822c1.105 0 2.14-.3 3.03-.823a6.075 6.075 0 0 0 2.217-2.26zm3.64-10.544c1.71 0 3.103-1.404 3.103-3.125s-1.394-3.125-3.103-3.125c-1.71 0-3.103 1.404-3.103 3.125s1.394 3.125 3.103 3.125z"/>
</svg>

