<svg xmlns="http://www.w3.org/2000/svg" width="742" height="234" fill="none" viewBox="0 0 742 234">
  <path fill="#777"
        d="M470.635 125.993c38.286 0 69.323-1.968 69.323-4.395s-31.037-4.395-69.323-4.395-69.323 1.968-69.323 4.395 31.037 4.395 69.323 4.395"/>
  <path fill="#777"
        d="M593.773 131.266c10.985 0 19.89-1.443 19.89-3.223s-8.905-3.223-19.89-3.223-19.89 1.443-19.89 3.223 8.905 3.223 19.89 3.223"
        opacity=".5"/>
  <path fill="url(#b)" d="M443.336 95.234h29.442v7.199h-29.442z"/>
  <path fill="#c7c7c7" d="M443.336 95.984h29.442v1.397h-29.442z"/>
  <path fill="url(#c)" d="M442.156 93.781h31.802v2.901h-31.802z"/>
  <path fill="#c7c7c7" d="M442.156 93.516h31.802v1.396h-31.802z"/>
  <path fill="#c8853d"
        d="M404.037 94.052h79.8a.874.874 0 0 0 .873-.874v-.991a.874.874 0 0 0-.873-.874h-79.8a.874.874 0 0 0-.873.874v.99a.874.874 0 0 0 .873.875"/>
  <path fill="url(#d)" d="M438.164 63.664h1.891v2.592h-1.891z"/>
  <path fill="url(#e)" d="M437.234 64.3h3.75v-1.498c0-.304-.246-.872-.548-.872h-2.653c-.304 0-.549.568-.549.872z"/>
  <path fill="#a7a7a7" d="M438.172 64.344h1.884v.684h-1.884z"/>
  <path fill="url(#f)"
        d="M437.159 64.086h3.902c.04 0 .074.033.074.074v.282c0 .04-.033.074-.074.074h-3.902a.074.074 0 0 1-.073-.074v-.282c0-.041.033-.074.073-.074"/>
  <path fill="url(#g)" d="M437.039 64.086h4.094v.198h-4.094z"/>
  <path fill="url(#h)" d="M414.359 65.219h2.384v1.041h-2.384z"/>
  <path fill="url(#i)" d="M414.359 65.218h2.384l-.203-.343h-1.978z"/>
  <path fill="url(#j)" d="M414.299 64.875h2.443v.397h-2.443z"/>
  <path fill="url(#k)" d="m414.562 61.325 1.978-.763v4.312h-1.978z"/>
  <path fill="url(#l)" d="M413.578 60.392v-2.978l2.959 3.151-1.978.762z"/>
  <path fill="url(#m)" d="M541.34-9.719h45.098V7.544H541.34z"/>
  <path fill="url(#n)"
        d="m513 14.288 1.368 3.967 43.53-15.065.267-.09 1.776-.616a.57.57 0 0 0 .351-.725l-.184-.529-.634-1.834v-.003l-.18-.526a.566.566 0 0 0-.721-.35l-1.776.615-.267.09z"/>
  <path fill="silver"
        d="m556.531-.777.366 1.064.634 1.837.367 1.067.267-.09v-.004l-.367-1.063-.634-1.838-.367-1.063-.131.045z"/>
  <path fill="silver" d="m556.664-.822.366 1.06.634 1.838.367 1.066.132-.045-.367-1.063-.634-1.838-.367-1.063z"/>
  <path fill="#c3823c"
        d="m517.704 20.028-.645-4.274a2.377 2.377 0 0 0-3.384-1.789l-7.903 3.822a35.7 35.7 0 0 0-6.017 3.684l-3.614 2.737zm65.007-18.699 1.562-10.88c.247-1.722 2.52-2.173 3.404-.676l2.446 4.144a1.425 1.425 0 0 1-.345 1.843z"/>
  <path fill="url(#o)" d="M602.226 36.93h7.329v34.393h-7.329z"/>
  <path fill="url(#p)" d="M597.603 14.93h9.772v38.362h-9.772z"/>
  <path fill="url(#q)" d="M607.014 68.188h3.103v4.1h-3.103z"/>
  <path stroke="#fff223" stroke-miterlimit="10" stroke-width=".585"
        d="M600.034 17.18a1.167 1.167 0 1 1 0-2.334 1.167 1.167 0 0 1 0 2.335Z"/>
  <path fill="#c3823c"
        d="m596.603 20.505 4.147-2.146a2.62 2.62 0 0 0 1.137-3.493l-3.391-6.8a2.08 2.08 0 0 0-1.86-1.152h-1.964z"/>
  <path fill="silver"
        d="M599.526 17.18a1.168 1.168 0 0 0 0-2.336 1.17 1.17 0 0 0 0 2.336m0-2.014a.846.846 0 0 1 0 1.692.846.846 0 0 1 0-1.692m-85.031 2.382a1.168 1.168 0 0 0 0-2.337 1.169 1.169 0 0 0 0 2.337m0-2.015a.846.846 0 0 1 0 1.693.846.846 0 0 1 0-1.693"/>
  <path fill="#c3823c" d="M594.297 70.484h13.917v2.012h-13.917z"/>
  <path fill="#c3823c" d="m601.539 84.1 1.809.882 5.534-11.371.563-1.157-1.229-.603-.576-.28-.45.921-.187.384z"/>
  <path fill="#91602b" d="m601.909 97 8.056-6.335-17.453-9.642-.41 11.749z"/>
  <path fill="#fcb042"
        d="m580.387 14.466.337 1.985 1.654 9.673.119.696 5.708 33.4.116.692 3.659 21.403c.379 2.214 3.626 1.992 3.7-.258l.853-26.53v-.004l.022-.783 1.22-37.947.026-.784.112-3.545a9.76 9.76 0 0 0-1.091-4.803l-6.738-12.973c-.743-1.435-2.76-1.515-3.616-.142l-2.993 4.8a13.2 13.2 0 0 0-1.657 4.025l-1.171 5.177-.116.512a13.8 13.8 0 0 0-.144 5.406"/>
  <path fill="url(#r)" d="M588.701 60.531h5.018v22.753h-5.018z"/>
  <path fill="url(#s)" d="M582.92 26.438h5.877V59.97h-5.877z"/>
  <path fill="url(#t)" d="M581.186 16.273h1.783v9.59h-1.783z"/>
  <path fill="url(#u)" d="M581.142-5.79h6.999V8.499h-6.999z"/>
  <path fill="silver"
        d="M594.868 82.22a1.24 1.24 0 0 1-.235.72c.231-.194.392-.49.405-.903l.837-26.076-.167.11zm-12.485-56.093.119.696.435-.283.154-.104 13.866-9.099-1.21 37.567-.01.38.168-.11.013-.45 1.206-37.496.657-.432.026-.783-.657.432.013-.455.113-3.542a9.16 9.16 0 0 0-1.017-4.487l-6.738-12.973a1.42 1.42 0 0 0-1.281-.777q-.048-.002-.096.006a1.5 1.5 0 0 0-.328.058c-.004-.003-.004 0-.007 0q-.069.024-.138.052l-.023.01q-.058.028-.115.06a.1.1 0 0 0-.039.02 1.2 1.2 0 0 0-.196.148.4.4 0 0 0-.074.068 1 1 0 0 0-.1.113c.257-.226.585-.355.946-.355.55 0 1.026.29 1.28.78l6.738 12.97a9.16 9.16 0 0 1 1.017 4.487l-.112 3.546-.01.38-14.01 9.19-.155.1z"/>
  <path fill="silver"
        d="m582.436 26.43-.053-.308 15.423-10.114-.012.35zm5.775 33.792.116.693.435-.284.154-.103 6.796-4.458.167-.11.66-.431v-.004l.023-.783-.657.432-.167.11-6.941 4.554-.151.1z"/>
  <path fill="silver"
        d="m588.254 60.476-.043-.254 8.351-5.48-.009.288zm18.524 12.02h.409l-.187.384a1.9 1.9 0 0 0 1.879.734l.563-1.157-1.229-.603v-1.37h-1.133c-.289.333-.463.77-.463 1.248 0 .27.055.529.161.764"/>
  <path fill="#de9644"
        d="M608.794 73.4a1.913 1.913 0 0 1-1.911-1.915c0-1.057.856-1.915 1.911-1.915s1.912.858 1.912 1.915a1.913 1.913 0 0 1-1.912 1.915"/>
  <path fill="silver"
        d="m580.395 14.47.338 1.985.46-.132.164-.045 3.17-.9a3.673 3.673 0 0 0 2.6-4.2 3.67 3.67 0 0 0-3.595-2.99c-.167 0-.337.012-.502.035l-1.692.235-.177.023-.506.07-.115.513a13.8 13.8 0 0 0-.145 5.405"/>
  <path fill="silver"
        d="M587 12.121q.001-.348-.061-.68a3.667 3.667 0 0 0-4.096-2.956l-2.249.311.056-.244 2.374-.329c.165-.023.335-.036.502-.036a3.67 3.67 0 0 1 3.656 3.672c0 .816-.276 1.587-.748 2.209.36-.571.566-1.242.566-1.947"/>
  <path fill="#fcb042"
        d="M456.789 78.736h7.027l21.44-25.695a56.27 56.27 0 0 1 28.058-18.147l22.08-6.26.625-.177 34.754-9.853.628-.178 12.945-3.671a3.02 3.02 0 0 0 2.139-3.465 3.017 3.017 0 0 0-3.375-2.433l-12.939 1.788-.64.09-35.485 4.907-.634.09-21.778 3.01a49.26 49.26 0 0 0-36.946 25.915z"/>
  <path fill="url(#v)" d="M571.24 11.953h14.658v6.151H571.24z"/>
  <path fill="url(#w)" d="M535.922 17.969h34.797v10.185h-34.797z"/>
  <path fill="url(#x)" d="M457.818 27.992h77.518v50.4h-77.518z"/>
  <path fill="silver" d="m569.953 10.68.223-.032 1.229 7.781-.207.06z"/>
  <path fill="silver"
        d="M479.969 37.677c7.728-9.69 18.968-16.194 31.44-17.892l21.78-3.01.38-.056 1.731 11.278.042.27.058.372.624-.178-.058-.37-.042-.271-1.721-11.191 35.106-4.851.383-.055.988 6.247.041.267.058.37.628-.176-.058-.37-.042-.268-.975-6.16 12.552-1.734a2.375 2.375 0 0 1 2.697 2.36c0 .47-.148.911-.393 1.288a2.39 2.39 0 0 0 .67-2.137 2.373 2.373 0 0 0-2.655-1.91l-12.925 1.788-.1-.638-.641.09.1.638h-.009l-35.479 4.906-.097-.638-.634.09.097.639h-.006l-21.781 3.01c-12.643 1.724-24.024 8.38-31.759 18.292"/>
  <path fill="silver"
        d="m535.745 28.534-1.979-12.853-.352.05.634-.09 1.972 12.815zm-38.575 6.11a4.023 4.023 0 0 0 4.015-4.021 4.023 4.023 0 0 0-4.015-4.021 4.022 4.022 0 0 0 0 8.042m0-7.72a3.7 3.7 0 0 1 3.693 3.699 3.7 3.7 0 0 1-3.693 3.699 3.7 3.7 0 0 1-3.693-3.7 3.7 3.7 0 0 1 3.693-3.698"/>
  <path fill="#c3823c"
        d="M586.752 121.148a.174.174 0 0 0 .145.2l2.294.355a.18.18 0 0 0 .2-.149l.032-.216.061-.399a.17.17 0 0 0-.145-.2l-2.294-.355a.18.18 0 0 0-.2.149l-.064.422zm3.977.556a.173.173 0 0 0 .144.2l2.295.351a.17.17 0 0 0 .196-.145l.029-.193.067-.426a.18.18 0 0 0-.148-.2l-2.291-.351a.174.174 0 0 0-.199.145l-.068.448zm4.005.134v.625c0 .097.078.174.174.174h2.32a.175.175 0 0 0 .177-.174v-.625a.175.175 0 0 0-.177-.174h-2.32a.173.173 0 0 0-.174.174m4.681-.1.057.441.023.178c.013.097.1.164.196.151l2.301-.3a.17.17 0 0 0 .151-.193l-.026-.2-.054-.419a.176.176 0 0 0-.197-.152l-2.3.297a.18.18 0 0 0-.151.197m4.179-.694.132.394.068.196a.18.18 0 0 0 .222.113l2.198-.744a.174.174 0 0 0 .109-.223l-.084-.248-.116-.342a.167.167 0 0 0-.218-.109l-2.198.741a.18.18 0 0 0-.113.222m3.68-1.483.225.329.125.187c.055.08.165.1.245.045l1.914-1.312a.17.17 0 0 0 .045-.242l-.167-.248-.183-.267a.175.175 0 0 0-.245-.045l-1.915 1.312a.17.17 0 0 0-.044.241m3.001-2.43.322.236.184.132a.17.17 0 0 0 .241-.039l1.367-1.879a.174.174 0 0 0-.038-.242l-.258-.187-.247-.18a.173.173 0 0 0-.245.038l-1.364 1.876a.175.175 0 0 0 .038.245m1.837-3.151a.175.175 0 0 0 .141.203l.248.042.367.064a.175.175 0 0 0 .203-.141l.392-2.292a.175.175 0 0 0-.141-.2l-.313-.055-.302-.051a.173.173 0 0 0-.203.142zm-41.907 6.946h14.643a.6.6 0 0 0 .441-.187.7.7 0 0 0 .087-.12l.357-.631-6.754-1.918-4.15.258-.406.026h-.006a2.5 2.5 0 0 0-.969.267l-3.382 1.721c-.286.149-.183.584.139.584"/>
  <path fill="silver" d="M570.206 120.93h4.212v-2.571a2.5 2.5 0 0 0-.968.266l-3.383 1.724c-.287.147-.184.581.139.581"/>
  <path fill="#c3823c"
        d="m570.066 120.347 3.383-1.724c.233-.119.483-.2.74-.24v2.545h-3.984c-.322 0-.426-.434-.139-.581m21.189-31.411a2.546 2.546 0 0 1 2.53-2.803 2.53 2.53 0 0 1 2.073 1.072c.358.46 1.578 1.912 3.295 2.804 2.344 1.218 4.268 1.218 4.268 1.218a2.545 2.545 0 0 1 2.543 2.547 2.55 2.55 0 0 1-1.872 2.457l-.003.001a3 3 0 0 1-.265.057c-1.603.447-1.508 2.535-1.508 2.535l-8.698-.354-2.189-8.832a2.5 2.5 0 0 1-.174-.702"/>
  <path fill="silver"
        d="M603.151 95.964a2.06 2.06 0 0 1-2.057-2.06 2.057 2.057 0 1 1 4.113 0c0 1.138-.921 2.06-2.056 2.06m-9.641-5.094a2.06 2.06 0 0 1-2.057-2.06 2.058 2.058 0 1 1 4.113 0c0 1.138-.92 2.06-2.056 2.06"/>
  <path fill="#de9644"
        d="M603.415 95.839a2.06 2.06 0 0 1-2.056-2.06 2.058 2.058 0 1 1 4.113 0c0 1.138-.921 2.06-2.057 2.06m-9.632-5.094a2.06 2.06 0 0 1-2.056-2.06 2.058 2.058 0 1 1 4.113 0c0 1.138-.921 2.06-2.057 2.06"/>
  <path fill="silver"
        d="M603.415 94.912a1.136 1.136 0 0 0 0-2.271 1.136 1.136 0 0 0 0 2.271m0-1.949a.814.814 0 0 1 0 1.627.813.813 0 0 1 0-1.627m-9.633-3.144a1.137 1.137 0 0 0 0-2.272 1.136 1.136 0 0 0 0 2.272m0-1.95a.814.814 0 0 1 0 1.627.814.814 0 0 1 0-1.627m-18.954 30.459q-.001.184.065.364c.132.354.431.6.804.654l6.629.961.386.058 2.577.374a.7.7 0 0 0 .087-.12l.357-.631-6.754-1.918zm37.284-4.348a.175.175 0 0 0 .141.203l.248.042a7.8 7.8 0 0 0 .509-2.624l-.303-.051a.17.17 0 0 0-.202.142zm-1.875 2.907a.175.175 0 0 0 .038.245l.322.235a11.2 11.2 0 0 0 1.497-2.214l-.248-.181a.173.173 0 0 0-.245.039zm-2.918 2.433a.17.17 0 0 0-.046.241l.226.329c.762-.442 1.49-.961 2.162-1.57l-.183-.267a.175.175 0 0 0-.245-.045zm-3.725 1.724.132.394c.843-.232 1.69-.529 2.513-.906l-.116-.342a.167.167 0 0 0-.218-.109l-2.198.741a.18.18 0 0 0-.113.222m-4.179.694.058.441a24 24 0 0 0 2.645-.364l-.054-.419a.176.176 0 0 0-.197-.152l-2.3.297a.18.18 0 0 0-.152.197m-4.681.1v.271l.444.064c.041.004.81.09 2.036.09q.093 0 .19-.003v-.422a.175.175 0 0 0-.177-.174h-2.32a.173.173 0 0 0-.173.174m-3.908-.753-.068.448 2.639.384.067-.426a.18.18 0 0 0-.148-.2l-2.291-.351a.174.174 0 0 0-.199.145m-4.045-.131 2.642.384.061-.4a.17.17 0 0 0-.145-.2l-2.294-.354a.18.18 0 0 0-.2.148z"/>
  <path fill="#444"
        d="m575.744 119.029 6.625.961.39.058 12.465 1.808s11.307 1.254 15.999-5.847c3.99-6.04-1.104-11.491-4.103-13.199-.949-.545-2.011-1.257-3.011-2.243a18 18 0 0 1-.271-.278c-1.3-1.363-2.471-3.22-3.13-5.808-.152-.59-.19-1.15-.303-1.65-.592-2.611-3.671-3.749-5.818-2.15l-.778.58a14.7 14.7 0 0 0-4.106 4.722l-5.66 10.318a44 44 0 0 1-5.345 7.684l-3.378 3.897a.697.697 0 0 0 .424 1.147"/>
  <path fill="silver"
        d="m575.744 119.03 6.625.96.39.058 2.252-2.395c.415-.441.692-.989.798-1.579.258-1.428 1.181-4.441 4.508-8.619 3.623-4.548 10.702-6.304 13.579-6.849l.212-.039q-.135-.136-.27-.277c-1.3-1.364-2.471-3.22-3.131-5.809-.151-.59-.189-1.15-.302-1.65-.592-2.611-3.671-3.749-5.818-2.15l-.779.58a14.7 14.7 0 0 0-4.105 4.722l-5.661 10.318a44 44 0 0 1-5.344 7.684l-3.379 3.897a.699.699 0 0 0 .425 1.148"/>
  <path fill="#1d1d1b"
        d="M575.178 118.533a.7.7 0 0 0 .566.497l6.626.96 2.407-2.559c.37-.394.621-.883.717-1.415.242-1.354 1.149-4.468 4.573-8.761 3.717-4.667 10.985-6.44 13.772-6.966-1.3-1.363-2.471-3.22-3.131-5.808-.151-.59-.19-1.15-.302-1.65-.592-2.611-3.672-3.749-5.818-2.15l-.779.58a14.7 14.7 0 0 0-4.106 4.722l-3.327 6.063-2.333 4.255a44 44 0 0 1-2.821 4.48c-.094.132-.19.268-.287.4a45 45 0 0 1-2.236 2.804l-3.379 3.897a.68.68 0 0 0-.142.651"/>
  <path fill="silver"
        d="M581.219 110.782a.7.7 0 0 0 .312.258l1.909.816a.56.56 0 0 0 .692-.216l3.076-4.903a.94.94 0 0 0 .119-.712l-.911-3.868a.4.4 0 0 0-.042-.11l-2.332 4.255a44 44 0 0 1-2.823 4.48m-6.041 7.75 3.674-.161c.364-.016.698-.2.907-.497l3.469-4.899a.556.556 0 0 0-.238-.834l-1.782-.755a.7.7 0 0 1-.274-.206 44 44 0 0 1-2.236 2.804l-3.379 3.897a.68.68 0 0 0-.141.651"/>
  <path fill="#de9644"
        d="m581.29 110.577 1.908.815a.56.56 0 0 0 .69-.217l3.077-4.903a.94.94 0 0 0 .119-.711l-.909-3.867a.462.462 0 0 0-.855-.117l-2.323 4.234a42 42 0 0 1-2.279 3.692.26.26 0 0 0-.02.263l.224.461a.73.73 0 0 0 .368.35m-6.375 7.494 3.701-.162c.362-.016.697-.199.906-.495l3.468-4.9a.558.558 0 0 0-.237-.836l-1.781-.754a.73.73 0 0 1-.356-.323l-.204-.378a.11.11 0 0 0-.188-.012 42 42 0 0 1-2.341 2.958l-3.428 3.954-.008.009c-.322.377-.028.961.468.939m26.691-28.561 6.857 2.184c1.508.48 2.652-1.381 1.545-2.514l-3.337-3.416a15.5 15.5 0 0 0-7.364-4.218l-5.377-1.333c-1.55-.384-2.566 1.581-1.358 2.628l5.257 4.552a10.8 10.8 0 0 0 3.777 2.118"/>
  <path fill="silver"
        d="M601.633 87.266a1.815 1.815 0 0 1-1.813-1.817c0-1.003.812-1.816 1.813-1.816s1.813.813 1.813 1.816a1.815 1.815 0 0 1-1.813 1.817"/>
  <path fill="#de9644"
        d="M601.907 87.094a1.815 1.815 0 0 1-1.813-1.817 1.815 1.815 0 1 1 3.627 0 1.815 1.815 0 0 1-1.814 1.817"/>
  <path fill="silver"
        d="M601.91 86.299a1.02 1.02 0 0 0 0-2.041 1.02 1.02 0 0 0 0 2.04m0-1.719a.699.699 0 0 1 0 1.396.699.699 0 0 1 0-1.396m-8.136-1.541a1.168 1.168 0 0 0 0-2.335 1.168 1.168 0 0 0 0 2.335m0-2.012a.846.846 0 0 1 0 1.69.845.845 0 0 1 0-1.69m15.025 10.269a1.168 1.168 0 0 0 0-2.334 1.168 1.168 0 0 0 0 2.334m0-2.012a.845.845 0 1 1-.003 1.69.845.845 0 0 1 .003-1.69"/>
  <path fill="url(#y)" d="M484.877 31.21h12.678v33.336h-12.678z"/>
  <path fill="url(#z)" d="M476.823 48.477h15.583V85.78h-15.583z"/>
  <path fill="url(#A)" d="M494.719 30.25h3.5v4.3h-3.5z"/>
  <path fill="silver"
        d="M496.796 32.95a2.087 2.087 0 0 1-2.085-2.088c0-1.153.933-2.089 2.085-2.089s2.085.936 2.085 2.09a2.087 2.087 0 0 1-2.085 2.088"/>
  <path fill="#de9644"
        d="M497.171 32.717a2.087 2.087 0 0 1-2.085-2.09c0-1.153.933-2.088 2.085-2.088s2.085.935 2.085 2.089a2.087 2.087 0 0 1-2.085 2.089"/>
  <path fill="url(#B)" d="M495.362 28.54h3.896v3.505h-3.896z"/>
  <path fill="silver"
        d="M583.194 13.503a1.548 1.548 0 0 0 0-3.097 1.549 1.549 0 0 0 0 3.097m0-2.707a1.159 1.159 0 0 1 0 2.317 1.16 1.16 0 0 1 0-2.317"/>
  <path fill="#b8b8b8"
        d="m488.22 53.689-1.558.002-.029-.805 1.589-.003c.768 0 1.444.543 1.608 1.29 2.997 13.725 1.79 30.46 1.738 31.166l-.022.29a1.71 1.71 0 0 1-1.695 1.573h-1.942l-.029-.805h1.971a.9.9 0 0 0 .892-.829l.022-.29c.052-.7 1.249-17.329-1.721-30.932a.845.845 0 0 0-.824-.657"/>
  <path fill="silver"
        d="M488.225 86.985h1.942c.277 0 .536-.075.77-.195a1.7 1.7 0 0 1-1.09.406h-1.942l-.03-.805h.328zm-1.264-34.102.022.594 1.557-.002c.395 0 .741.276.825.657 2.97 13.603 1.772 30.23 1.72 30.932l-.022.29a.9.9 0 0 1-.576.769.9.9 0 0 0 .256-.557l.022-.29c.052-.7 1.249-17.329-1.721-30.932a.845.845 0 0 0-.824-.657l-1.558.002-.029-.805z"/>
  <path fill="#fcb042"
        d="M400.141 90.594a1.94 1.94 0 0 0 1.94 1.95h83.362c1.387 0 2.612-.88 3.072-2.192a19 19 0 0 0 .789-2.965c.125-.693.218-1.431.254-2.201.199-4.142-40.058-19.366-40.058-19.366h-20.004q-.453-.001-.911.004h-.644c-9.186.048-18.543.49-18.543.49a7.3 7.3 0 0 0-2.755.612q-.092.039-.179.08c-.02.01-.039.017-.059.03q-.111.05-.222.109-.092.047-.18.1a7.33 7.33 0 0 0-3.51 4.5 83 83 0 0 0-.831 3.393c-.955 4.284-1.322 8.864-1.454 12.249v.025l-.009.252c-.004.087-.004.177-.007.261a90 90 0 0 0-.051 2.67"/>
  <path fill="silver"
        d="M400.195 87.925h89.006a8 8 0 0 0 .054-.26q.029-.139.052-.278H447.01V65.82h-.464v21.567h-17.958V65.824h-.463v21.563h-21.479V66.926a3 3 0 0 0-.18.08c-.019.01-.038.017-.058.03q-.111.05-.222.109v20.242h-5.975v.025l-.01.252c-.003.087-.003.177-.006.261"/>
  <path fill="url(#C)" d="M451.672 47.852h32.56a6.48 6.48 0 0 0-4.013-1.399H453.86c-.94 0-1.786.551-2.188 1.399"/>
  <path fill="#3b3b3b"
        d="M448.017 67.82c-.026 1.141.367 2.147 1.245 2.843.837.667 2.169 1.621 4.302 2.385v.004c1.535.554 3.482 1.092 5.943 1.553q1.473.278 2.961.642.222.051.444.11c9.373 2.352 18.708 6.932 22.054 9.111a4.36 4.36 0 0 0 2.394.719h2.201s1.332-17.782-1.911-31.533a11.9 11.9 0 0 0-1.641-3.762 11 11 0 0 0-.701-.973 6.5 6.5 0 0 0-1.075-1.067 6.48 6.48 0 0 0-4.013-1.399h-26.372a2.43 2.43 0 0 0-2.175 1.399q-.087.179-.145.37c-1.104 3.685-3.373 12.378-3.511 19.598"/>
  <path fill="gray"
        d="M488.348 83.897c.222-4.188.73-18.575-1.952-29.947-.344-1.465-1.088-2.965-2.096-4.226a5.2 5.2 0 0 0-.861-.856 5.22 5.22 0 0 0-3.221-1.126h-26.36c-.431 0-.834.26-1.025.663a1 1 0 0 0-.075.188c-1.029 3.437-3.439 12.2-3.578 19.33-.015.736.31 1.44.869 1.883.64.51 1.84 1.274 3.947 2.028l.448.16c1.522.519 3.301.97 5.298 1.344 10.884 2.042 23.379 8.11 26.656 10.56z"/>
  <path fill="#3b3b3b"
        d="M453.844 47.056c0-.333.27-.603.603-.603h25.77c1.464 0 2.873.5 4.012 1.399a6.5 6.5 0 0 1 1.082 1.076c.311.389.025.965-.471.965h-18.809a.603.603 0 0 0-.603.603V70.16c0 .333.27.603.603.603h22.365c.332 0 .602.27.602.603v1.453c0 .333-.27.603-.602.603h-22.374a.6.6 0 0 0-.602.594l-.01.635a.603.603 0 0 1-.602.595h-1.056a.603.603 0 0 1-.602-.604l.025-24.145a.603.603 0 0 0-.602-.604h-8.126a.603.603 0 0 1-.603-.604z"/>
  <path fill="silver" d="M462.461 75.242v12.142h.444V75.352a26 26 0 0 0-.444-.11"/>
  <path fill="silver"
        d="M462.906 75.351v12.032h-.187V75.306zm0 7.848h1.81a.39.39 0 0 0 .388-.39V78.78a.39.39 0 0 0-.388-.39h-1.81z"/>
  <path fill="#d08b3f" d="M464.72 83.033a.23.23 0 0 0 .227-.228v-4.03a.23.23 0 0 0-.227-.228h-1.65v4.486z"/>
  <path fill="#333"
        d="M410.336 68.695h4.445v.303h-4.445zm0-.687h4.445v.303h-4.445zm4.82 3.43h4.445v.302h-4.445zm0-.688h4.445v.303h-4.445zm0-.687h4.445v.302h-4.445zm-4.82-.68h4.445v.303h-4.445zm0 1.367h4.445v.303h-4.445zm0 .688h4.445v.302h-4.445zm0-1.375h4.445v.302h-4.445zm4.82-1.368h4.445v.303h-4.445zm4.828-.687h4.445v.303h-4.445zm0 1.375h4.445v.303h-4.445zm0-.688h4.445v.303h-4.445zm-4.828-.687h4.445v.303h-4.445zm4.828 2.742h4.445v.303h-4.445zm-4.828-1.367h4.445v.303h-4.445zm4.828.68h4.445v.302h-4.445zm0 1.375h4.445v.302h-4.445zm0 3.664h4.445v.302h-4.445zm-4.828-.688h4.445v.303h-4.445zm0-.68h4.445v.303h-4.445zm4.828.68h4.445v.303h-4.445zm0-.68h4.445v.303h-4.445zm-9.648 0h4.445v.303h-4.445zm0 1.368h4.445v.302h-4.445zm4.82 0h4.445v.302h-4.445zm-4.82-.688h4.445v.303h-4.445z"/>
  <path fill="silver"
        d="M441.913 86.564h2.676a.42.42 0 0 0 .421-.422V83.46a.42.42 0 0 0-.421-.422h-2.676a.42.42 0 0 0-.421.422v2.68c0 .234.188.423.421.423"/>
  <path fill="#d08b3f"
        d="M444.467 86.241c.122 0 .221-.1.221-.222v-2.437a.22.22 0 0 0-.221-.223h-2.433c-.122 0-.222.1-.222.223v2.437c0 .122.1.222.222.222z"/>
  <path fill="silver"
        d="M423.694 86.564h2.676a.42.42 0 0 0 .421-.422V83.46a.42.42 0 0 0-.421-.422h-2.676a.42.42 0 0 0-.421.422v2.68c0 .234.188.423.421.423"/>
  <path fill="#d08b3f"
        d="M426.257 86.241c.122 0 .222-.1.222-.222v-2.437c0-.123-.1-.223-.222-.223h-2.433c-.122 0-.222.1-.222.223v2.437c0 .122.099.222.222.222z"/>
  <path fill="#242424" d="M422.797 110.329h71.434v-8.115l-35.717-1.339-35.717 1.471z"/>
  <path fill="#3b3b3b"
        d="M487.93 117.318a2.356 2.356 0 0 0 2.355 2.359c1.3 0 2.353-1.057 2.353-2.359 0-.687-.29-1.302-.757-1.728a2.34 2.34 0 0 0-3.195 0 2.34 2.34 0 0 0-.756 1.728"/>
  <path fill="#242424" d="M490.29 117.894a.579.579 0 1 1 0-1.158.579.579 0 0 1 0 1.158"/>
  <path fill="#3b3b3b"
        d="M479.352 117.318a2.355 2.355 0 0 0 2.352 2.359 2.359 2.359 0 0 0 0-4.716c-.615 0-1.178.239-1.596.629a2.33 2.33 0 0 0-.756 1.728"/>
  <path fill="#242424" d="M481.704 117.894a.579.579 0 1 1 0-1.158.579.579 0 0 1 0 1.158"/>
  <path fill="#3b3b3b"
        d="M468.258 117.318a2.36 2.36 0 0 0 2.355 2.359 2.359 2.359 0 0 0 0-4.716c-.618 0-1.178.239-1.599.629a2.34 2.34 0 0 0-.756 1.728"/>
  <path fill="#242424" d="M470.618 117.894a.579.579 0 1 1 0-1.158.579.579 0 0 1 0 1.158"/>
  <path fill="#3b3b3b"
        d="M424.359 117.318a2.36 2.36 0 0 0 2.355 2.359c1.3 0 2.352-1.057 2.352-2.359 0-.687-.289-1.302-.756-1.728a2.336 2.336 0 0 0-3.192 0 2.33 2.33 0 0 0-.759 1.728"/>
  <path fill="#242424" d="M426.712 117.894a.579.579 0 1 1 0-1.158.579.579 0 0 1 0 1.158"/>
  <path fill="#3b3b3b"
        d="M432.938 117.318a2.36 2.36 0 0 0 2.355 2.359 2.358 2.358 0 0 0 0-4.716c-.618 0-1.178.239-1.599.629a2.34 2.34 0 0 0-.756 1.728"/>
  <path fill="#242424" d="M435.298 117.894a.579.579 0 1 1 0-1.158.579.579 0 0 1 0 1.158"/>
  <path fill="#3b3b3b"
        d="M444.031 117.318a2.36 2.36 0 0 0 2.356 2.359 2.358 2.358 0 0 0 0-4.716c-.618 0-1.178.239-1.6.629a2.34 2.34 0 0 0-.756 1.728"/>
  <path fill="#242424" d="M446.384 117.894a.579.579 0 1 1 0-1.158.579.579 0 0 1 0 1.158"/>
  <path fill="#3b3b3b"
        d="M456.141 117.318a2.36 2.36 0 0 0 2.356 2.359c1.3 0 2.355-1.057 2.355-2.359 0-.687-.292-1.302-.759-1.728a2.336 2.336 0 0 0-3.192 0 2.33 2.33 0 0 0-.76 1.728"/>
  <path fill="silver"
        d="M489.883 115.587a1.7 1.7 0 0 1 .811 0 1.775 1.775 0 0 1-.405 3.504 1.776 1.776 0 0 1-.406-3.504m.406 3.288c.856 0 1.557-.7 1.557-1.56s-.701-1.56-1.557-1.56a1.56 1.56 0 0 0 0 3.12m-8.987-3.288a1.7 1.7 0 0 1 .811 0 1.775 1.775 0 0 1-.405 3.504 1.776 1.776 0 0 1-.406-3.504m.405 3.288a1.56 1.56 0 0 0 0-3.12 1.56 1.56 0 0 0 0 3.12m-11.496-3.288a1.7 1.7 0 0 1 .811 0 1.776 1.776 0 0 1-.405 3.504 1.776 1.776 0 0 1-.406-3.504m.406 3.288a1.56 1.56 0 0 0 0-3.12 1.56 1.56 0 0 0 0 3.12m-44.305-3.288a1.7 1.7 0 0 1 .808 0 1.775 1.775 0 0 1-.403 3.504 1.776 1.776 0 0 1-.405-3.504m.405 3.288a1.56 1.56 0 0 0 0-3.12 1.56 1.56 0 0 0 0 3.12m8.173-3.288a1.7 1.7 0 0 1 .811 0 1.775 1.775 0 0 1-.406 3.504 1.776 1.776 0 0 1-.405-3.504m.405 3.288a1.56 1.56 0 0 0 0-3.12 1.56 1.56 0 0 0 0 3.12m10.682-3.288a1.7 1.7 0 0 1 .811 0 1.776 1.776 0 0 1-.406 3.504 1.78 1.78 0 0 1-1.773-1.776 1.78 1.78 0 0 1 1.368-1.728m.405 3.288a1.56 1.56 0 0 0 0-3.12 1.56 1.56 0 0 0 0 3.12m11.712-3.288a1.7 1.7 0 0 1 .811 0 1.775 1.775 0 0 1-.405 3.504 1.776 1.776 0 0 1-.406-3.504m.405 3.288a1.56 1.56 0 0 0 0-3.12 1.56 1.56 0 0 0 0 3.12"/>
  <path fill="#242424" d="M458.501 117.894a.579.579 0 1 1 0-1.158.579.579 0 0 1 0 1.158"/>
  <path fill="#3b3b3b"
        d="m406.229 113.836.215.542h.004c.46-.113.952.08 1.197.487q.372.612.856 1.144c.318.351.363.877.128 1.289l-.003.003.46.358a1.1 1.1 0 0 1 1.284-.174c.412.226.85.416 1.31.561.228.071.415.216.547.4.132.187.209.416.209.654l.576.081a1.1 1.1 0 0 1 1.02-.797 7.2 7.2 0 0 0 1.413-.167q.116-.025.228-.026c.39 0 .756.212.956.558l.54-.217a1.1 1.1 0 0 1 .49-1.202 7.6 7.6 0 0 0 1.139-.854 1.105 1.105 0 0 1 1.29-.132l.36-.457a1.11 1.11 0 0 1-.174-1.287c.226-.412.416-.851.56-1.311.071-.226.216-.416.399-.548a1.15 1.15 0 0 1 .65-.21l.084-.577a1 1 0 0 1-.084-.032 1.09 1.09 0 0 1-.711-.99 8 8 0 0 0-.122-1.192q-.02-.111-.045-.223a1 1 0 0 1-.026-.229c0-.39.212-.754.557-.957l-.216-.542h-.003a1.1 1.1 0 0 1-1.2-.49 7.2 7.2 0 0 0-.853-1.14 1.1 1.1 0 0 1-.277-.729c0-.194.049-.39.148-.564l-.457-.361a1.11 1.11 0 0 1-1.287.177 7 7 0 0 0-1.306-.564 1.07 1.07 0 0 1-.547-.4 1.14 1.14 0 0 1-.209-.651l-.577-.083a1.1 1.1 0 0 1-1.019.796q-.726.017-1.413.167a1 1 0 0 1-.229.026c-.389 0-.756-.212-.955-.557l-.544.216.003.003c.109.464-.084.954-.489 1.202a7 7 0 0 0-1.139.854 1.1 1.1 0 0 1-.73.278 1.13 1.13 0 0 1-.56-.149l-.361.458c.328.348.406.87.174 1.289a7.3 7.3 0 0 0-.56 1.309 1.05 1.05 0 0 1-.402.548c-.183.132-.412.21-.65.21l-.081.577c.454.135.786.547.795 1.021q.017.727.167 1.419.026.114.026.229c0 .386-.212.753-.556.956"/>
  <path fill="silver"
        d="M413.874 104.695c3.057 0 5.618 2.162 6.236 5.041q.14.653.142 1.344a6.35 6.35 0 0 1-1.548 4.161 6.35 6.35 0 0 1-4.83 2.224c-3.513 0-6.374-2.865-6.374-6.385 0-3.523 2.861-6.385 6.374-6.385m0 12.476c1.75 0 3.33-.744 4.437-1.93a6.07 6.07 0 0 0 1.494-5.506c-.612-2.714-3.035-4.748-5.931-4.748-3.353 0-6.081 2.734-6.081 6.092 0 3.359 2.728 6.092 6.081 6.092"/>
  <path fill="silver"
        d="M413.88 116.199a5.12 5.12 0 0 1-5.114-5.123 5.12 5.12 0 0 1 5.114-5.123 5.12 5.12 0 0 1 5.114 5.123 5.12 5.12 0 0 1-5.114 5.123"/>
  <path fill="#3b3b3b"
        d="m494.167 112.896-.115-.639a.3.3 0 0 1 .217-.342l.793-.212a.3.3 0 0 0 .219-.303 6.6 6.6 0 0 1 .129-1.559.3.3 0 0 0-.166-.335l-.748-.339a.3.3 0 0 1-.157-.373l.218-.611a.3.3 0 0 1 .359-.188l.794.214a.3.3 0 0 0 .341-.152 6.7 6.7 0 0 1 .89-1.285.3.3 0 0 0 .023-.373l-.479-.67a.3.3 0 0 1 .05-.402l.494-.419a.3.3 0 0 1 .405.017l.579.582c.099.1.253.114.372.039a6.6 6.6 0 0 1 1.412-.667.3.3 0 0 0 .206-.312l-.08-.818a.3.3 0 0 1 .244-.323l.638-.116a.3.3 0 0 1 .341.218l.211.794a.3.3 0 0 0 .303.22 6.6 6.6 0 0 1 1.556.129.296.296 0 0 0 .334-.167l.339-.748a.3.3 0 0 1 .373-.158l.61.219a.3.3 0 0 1 .187.359l-.214.795a.3.3 0 0 0 .152.342c.461.246.892.545 1.283.892a.3.3 0 0 0 .372.022l.668-.479a.3.3 0 0 1 .402.05l.419.496a.3.3 0 0 1-.017.405l-.582.58a.3.3 0 0 0-.039.372c.273.437.499.91.666 1.415a.3.3 0 0 0 .312.207l.817-.081a.3.3 0 0 1 .322.245l.115.638a.3.3 0 0 1-.217.343l-.793.211a.3.3 0 0 0-.219.304 6.6 6.6 0 0 1-.13 1.558.3.3 0 0 0 .167.335l.747.34a.3.3 0 0 1 .158.373l-.219.611a.3.3 0 0 1-.359.187l-.793-.214a.3.3 0 0 0-.341.152 6.7 6.7 0 0 1-.89 1.286.3.3 0 0 0-.023.373l.479.669a.3.3 0 0 1-.05.402l-.495.42a.3.3 0 0 1-.404-.017l-.579-.583a.3.3 0 0 0-.372-.039 6.6 6.6 0 0 1-1.412.667.3.3 0 0 0-.207.313l.08.818a.3.3 0 0 1-.244.323l-.637.116a.3.3 0 0 1-.342-.217l-.211-.795a.3.3 0 0 0-.303-.22 6.5 6.5 0 0 1-1.556-.13.3.3 0 0 0-.334.167l-.339.749a.3.3 0 0 1-.373.158l-.61-.22a.3.3 0 0 1-.187-.359l.214-.795a.3.3 0 0 0-.152-.342 6.6 6.6 0 0 1-1.283-.891.3.3 0 0 0-.373-.023l-.668.479a.3.3 0 0 1-.402-.05l-.418-.495a.3.3 0 0 1 .017-.405l.581-.58a.3.3 0 0 0 .039-.373 6.6 6.6 0 0 1-.666-1.414.3.3 0 0 0-.311-.207l-.817.08a.3.3 0 0 1-.321-.244"/>
  <path fill="silver"
        d="m409.042 111.666.431-.133c-.006-.097-.014-.193-.014-.292s.008-.195.014-.292l-.431-.133a.216.216 0 0 1-.148-.242l.06-.34a.213.213 0 0 1 .221-.176l.382.019a.09.09 0 0 0 .087-.062q.065-.217.153-.423a.085.085 0 0 0-.027-.103l-.304-.231a.213.213 0 0 1-.056-.277l.172-.299a.213.213 0 0 1 .268-.09l.354.149a.085.085 0 0 0 .102-.028q.135-.18.288-.345a.09.09 0 0 0 .01-.106l-.208-.322a.213.213 0 0 1 .042-.28l.264-.222a.213.213 0 0 1 .282.007l.278.258a.085.085 0 0 0 .106.009q.19-.121.391-.221a.09.09 0 0 0 .046-.098l-.085-.373a.21.21 0 0 1 .134-.248l.324-.119a.213.213 0 0 1 .263.104l.175.341a.09.09 0 0 0 .098.045q.216-.052.44-.082a.085.085 0 0 0 .076-.075l.048-.377a.213.213 0 0 1 .212-.187h.344c.108 0 .199.08.212.187l.047.377c.005.04.037.071.076.075q.225.03.441.082a.09.09 0 0 0 .098-.045l.174-.341a.214.214 0 0 1 .263-.104l.324.119a.213.213 0 0 1 .135.248l-.085.373c-.009.04.01.08.046.098q.202.1.39.221a.09.09 0 0 0 .107-.009l.278-.258a.213.213 0 0 1 .282-.007l.264.222c.083.069.1.189.042.28l-.208.322a.09.09 0 0 0 .01.106q.153.164.288.345a.085.085 0 0 0 .102.028l.354-.149a.213.213 0 0 1 .268.09l.172.299a.213.213 0 0 1-.056.277l-.305.231a.086.086 0 0 0-.026.103q.087.206.153.423a.09.09 0 0 0 .087.062l.381-.019a.213.213 0 0 1 .221.176l.06.34a.214.214 0 0 1-.147.242l-.432.133c.007.097.015.193.015.292s-.008.195-.015.292l.432.133a.213.213 0 0 1 .147.242l-.06.339a.213.213 0 0 1-.221.177l-.381-.019a.086.086 0 0 0-.087.062 4 4 0 0 1-.153.423.09.09 0 0 0 .026.103l.305.23c.086.065.11.184.056.278l-.172.299a.214.214 0 0 1-.268.09l-.354-.15a.086.086 0 0 0-.102.029q-.135.18-.288.345a.09.09 0 0 0-.01.106l.208.322c.058.09.04.21-.042.28l-.264.222a.213.213 0 0 1-.282-.007l-.278-.259a.09.09 0 0 0-.107-.008 4 4 0 0 1-.39.221.09.09 0 0 0-.046.097l.085.374a.213.213 0 0 1-.135.248l-.324.118a.213.213 0 0 1-.263-.103l-.174-.341a.09.09 0 0 0-.098-.045 4 4 0 0 1-.441.081.09.09 0 0 0-.076.075l-.047.377a.213.213 0 0 1-.212.188h-.344a.213.213 0 0 1-.212-.188l-.048-.377a.086.086 0 0 0-.076-.075 4 4 0 0 1-.44-.081.09.09 0 0 0-.098.045l-.175.341a.213.213 0 0 1-.263.103l-.323-.118a.21.21 0 0 1-.135-.248l.085-.374a.09.09 0 0 0-.046-.097 4 4 0 0 1-.391-.221.086.086 0 0 0-.106.008l-.278.259a.213.213 0 0 1-.282.007l-.264-.222a.213.213 0 0 1-.042-.28l.208-.322a.09.09 0 0 0-.01-.106 4 4 0 0 1-.288-.345.086.086 0 0 0-.102-.029l-.354.15a.214.214 0 0 1-.268-.09l-.172-.299a.214.214 0 0 1 .056-.278l.304-.23a.09.09 0 0 0 .027-.103 4 4 0 0 1-.153-.423.086.086 0 0 0-.087-.062l-.382.019a.214.214 0 0 1-.221-.177l-.06-.339a.215.215 0 0 1 .148-.242"/>
  <path fill="#3b3b3b"
        d="m409.26 111.502.431-.133c-.006-.097-.014-.194-.014-.292 0-.099.008-.195.014-.292l-.431-.134a.214.214 0 0 1-.148-.241l.06-.34a.213.213 0 0 1 .221-.176l.382.019a.09.09 0 0 0 .087-.062q.066-.218.153-.423a.085.085 0 0 0-.027-.103l-.304-.231a.213.213 0 0 1-.056-.277l.172-.299a.213.213 0 0 1 .268-.09l.354.149a.084.084 0 0 0 .102-.028q.135-.18.288-.345a.086.086 0 0 0 .009-.106l-.207-.322a.214.214 0 0 1 .042-.28l.264-.222a.213.213 0 0 1 .282.007l.278.258a.085.085 0 0 0 .106.009q.189-.121.39-.221a.09.09 0 0 0 .047-.098l-.085-.373a.213.213 0 0 1 .134-.249l.324-.118a.213.213 0 0 1 .263.104l.175.341a.09.09 0 0 0 .098.045q.216-.052.44-.082a.085.085 0 0 0 .076-.075l.048-.377a.213.213 0 0 1 .211-.187h.345c.108 0 .199.08.212.187l.047.377c.005.04.037.07.076.075q.224.03.441.082a.09.09 0 0 0 .098-.045l.174-.341a.214.214 0 0 1 .263-.104l.324.118a.215.215 0 0 1 .135.249l-.085.373c-.009.04.01.08.046.098q.202.1.39.221a.09.09 0 0 0 .107-.009l.277-.258a.214.214 0 0 1 .283-.007l.264.222c.082.069.1.189.042.28l-.208.322a.09.09 0 0 0 .01.106q.153.164.287.345a.086.086 0 0 0 .103.028l.354-.149a.213.213 0 0 1 .268.09l.172.299a.215.215 0 0 1-.056.277l-.305.231a.09.09 0 0 0-.027.103q.088.206.154.423a.09.09 0 0 0 .087.062l.381-.019a.213.213 0 0 1 .221.176l.06.34a.21.21 0 0 1-.147.241l-.432.134c.007.097.015.193.015.292s-.008.195-.015.292l.432.133a.213.213 0 0 1 .147.241l-.06.34a.213.213 0 0 1-.221.177l-.381-.019a.084.084 0 0 0-.087.062 4 4 0 0 1-.154.423.09.09 0 0 0 .027.102l.305.231a.215.215 0 0 1 .056.278l-.172.299a.215.215 0 0 1-.269.09l-.353-.15a.086.086 0 0 0-.103.029 4 4 0 0 1-.287.345.09.09 0 0 0-.01.106l.208.321a.215.215 0 0 1-.042.28l-.264.223a.214.214 0 0 1-.283-.008l-.277-.258a.09.09 0 0 0-.107-.009 4 4 0 0 1-.39.221.09.09 0 0 0-.046.098l.085.373a.214.214 0 0 1-.135.249l-.324.118a.213.213 0 0 1-.263-.103l-.174-.341a.09.09 0 0 0-.098-.045 4 4 0 0 1-.441.081.09.09 0 0 0-.076.075l-.047.377a.214.214 0 0 1-.212.188h-.345a.214.214 0 0 1-.211-.188l-.048-.377a.086.086 0 0 0-.076-.075 4 4 0 0 1-.44-.081.086.086 0 0 0-.098.045l-.175.341a.213.213 0 0 1-.263.103l-.324-.118a.213.213 0 0 1-.134-.249l.085-.373a.09.09 0 0 0-.047-.098 4 4 0 0 1-.39-.221.09.09 0 0 0-.106.009l-.278.258a.21.21 0 0 1-.282.008l-.264-.223a.213.213 0 0 1-.042-.28l.207-.321a.086.086 0 0 0-.009-.106 4 4 0 0 1-.288-.345.086.086 0 0 0-.102-.029l-.354.15a.214.214 0 0 1-.268-.09l-.172-.299a.214.214 0 0 1 .056-.278l.304-.231a.09.09 0 0 0 .027-.102 4 4 0 0 1-.153-.423.086.086 0 0 0-.087-.062l-.382.019a.214.214 0 0 1-.221-.177l-.06-.34a.215.215 0 0 1 .148-.241"/>
  <path fill="silver"
        d="M501.894 117.277a6.11 6.11 0 0 1-6.105-6.115 6.11 6.11 0 0 1 6.105-6.115c3.371 0 6.104 2.738 6.104 6.115s-2.733 6.115-6.104 6.115"/>
  <path fill="#3b3b3b"
        d="M501.893 116.867a5.694 5.694 0 0 1-5.69-5.699 5.694 5.694 0 0 1 5.69-5.699 5.694 5.694 0 0 1 5.689 5.699 5.694 5.694 0 0 1-5.689 5.699"/>
  <path fill="#de9644"
        d="M447.891 67.897a3.63 3.63 0 0 0 1.358 2.92c.837.668 2.178 1.467 4.312 2.23 0-17.685 1.599-24.528 2.258-26.594h-1.962c-.94 0-1.786.551-2.188 1.399q-.087.179-.145.37c-1.104 3.685-3.491 12.455-3.633 19.675"/>
  <path fill="silver"
        d="M400.195 87.664h89.054q.029-.138.052-.277h-42.297V65.82h-.242v21.567h-18.18V65.824h-.241v21.563H406.64V66.926q-.092.039-.18.08c-.019.01-.038.017-.058.03v20.35h-6.197v.026z"/>
  <path fill="#242424"
        d="m416.381 102.553-1.534.099-.12-1.873 1.534-.099zm3.57-.235-1.534.099-.12-1.873 1.534-.099zm3.57-.226-1.534.099-.12-1.873 1.534-.099zm3.563-.25-1.534.099-.12-1.873 1.534-.1zm3.586-.212-1.534.099-.12-1.872 1.533-.1zm3.554-.25-1.534.099-.12-1.872 1.534-.1zm3.467-2.099-1.535.098.12 1.873 1.53-.097zm3.593-.171-1.542.065.089 1.875 1.524-.065zm3.587-.094-1.543.029.046 1.877 1.524-.03zm3.589-.024h-1.538l.002 1.877h1.536zm2.04 0h1.537v1.877H450.5zm3.578 0h1.537v1.877h-1.537zm3.578 0h1.537v1.877h-1.537zm3.578 0h1.537v1.877h-1.537zm3.578 0h1.538v1.877h-1.538zm5.127.003-1.541-.003v1.877l1.53.003zm3.585.065-1.543-.037-.036 1.877 1.525.037zm3.597.146-1.542-.073-.079 1.875 1.523.072zm3.444 2.094-1.534-.099.121-1.873 1.533.099zm3.57.226-1.533-.099.12-1.872 1.534.098zm3.571.234-1.534-.098.12-1.873 1.534.099zm3.586.242-1.534-.098.12-1.873 1.534.099zm3.554.22-1.534-.099.122-1.873 1.533.099zm3.571.227-1.534-.099.12-1.873 1.534.099zm3.57.234-1.534-.099.12-1.873 1.534.099zm3.813-1.04-.236-.099-.242-.102-.287-.091-.537-.169a1.4 1.4 0 0 0-.247-.065l-.454 1.821s.085.01.203.053l.44.139.235.073.198.085.192.082zm3.16 2.107c.023-.026-1.231-1.083-1.258-1.046l-1.077 1.535c.023-.031 1.05.839 1.031.859zm2.193 3.084c.031-.015-.761-1.453-.802-1.427l-1.554 1.05c.036-.023.683 1.158.658 1.17zm.943 3.677c.044-.004-.2-1.628-.239-1.62l-1.826.42c.033-.008.233 1.324.196 1.328zm-.421 3.773.204-.795c.06-.197.073-.403.102-.554l.038-.253-1.855-.26-.032.208c-.024.123-.03.293-.082.454l-.167.651zm-1.755 3.365.153-.205c.089-.125.221-.283.33-.456l.425-.701-1.637-.912-.349.575c-.089.143-.199.271-.272.374l-.125.168zm-2.845 2.515.219-.133c.133-.077.306-.186.466-.314l.451-.338c.125-.089.199-.16.199-.16l-1.205-1.438s-.06.06-.164.132l-.37.276c-.13.107-.273.196-.382.258l-.18.11zm-3.549 1.324c.008.043 1.596-.369 1.583-.409l-.61-1.774-.196.073c-.119.04-.284.074-.446.118-.163.04-.324.088-.447.113l-.207.031zm-3.674-1.707h1.537v1.877h-1.537zm-3.579 0h1.537v1.877h-1.537zm-3.578 0h1.537v1.877h-1.537zm-3.578 0h1.537v1.877h-1.537zm-3.578 0h1.537v1.877h-1.537zm-3.578 0h1.537v1.877h-1.537zm-3.578 0h1.537v1.877h-1.537zm-3.578 0h1.537v1.877h-1.537zm-3.578 0h1.537v1.877h-1.537zm-3.579 0h1.537v1.877h-1.537zm-3.578 0h1.537v1.877h-1.537zm-3.578 0h1.537v1.877h-1.537zm-3.578 0h1.537v1.877h-1.537zm-3.578 0h1.537v1.877h-1.537zm-3.578 0h1.537v1.877h-1.537zm-3.578 0h1.537v1.877h-1.537zm-3.578 0h1.537v1.877h-1.537zm-3.579 0h1.537v1.877h-1.537zm-3.585 0h1.537v1.877h-1.537zm-3.579 0h1.537v1.877h-1.537zm-3.578 0h1.537v1.877h-1.537zm-3.578 0h1.537v1.877h-1.537zm-3.57 0h1.537v1.877h-1.537zm-3.578 0h1.537v1.877h-1.537zm-3.61 1.852.255.013c.158.011.347.008.539.008h.769v-1.877h-.769c-.191 0-.391.003-.507-.008l-.21-.011zm-3.695-.833s.091.047.237.097l.529.194.282.102.255.065.247.064.465-1.818-.203-.052-.209-.052-.231-.085-.433-.159c-.12-.039-.194-.078-.194-.078zm-3.148-2.122.605.551c.32.256.652.496.652.496l1.085-1.529s-.272-.198-.535-.407l-.497-.453zm-2.172-3.106.111.231c.071.136.146.328.255.502l.426.701 1.558-1.041-.348-.575c-.091-.142-.149-.301-.208-.412l-.091-.189zm-.925-3.682c-.04.003.187 1.63.225 1.622l1.829-.409c-.032.007-.217-1.327-.184-1.33zm.447-3.773-.023.067a1 1 0 0 0-.052.178 87 87 0 0 0-.205.84 22 22 0 0 0-.078.514l1.854.27.03-.208.031-.213.06-.239.109-.449a1 1 0 0 1 .042-.146l.019-.054zm1.767-3.351s-.068.077-.154.204l-.325.461c-.124.163-.223.343-.3.476l-.128.223 1.633.92.106-.182c.063-.109.141-.258.245-.391l.265-.378c.07-.106.127-.168.127-.168zm2.855-2.5-.061.035-.155.103-.469.312c-.175.108-.327.245-.448.34l-.199.16 1.197 1.444.163-.132c.099-.077.223-.192.368-.279l.384-.256.126-.085q.048-.029.05-.028zm3.558-1.313-.801.171c-.2.041-.392.116-.54.158l-.244.077.599 1.778.201-.062c.12-.034.277-.099.442-.132l.656-.139z"/>
  <path fill="#3b3b3b"
        d="m417.211 99.496.267-.018.047.722.638-.041-.047-.722.535-.034.046.722.704-.046-.046-.722.534-.034.046.722.626-.04-.046-.722.267-.017.046.72.049.761-3.571.23-.049-.76z"/>
  <path fill="#3b3b3b"
        d="m421.048 99.244.047.722.638-.041-.047-.722.535-.034.046.721.704-.045-.046-.722.535-.034.046.721.625-.04-.046-.721.267-.018.046.722.049.759-3.571.23-.049-.76-.046-.72zm3.311-.21.268-.017.046.722.638-.042-.046-.72.534-.035.046.721.705-.045-.047-.721.534-.035.047.721.626-.04-.047-.721.267-.017.046.72.049.76-3.57.23-.049-.76z"/>
  <path fill="#3b3b3b"
        d="m428.198 98.79.046.722.638-.041-.046-.721.534-.035.047.722.704-.046-.047-.721.535-.034.046.72.626-.04-.047-.72.268-.018.046.721.049.76-3.571.23-.049-.76-.047-.72z"/>
  <path fill="#3b3b3b"
        d="m431.814 99.278.638-.041-.046-.722.534-.034.046.721.705-.045-.047-.721.534-.035.047.721.626-.04-.047-.721.267-.017.046.721.049.76-3.57.229-.049-.76-.047-.72.268-.018z"/>
  <path fill="#3b3b3b"
        d="m435.117 99.07-.047-.722.268-.017.046.721.638-.041-.047-.721.535-.035.046.722.705-.046-.046-.72.541-.034.043.721.63-.037-.04-.721.27-.015.039.722.041.76-3.574.222zm5.462 1.686 1.777-.066 1.777-.045 1.777-.024 3.571-.004h19.679l1.778.012 1.777.032 1.777.054 1.776.074 1.776.095 3.566.228 3.57.23 3.571.23 3.571.229 3.571.23 3.57.23 1.786.115.656.042c.208.014.41.024.552.045l.5.057s.202.014.495.087l.504.106.564.177c.194.053.379.132.552.208s.336.14.474.202l.442.24.121.065c.08.038.188.103.311.191l.43.285c.156.106.305.243.464.367l.234.188.208.204.37.359.327.383s.533.611.915 1.323l.151.26c.047.087.083.178.123.263l.216.469c.106.282.169.474.169.474l.046.131c.026.084.078.2.108.348.067.295.185.681.225 1.084.076.396.079.801.096 1.104.013.151.008.276 0 .365l-.007.138-.025.504c-.005.151-.046.324-.07.511-.035.185-.043.389-.102.582-.101.39-.191.783-.312 1.062l-.124.342c-.03.084-.049.13-.049.13l-.219.453c-.115.281-.341.616-.546.963-.108.169-.238.324-.349.478-.112.152-.215.295-.322.402l-.339.373-.092.103-.27.246-.383.347-.474.354c-.155.128-.331.227-.493.325-.161.097-.309.193-.441.267l-.453.217-.125.061a2 2 0 0 1-.335.142c-.284.101-.656.257-1.051.339-.385.119-.786.163-1.084.211a2 2 0 0 1-.362.04l-.138.007-.503.026c-.311.012-.776.003-1.218.006h-86.211l-.809-.041c-.152.001-.274-.035-.361-.043l-.137-.021-.497-.076-.499-.129c-.183-.046-.379-.093-.565-.171l-.555-.202-.464-.223-.329-.158-.118-.072-.43-.262a3.4 3.4 0 0 1-.423-.293c-.15-.116-.317-.229-.471-.358-.293-.276-.607-.532-.797-.768l-.339-.373s-.032-.039-.084-.11l-.218-.293c-.195-.233-.393-.584-.604-.928-.105-.171-.178-.361-.264-.528-.08-.171-.167-.326-.21-.471l-.173-.472s-.079-.187-.144-.482l-.129-.5c-.04-.184-.061-.385-.094-.584-.082-.396-.065-.803-.092-1.104-.014-.151.002-.277.004-.365l.007-.139.024-.503.075-.511q.021-.14.041-.289c.017-.097.047-.194.069-.292l.143-.574.17-.487c.09-.289.185-.468.185-.468l.209-.457c.058-.14.16-.286.25-.452.097-.162.185-.344.31-.503l.341-.484.334-.394c.099-.114.176-.214.239-.275l.099-.097.361-.351c.102-.112.25-.211.394-.333.15-.115.295-.257.468-.36l.492-.328c.161-.099.32-.175.452-.249l.32-.173.128-.054.463-.196c.136-.066.306-.114.486-.17.181-.052.368-.128.565-.17.394-.081.785-.178 1.088-.195l.5-.058 3.571-.23 3.571-.23 3.571-.23 3.571-.229 3.57-.23 3.571-.23 3.561-.222zm-8.859 1.297-3.571.23-3.571.23-3.57.23-3.571.23-3.571.23-.457.053c-.278.014-.635.106-.995.178-.179.038-.35.109-.516.155-.164.052-.319.094-.443.156l-.423.179-.116.048-.293.159c-.12.068-.266.137-.413.227l-.449.3c-.159.093-.291.225-.428.329-.131.112-.267.201-.36.304l-.329.322-.091.087c-.058.056-.128.149-.219.253l-.305.359-.311.443c-.115.144-.195.312-.283.46-.082.151-.177.283-.229.411l-.191.419s-.087.163-.168.427l-.156.444-.129.524c-.021.09-.049.178-.064.267l-.037.263-.07.467-.021.461-.006.126c-.002.081-.018.196-.004.334.027.275.007.649.084 1.01.031.181.049.365.085.533l.119.456c.058.27.131.44.131.44l.158.431c.039.133.12.273.192.43.079.153.144.326.241.483.194.313.373.635.552.847l.276.369.31.339c.173.218.461.45.728.703.141.118.294.221.431.327.136.106.265.203.386.268l.501.306.3.143.424.205.507.184c.169.072.348.114.515.155l.455.119.454.068.125.02c.08.007.191.041.33.04l.472.023.27.014h87.31l.109-.006.46-.024c-.001-.009.187.012.458-.043.272-.044.638-.083.99-.192.361-.074.7-.219.959-.31a2 2 0 0 0 .306-.129l.114-.056.414-.198c.12-.067.255-.156.403-.244.147-.089.308-.179.45-.297l.434-.323.349-.318.247-.224.085-.094.309-.341c.099-.097.193-.229.295-.368.1-.141.22-.281.319-.436.185-.318.395-.623.498-.88l.201-.413s.017-.043.044-.119l.113-.313c.111-.254.192-.613.285-.969.055-.176.06-.362.093-.532.021-.171.06-.328.064-.466l.022-.461.007-.127a2 2 0 0 0 0-.334c-.016-.276-.018-.647-.088-1.009-.035-.368-.145-.72-.205-.989-.026-.136-.074-.241-.099-.318l-.041-.119s-.057-.175-.154-.433l-.197-.428c-.037-.078-.069-.161-.112-.241l-.138-.237a7.4 7.4 0 0 0-.836-1.209l-.299-.35-.339-.328-.189-.187-.215-.171c-.145-.112-.28-.239-.424-.335l-.392-.261a2 2 0 0 0-.284-.174l-.111-.059-.403-.22-.433-.184a3.3 3.3 0 0 0-.504-.189l-.514-.163-.461-.096c-.268-.067-.453-.08-.453-.08l-.457-.052c-.123-.019-.33-.029-.538-.043l-.656-.042-1.785-.115-3.571-.23-3.571-.23-3.57-.23-3.571-.23-3.571-.229-3.562-.228-1.766-.094-1.768-.075-1.768-.053-1.768-.032-1.769-.012h-19.679l-3.565.004-1.768.024-1.768.045-1.768.065-1.767.086-3.554.222z"/>
  <path fill="#3b3b3b"
        d="m444.108 99.403-1.791.045-1.791.066-1.79.087-.041-.76-.039-.722.27-.014.038.721.643-.032-.035-.722.541-.025.032.722.71-.03-.029-.723.541-.02.027.722.63-.022-.024-.723.271-.008.271-.008.021.722.643-.017-.018-.723.541-.012.016.723.71-.014-.012-.723.541-.008.01.723.631-.007-.007-.723.271-.003.271-.001.004.722.644-.002-.002-.723h.539v.722h.705v-.722h.536v.722h.627v-.722h.267v1.483l-3.58.005zm8.954-.029h-3.578v-1.483h.268v.722h.639v-.722h.536v.722h.705v-.722h.536v.722h.627v-.722h.535v.722h.639v-.722h.536v.722h.706v-.722h.535v.722h.627v-.722h.535v.722h.64v-.722h.535v.722h.706v-.722h.535v.722h.627v-.722h.268v1.483z"/>
  <path fill="#3b3b3b"
        d="M460.219 98.613v-.722h.268v.722h.639v-.722h.535v.722h.706v-.722h.536v.722h.626v-.722h.268v1.483h-3.578zm3.578 0v-.722h.268v.722h.639v-.722h.536v.722h.705v-.722h.536v.722h.626v-.722h.268v1.483h-3.578zm7.16.774-1.792-.012h-1.79V97.89h.268v.722h.64v-.722h.535v.722l.709.001.003-.723.541.003-.005.723.631.005.008-.722.271.003-.009.723z"/>
  <path fill="#3b3b3b"
        d="m474.537 99.477-1.792-.054-1.792-.033.01-.76.009-.724.271.004-.011.723.644.01.013-.722.542.01-.016.723.71.017.019-.722.541.015-.022.723.631.02.024-.722.271.01-.026.721zm.002-.002.027-.76.026-.723.271.01-.028.723.644.025.03-.722.541.023-.033.722.709.034.036-.722.541.028-.038.722.63.035.041-.722.27.016-.043.722-.044.76-1.79-.097z"/>
  <path fill="#3b3b3b"
        d="m481.689 99.873-3.572-.228.045-.76.043-.72.27.015-.044.722.641.04.047-.721.534.034-.046.722.704.045.046-.722.534.035-.046.721.626.04.046-.72.267.016-.046.722z"/>
  <path fill="#3b3b3b"
        d="m485.258 100.101-3.57-.23.049-.759.047-.721.267.017-.047.721.638.041.047-.721.534.034-.047.721.704.046.046-.721.535.034-.047.721.626.04.046-.72.267.017-.046.72zm.008.005.049-.76.046-.721.267.017-.046.722.638.04.046-.72.535.034-.047.721.704.046.047-.722.534.034-.046.722.625.04.047-.721.267.017-.046.721-.049.76z"/>
  <path fill="#3b3b3b"
        d="m492.399 100.562-3.571-.23.049-.76.046-.72.267.017-.046.721.638.041.046-.721.535.034-.047.721.705.046.046-.721.534.034-.046.721.625.04.047-.72.267.016-.046.722zm.007.004.049-.759.047-.721.267.017-.047.722.638.04.047-.72.534.034-.046.721.704.045.046-.721.535.034-.047.722.626.04.046-.721.267.017-.046.721-.049.76z"/>
  <path fill="#3b3b3b"
        d="m503.135 101.291-.57-.065c-.343-.04-.783-.055-1.231-.088l-1.786-.115-3.571-.23.049-.759.046-.722.268.018-.047.721.638.041.047-.721.534.034-.046.722.704.045.046-.721.534.034-.046.721.626.041.046-.722.267.018.267.017-.046.721.638.042.046-.722.534.035-.046.721.704.045.047-.72.534.034-.046.721c-.018-.011.673.068.673.068l.081-.718.313.036-.101.716z"/>
  <path fill="#3b3b3b"
        d="M506.089 102.181c-.156-.072-.343-.147-.541-.232a5 5 0 0 0-.631-.237l-.643-.202-.576-.122a4 4 0 0 0-.565-.099l.106-.753.101-.716s.313.036.312.044l-.12.712.691.146.166-.703s.155.031.308.07l.301.094-.204.693.371.117.256.081c.07.023.114.044.114.044l.254-.676.582.246-.291.661.318.136.305.164.334-.641.277.15-.35.632-.37.665z"/>
  <path fill="#3b3b3b"
        d="M511.204 107.966s-.071-.219-.194-.541l-.246-.535c-.046-.098-.088-.201-.141-.301l-.171-.297a9.5 9.5 0 0 0-1.044-1.509l-.374-.437-.422-.41-.238-.231-.266-.216c-.181-.142-.352-.296-.53-.417l-.49-.327a3 3 0 0 0-.355-.217l-.139-.075.37-.665.35-.632.278.151-.368.622s.04.018.094.056l.203.134.294.196.408-.596.262.176c.129.09.249.193.249.193l-.44.573.604.493.48-.54.453.439-.509.513.247.242c.118.127.228.261.228.261l.54-.479.205.239.205.241-.566.449.07.085a29 29 0 0 1 .345.487l.593-.411.181.258c.047.063.087.132.116.184l.05.085-.615.378.388.676.641-.332.266.573-.658.297.144.316c.039.077.063.161.086.222l.035.102.676-.253.105.298-.683.235z"/>
  <path fill="#3b3b3b"
        d="m513.218 111.635-.721-.026-.759-.026.008-.158c.007-.1.013-.244-.001-.416-.017-.345-.024-.805-.109-1.259-.048-.458-.179-.901-.258-1.237-.035-.169-.092-.302-.123-.397l-.052-.15.719-.247.682-.235.103.299-.688.216c.018-.005.183.683.183.683l.701-.17s.154.614.138.617l-.71.131.113.773.717-.08c.016-.001.046.629.046.629l-.72.04.016.347.011.237c.001.065-.003.109-.003.109l.721.005zm-1.566 3.823-.699-.298s.023-.053.057-.147l.143-.392c.135-.319.242-.767.355-1.213.066-.221.078-.452.118-.664.028-.214.072-.411.078-.584l.03-.574.759.027.721.026-.016.315-.72-.045-.019.352c-.001.089-.022.176-.029.241l-.016.11.715.091-.095.625-.71-.131s-.021.195-.076.383l-.097.378.698.182-.079.307-.056.21-.033.093-.687-.221-.238.652.672.265-.055.148-.057.147zm-1.968 1.868c.126-.175.273-.353.398-.546.235-.394.489-.779.623-1.098l.249-.518.699.298.664.283-.135.285-.656-.301-.308.637.635.344s-.017.035-.049.086l-.111.186-.164.27-.615-.378-.203.333c-.047.086-.112.16-.154.22l-.072.097.586.422-.378.505-.563-.453c.015.012-.454.522-.454.522l.532.488-.213.233-.519-.502-.546-.529.386-.425a4 4 0 0 0 .368-.459"/>
  <path fill="#3b3b3b"
        d="m505.961 120.325.517-.25c.15-.084.32-.192.504-.303.184-.112.383-.227.562-.372l.54-.405c.163-.14.309-.279.437-.394l.307-.281.106-.117.546.529.519.502-.107.116c-.053.058-.113.109-.113.109l-.505-.516-.522.476.47.548-.073.066c-.044.039-.101.094-.166.14l-.251.19-.44-.573-.312.234-.215.159-.104.065.398.603-.539.328-.364-.624-.297.178-.311.152.323.646-.284.138-.305-.656zm-3.539.916.158-.008c.1-.001.243-.016.413-.046.34-.052.797-.107 1.238-.24.45-.097.877-.272 1.2-.389.164-.054.293-.116.383-.162l.143-.068.321.689.305.655-.285.136-.287-.663-.1.047-.228.084-.332.122.243.681s-.593.217-.598.201l-.205-.693-.755.195.154.706c.003.016-.62.112-.62.112l-.116-.714-.342.052-.235.035c-.064.012-.108.011-.108.011l.069.719-.314.018-.05-.721z"/>
  <path fill="#3b3b3b"
        d="M500.617 121.277c.449-.003.892.006 1.233-.006l.573-.029.053.759.049.721-.314.016-.03-.722-.352.017a3 3 0 0 1-.23.005h-.1v.723h-.535v-.723h-.706v.723h-.535v-.723h-.627v.723h-.536v-.723h-.639v.723h-.535v-.723h-.706v.723h-.535v-.723h-.627v.723h-.268v-1.484z"/>
  <path fill="#3b3b3b"
        d="M495.25 122.034v.723h-.268v-.723h-.639v.723h-.535v-.723h-.706v.723h-.536v-.723h-.627v.723h-.267v-1.484h3.578z"/>
  <path fill="#3b3b3b"
        d="M491.673 122.034v.723h-.268v-.723h-.639v.723h-.536v-.723h-.706v.723h-.535v-.723h-.627v.723h-.268v-1.484h3.579zm-7.157-.761h3.578v1.484h-.268v-.723h-.639v.723h-.536v-.723h-.705v.723h-.536v-.723h-.627v.723h-.535v-.723h-.64v.723h-.535v-.723h-.706v.723h-.535v-.723h-.627v.723h-.535v-.723h-.64v.723h-.535v-.723h-.706v.723h-.535v-.723h-.627v.723h-.268v-1.484z"/>
  <path fill="#3b3b3b"
        d="M477.359 122.034v.723h-.267v-.723h-.64v.723h-.535v-.723h-.706v.723h-.535v-.723h-.627v.723h-.268v-1.484h3.578z"/>
  <path fill="#3b3b3b"
        d="M473.781 122.034v.723h-.268v-.723h-.639v.723h-.535v-.723h-.706v.723h-.535v-.723h-.627v.723h-.268v-1.484h3.578z"/>
  <path fill="#3b3b3b"
        d="M466.626 121.273h3.578v1.484h-.268v-.723h-.639v.723h-.536v-.723h-.705v.723h-.536v-.723h-.626v.723h-.536v-.723h-.639v.723h-.536v-.723h-.705v.723h-.536v-.723h-.627v.723h-.535v-.723h-.64v.723h-.535v-.723h-.706v.723h-.535v-.723h-.627v.723h-.268v-1.484z"/>
  <path fill="#3b3b3b"
        d="M459.469 122.034v.723h-.268v-.723h-.639v.723h-.536v-.723h-.705v.723h-.536v-.723h-.627v.723h-.267v-1.484h3.578zm-3.578 0v.723h-.269v-.723h-.638v.723h-.536v-.723h-.706v.723h-.535v-.723h-.628v.723h-.267v-1.484h3.579zm-7.157-.761h3.578v1.484h-.267v-.723h-.64v.723h-.535v-.723h-.706v.723h-.535v-.723h-.627v.723h-.535v-.723h-.64v.723h-.535v-.723h-.706v.723h-.536v-.723h-.626v.723h-.536v-.723h-.639v.723h-.536v-.723h-.705v.723h-.536v-.723h-.627v.723h-.267v-1.484z"/>
  <path fill="#3b3b3b"
        d="M441.578 122.034v.723h-.268v-.723h-.639v.723h-.536v-.723h-.705v.723h-.536v-.723h-.627v.723H438v-1.484h3.578zm-3.578 0v.723h-.268v-.723h-.639v.723h-.535v-.723h-.706v.723h-.535v-.723h-.627v.723h-.268v-1.484H438zm-7.156-.761h3.578v1.484h-.267v-.723h-.639v.723h-.537v-.723h-.706v.723h-.535v-.723h-.627v.723h-.534v-.723h-.641v.723h-.535v-.723h-.704v.723h-.537v-.723h-.626v.723h-.535v-.723h-.641v.723h-.535v-.723h-.706v.723h-.535v-.723h-.626v.723h-.268v-1.484zm-7.157.761v.723h-.268v-.723h-.639v.723h-.536v-.723h-.705v.723h-.536v-.723h-.627v.723h-.267v-1.484h3.578zm-3.578 0v.723h-.268v-.723h-.639v.723h-.535v-.723h-.706v.723h-.535v-.723h-.627v.723h-.268v-1.484h3.578zm-7.191-.878.155.023c.1.011.241.048.413.05.341.011.81.056 1.252.045h1.789v1.484h-.268v-.723h-.639v.723h-.535v-.723h-.706v.723l-.629-.03.039-.722-.345-.017c-.173-.003-.344-.036-.344-.036l-.085.718-.312-.047.105-.715z"/>
  <path fill="#3b3b3b"
        d="m409.462 119.977.135.083.375.181c.155.074.335.165.531.253l.633.233c.213.087.436.142.646.194l.57.147.567.087-.11.753-.105.715-.312-.048.124-.712s-.175-.023-.348-.058l-.342-.087-.171.702-.611-.158.209-.692s-.048-.009-.117-.035l-.252-.091-.366-.134-.259.675-.296-.11c-.147-.057-.287-.131-.287-.131l.295-.659-.623-.302-.338.639s-.072-.033-.141-.072l-.135-.081.355-.629z"/>
  <path fill="#3b3b3b"
        d="m406.656 117.641.386.426c.219.268.572.563.91.875.176.148.365.279.536.41s.332.25.483.334l.491.299-.373.662-.355.629-.27-.163.372-.619s-.607-.363-.596-.379l-.411.594-.506-.378.443-.57-.097-.073c-.057-.046-.14-.098-.21-.167l-.289-.262-.482.537-.233-.212-.16-.147c-.044-.039-.071-.068-.071-.068l.511-.51-.466-.512-.542.476-.211-.235.555-.461zm-1.768-3.203.197.539c.052.165.148.342.239.538.098.191.184.407.303.603.239.394.468.792.689 1.059l.345.458-.584.486-.556.461s-.05-.061-.097-.124l-.095-.126.568-.446-.422-.567-.596.408s-.026-.03-.056-.081l-.114-.185-.164-.27.617-.375-.202-.334a2 2 0 0 1-.126-.236l-.053-.109-.643.329-.273-.57.659-.292s-.082-.154-.136-.319l-.119-.327-.677.25-.108-.297.683-.231z"/>
  <path fill="#3b3b3b"
        d="m403.604 111.083-.721-.01.014-.315.721.029.759.031-.008.158c-.002.1-.019.244-.004.416.027.344.014.807.104 1.259.037.227.063.456.108.667l.146.57c.077.338.166.551.166.551l-.72.243-.684.231s-.11-.297-.103-.299l.69-.212-.177-.686-.702.166-.077-.306-.052-.312.711-.127-.117-.772-.718.075s-.006-.039-.008-.098l-.012-.216-.017-.315.721-.037s-.039-.691-.02-.691"/>
  <path fill="#3b3b3b"
        d="m402.891 110.761.015-.315.72.049s.006-.177.021-.353l.051-.35-.716-.096.093-.626.709.135s.005-.048.024-.119l.063-.261.093-.379-.697-.187.076-.306.102-.299.686.224.23-.655-.671-.268s.029-.074.063-.145l.065-.144.132-.288.654.305.147-.321c.035-.082.082-.157.114-.215l.055-.096-.633-.347.316-.547.613.381c-.018-.011.438-.644.438-.644l-.584-.425.183-.257c.093-.128.199-.245.199-.245l.56.456.45-.526-.53-.491c-.005-.005.22-.226.22-.226l.517.505.543.532-.113.11c-.072.07-.16.184-.274.314-.111.132-.245.282-.38.449l-.389.552c-.14.183-.244.389-.354.574-.104.189-.217.357-.284.515l-.24.523s-.106.205-.211.534l-.194.557-.163.655c-.026.112-.059.223-.078.334l-.048.329-.085.583-.029.574-.759-.031zm3.993-7.285.253-.246c.062-.063.129-.121.181-.161l.086-.07-.467-.55.491-.397.436.575c-.012-.016.639-.446.639-.446l-.394-.605.263-.174c.065-.046.133-.085.186-.112l.086-.047.361.626.61-.329-.32-.648s.069-.039.141-.072l.145-.062.301.657.317.691-.145.062-.367.196c-.15.085-.331.173-.515.285l-.561.374c-.197.12-.365.279-.535.411-.164.138-.331.254-.449.38l-.411.401-.544-.532-.516-.505.226-.22z"/>
  <path fill="#3b3b3b"
        d="m409.869 100.632.283.664s.651-.277.657-.26l-.239-.682.602-.191.201.695.116-.037a2 2 0 0 1 .259-.069l.381-.081-.15-.708.309-.065.212-.043a1 1 0 0 1 .097-.014l.111.714.687-.079-.065-.72.313-.034.267-.017.047.722.637-.041-.046-.722.534-.035.047.722.704-.045-.046-.722.534-.034.046.721.625-.04-.046-.721.268-.018.046.722.049.759-3.571.23-.57.064c-.345.022-.792.129-1.242.224-.224.049-.44.132-.646.193-.205.065-.398.121-.555.195l-.528.224-.317-.691-.302-.657z"/>
  <path fill="silver"
        d="M413.438 109.734v5.505h6.709a1.06 1.06 0 0 1 .125-.645c.225-.412.415-.851.56-1.311.071-.226.217-.416.4-.548a1.15 1.15 0 0 1 .65-.21v-.609a1.09 1.09 0 0 1-.711-.99 8 8 0 0 0-.123-1.192z"/>
  <path fill="#3b3b3b"
        d="M496.369 109.734v5.157h-82.564v-5.157zm-11.788 3.344c0 .245.212.443.472.443h.544c.261 0 .472-.199.472-.443v-1.531c0-.245-.211-.443-.472-.443h-.544c-.26 0-.472.198-.472.443zm-59.596 0c0 .245.211.443.472.443H426c.261 0 .472-.199.472-.443v-1.531c0-.245-.211-.443-.472-.443h-.543c-.261 0-.472.198-.472.443z"/>
  <path fill="url(#D)" d="M413.773 109.734h82.602v.86h-82.602z"/>
  <path fill="silver" d="M492.992 109.734h1.571v5.157h-1.571z"/>
  <path fill="#3b3b3b" d="M493.789 109.039h12.882v6.554h-12.882z"/>
  <path fill="silver" d="M493.789 115h12.882v.591h-12.882z"/>
  <path fill="url(#E)" d="M493.73 109.039h12.942v.595H493.73z"/>
  <path fill="silver"
        d="M490.286 114.961c-.618 0-1.18.239-1.598.629h3.195a2.34 2.34 0 0 0-1.597-.629m-8.581 0a2.34 2.34 0 0 0-1.596.629h3.196a2.35 2.35 0 0 0-1.6-.629m-11.09 0c-.618 0-1.178.239-1.599.629h3.198a2.35 2.35 0 0 0-1.599-.629m-12.113 0c-.615 0-1.178.239-1.596.629h3.192a2.34 2.34 0 0 0-1.596-.629m-12.114 0c-.618 0-1.178.239-1.599.629h3.198a2.34 2.34 0 0 0-1.599-.629m-11.094 0c-.618 0-1.178.239-1.599.629h3.198a2.34 2.34 0 0 0-1.599-.629m-10.177.629h3.193a2.34 2.34 0 0 0-3.193 0"/>
  <path fill="#777"
        d="M169.559 194.55c-93.498 0-169.293-3.151-169.293-7.037s75.795-7.036 169.293-7.036 169.293 3.15 169.293 7.036-75.795 7.037-169.293 7.037"
        opacity=".5"/>
  <path fill="#aaa" stroke="#1d1d1b" stroke-miterlimit="10" stroke-width=".61"
        d="M340.96 15.82v124.056c-123.023 0-122.065.027-245.089.027l-.027-124.055z"/>
  <path fill="#ef5e54"
        d="M19.75 68.829c.152-.37.667-.676.997-.922a5 5 0 0 1 .682-.43c2.403-1.216 5.296-1.919 8.144-2.458 1.67-.33 3.585-.521 5.363-.549 17.841-.438 27.993-.548 46.162-.548 1.258 0 2.654.466 2.873 2.604 1.477 13.65 2.408 27.63 2.927 41.333l.034 2.95c.074.69.074 4.688.074 5.675l.024 2.808c.043.779-.03-.582 0 0l.06 1.68v16.106l.082 1.288H60.056c-3.804 0-7.443.055-10.864 3.591-2.407 2.522-4.104 5.29-5.445 8.689H13.676v-13.075l-10.453-.027c-.794-.329-1.56-1.288-1.642-2.741-.3-5.646.192-11.347 1.04-16.912.082-.685.246-1.425 1.477-1.946l.028-3.015c0-1.124.93-1.617 2.161-1.562 3.968-15.075 8.346-29.465 13.463-42.54"/>
  <path stroke="#ef5e54" stroke-miterlimit="10" stroke-width=".61"
        d="m87.03 119.292-.024-2.808c0-.987 0-4.985-.074-5.675l-.034-2.95c-.52-13.704-1.45-27.683-2.927-41.333-.22-2.138-1.615-2.604-2.873-2.604-18.17 0-28.321.11-46.162.548-1.778.028-3.693.22-5.363.549-2.848.54-5.741 1.242-8.144 2.458a5 5 0 0 0-.682.43c-.33.246-.845.553-.997.922-5.117 13.074-9.495 27.464-13.462 42.539-1.232-.055-2.162.438-2.162 1.562l-.028 3.015c-1.23.521-1.395 1.261-1.477 1.946-.848 5.565-1.34 11.266-1.04 16.912.082 1.453.848 2.412 1.642 2.741l10.453.027v13.075h30.071c1.341-3.399 3.038-6.167 5.445-8.689 3.42-3.536 7.06-3.591 10.864-3.591h27.116l-.082-1.288v-16.106zm0 0c-.03-.582.043.779 0 0Z"/>
  <path fill="#5e5e5e"
        d="M67.28 148.734c11.602 0 21.07 9.484 21.07 21.106s-9.468 21.105-21.07 21.105-21.07-9.484-21.07-21.105 9.468-21.106 21.07-21.106"/>
  <path stroke="#1d1d1b" stroke-miterlimit="10" stroke-width=".61"
        d="M82.25 64.008c0 .192.465 3.371.465 3.509a585 585 0 0 1 2.873 40.347l.192 20.995v9.539"/>
  <path stroke="#1d1d1b" stroke-miterlimit="10" stroke-width=".61"
        d="M82.25 64.008c0 .192.465 3.371.465 3.509a585 585 0 0 1 2.873 40.347l.192 20.995v9.539"/>
  <path fill="#686866"
        d="M20.551 68.055c-.31.26-.647.477-.756.751C14.869 81.8 10.282 96.273 6.287 111.35c-1.204-.055-2.135.438-2.135 1.589l-.054 3.016c-.028 0-.082.027-.137.054h9.358l1.231-4.632 9.632-38.32c.575-2 .884-2.973-3.63-5.001"/>
  <path fill="#97c1bf"
        d="M19.556 69.438c-4.843 12.827-9.358 27.08-13.244 41.908h6.65c3.858-13.074 6.512-25.819 10.096-38.976.356-1.315-.629-1.617-1.668-2.193z"/>
  <path fill="#97c1bf"
        d="M19.556 69.438c-4.843 12.827-9.358 27.08-13.244 41.908h6.65c3.858-13.074 6.512-25.819 10.096-38.976.356-1.315-.629-1.617-1.668-2.193z"/>
  <path fill="#686866"
        d="m40.44 106.574 20.905-1.946c2.572-.246 3.83-1.343 3.83-2.631V79.494c0-1.288-.875-2.33-2.325-2.33H39.646c-1.259 0-1.943 0-1.943 1.7v25.326c0 1.37.219 2.631 2.736 2.384"/>
  <path fill="#97c1bf"
        d="M61.317 104.354c1.56-.219 3.366-.576 3.585-2.385V79.493c-.082-1.315-.849-1.919-2.08-2.055H39.29c-1.04.082-1.204.438-1.313 1.424v25.327c.11 1.727.684 2.11 2.462 2.11z"/>
  <path fill="#686866"
        d="M33.98 76.148h-3.2c-.93 0-2.134 1.014-2.353 1.892l-7.36 25.792c-.931 3.372 2.872 5.29 5.527 5.044l6.868-.603c.793-.082 1.368-.439 1.368-1.645V77.354c0-.712-.082-1.206-.849-1.206"/>
  <path fill="#97c1bf"
        d="M21.75 105.015c.274 2.248 2.709 3.07 4.788 2.96l6.787-.521c.656-.109.656-.246.684-.849V77.139l-.028-.164c-1.888 0-4.077-.247-4.788 1.343l-7.334 25.71-.109.521z"/>
  <path stroke="#1d1d1b" stroke-miterlimit="10" stroke-width=".131" d="M10.555 111.344h3.94m-2.026 4.664h1.943"/>
  <path fill="#d3d3d3" stroke="#1d1d1b" stroke-miterlimit="10" stroke-width=".61"
        d="M18.137 144.891h6.513c.492 0 .848.356.848.85v1.754c0 .493-.356.85-.848.85h-6.513c-.492 0-.848-.357-.848-.85v-1.754c0-.494.356-.85.848-.85Z"/>
  <path stroke="#1d1d1b" stroke-miterlimit="10" stroke-width=".61"
        d="m70.04 138.34.547-65.07c0-.411-.712-.658-1.013-.658l-37.049-.439c-3.776-.055-6.84 1.48-7.853 5.318L14.41 115.974l-.74 21.599"/>
  <path fill="#5b5b5b" stroke="#1d1d1b" stroke-miterlimit="10" stroke-width=".131"
        d="M38.304 86.838c1.177.247 2.052.302 3.174.22 1.095-.056 2.052-.905 2.052-2.057v-4.878a2.05 2.05 0 0 0-2.052-2.056l-3.174.11c-1.013 0-2.052 1.041-2.052 2.055v.22h-1.009l.051-3.591c0-.877-.93-2.275-1.943-2.275h-2.353v1.343h1.532c.52 0 1.505.356 1.505.932l-.492 34.756c0 .74-1.04 1.096-1.806 1.178l-2.436.247c-.848.082-.848 1.508.055 1.425l3.721-.411c.958-.082 1.724-1.48 1.724-2.439l.168-11.848q.052.006.106.006h.904l-.138 4.77c0 1.069.93 1.809 2.052 2.056 1.204.274 2.435.329 3.585.219 1.121-.082 2.052-.905 2.052-2.056V90.209a2.05 2.05 0 0 0-2.052-2.055l-3.175.11c-1.066 0-2.052.986-2.052 2.055l-.15 5.18h-1.026q-.023 0-.046.003l.153-10.774h1.07v.054c0 1.014.957 1.837 2.052 2.056Z"/>
  <path fill="#97c1bf" stroke="#1d1d1b" stroke-miterlimit="10" stroke-width=".61"
        d="M1.771 135.659c-.22-.539-.14-1.163-.196-1.931-.136-2.796-.08-4.487.112-7.283h1.149c-.383 3.755-.438 5.948.328 9.128z"/>
  <path fill="#686866"
        d="M87.09 138.374H60.055c-3.776 0-7.497.109-10.836 3.563-2.353 2.467-4.104 5.318-5.472 8.716H13.702v-13.102H3.25c-.11-.055-.22-.109-.329-.192v10.142l.493 3.042c.137.823 1.751.247 1.779 1.179l.027 1.508H1.827c-.82 0-1.779.877-1.806 1.617-.082 2.905.082 5.646.356 8.168.11 1.041 1.614 1.644 2.353 2.467l2.572 2.686 33.492.493c.575 0 1.614-.274 1.724-1.343.82-6.496 3.694-12.142 8.4-16.829 3.065-3.07 8.483-5.263 12.095-5.263l24.024.027c5.555 8.552 9.221 19.023 12.396 29.767.471 1.667 1.282.94 2.184.71a.31.31 0 0 0 .234-.346c-1.294-8.572-2.383-12.8-6.495-24.183-2.107-4.248-4.187-8.551-6.266-12.827"/>
  <path stroke="#1d1d1b" stroke-miterlimit="10" stroke-width=".61"
        d="M18.159 150.703H3.547m40.066 0-5.172 9.484c-.875 1.644-2.709 2.659-4.651 2.659H19.178c-1.231 0-2.983-1.042-3.01-2.467l-.355-8.662"/>
  <path stroke="#1d1d1b" stroke-miterlimit="10" stroke-width=".61"
        d="M40.466 156.516c-1.012 1.426-2.243 2.139-3.639 2.139H16.031m-10.867-6.827H43.2m-27.473 1.016h26.76m-38.221.414h8.51c.601 0 1.203.795 1.203 1.398v13.595"/>
  <path stroke="#1d1d1b" stroke-miterlimit="10" stroke-width=".131" d="M13.672 150.539v1.289"/>
  <path stroke="#1d1d1b" stroke-miterlimit="10" stroke-width=".61"
        d="m68.976 138.372.547-64c0-.412-.794-.659-1.013-.659l-36.338-.438c-4.159-.055-5.527 1.453-6.293 4.303l-10.425 38.428-.657 21.571v14.253"/>
  <path fill="#97c1bf"
        d="M6.775 138.039c-.082 3.069-.027 7.044.384 8.743.054.11.492.713.766.713.3 0 .52-.028.711-.028-.027.028-.11.028-.3.028-.138 0-2.518.027-2.682.027-.274 0-.575-.356-.74-.74-.656-1.754-.492-5.674-.382-8.743z"/>
  <path stroke="#1d1d1b" stroke-miterlimit="10" stroke-width=".61"
        d="M78.39 145.281h12.122m-1.642-3.429H61.233c-5.117 0-11.219 2.631-13.873 6.989l-6.293 10.251c-1.423 2.33-4.734 3.755-7.525 3.755h-3.886"/>
  <path stroke="#000" stroke-miterlimit="10" stroke-width=".61" d="M100.828 15.852v124.056M335.953 15.82v124.056"/>
  <path fill="#3d3d3c" stroke="#1d1d1b" stroke-miterlimit="10" stroke-width=".131"
        d="M67.28 155.336c-7.99 0-14.475 6.523-14.475 14.5 0 8.003 6.485 14.499 14.475 14.499 7.962 0 14.475-6.496 14.475-14.499 0-7.977-6.513-14.5-14.475-14.5Z"/>
  <path fill="#d3d3d3" stroke="#1d1d1b" stroke-miterlimit="10" stroke-width=".61"
        d="M67.28 156.023c-7.608 0-13.82 6.222-13.82 13.842s6.212 13.842 13.82 13.842c7.606 0 13.817-6.222 13.817-13.842s-6.211-13.842-13.818-13.842Z"/>
  <path stroke="#3d3d3c" stroke-miterlimit="10" stroke-width=".61"
        d="M67.254 158.133c-6.457 0-11.684 5.263-11.684 11.704 0 6.468 5.227 11.704 11.684 11.704 6.43 0 11.684-5.236 11.684-11.704 0-6.441-5.254-11.704-11.684-11.704Z"/>
  <path fill="#3d3d3c" stroke="#1d1d1b" stroke-miterlimit="10" stroke-width=".131"
        d="M76.64 163.973c-.493-.685-1.04-1.398-1.587-1.973-.985 1.37-2.764 3.015-2.764 4.796.383 2.851 1.396 3.399 3.913 4.222.602.164 1.396.438 1.97.603.465-2.714-.191-5.318-1.532-7.648Zm-4.03 9.535c-1.34.109-2.954 1.26-3.474 2.521-.356 1.481-.192 3.207-.192 4.715 3.448-.521 6.65-2.823 8.182-5.921-1.478-.465-2.956-1.206-4.515-1.315Zm-7.167 2.521c-.52-1.233-2.189-2.412-3.475-2.521-1.505.136-3.092.85-4.515 1.288 1.56 3.125 4.734 5.454 8.154 5.948 0-1.508.192-3.234-.164-4.715Zm-3.634-7.368c.711-2.22.41-3.207-1.095-4.989-.383-.548-.82-1.096-1.231-1.617-2.135 2.412-3.202 4.906-3.202 8.168.028.411.11.96.137 1.398 1.806-.63 4.16-.795 5.199-2.604zm7.821-5.125c.985-.96 1.916-2.385 2.682-3.509-.684-.658-3.256-1.096-4.187-1.206-1.997-.137-4.077.329-5.883 1.206.794 1.124 1.642 2.549 2.627 3.509 1.094.958 3.612.904 4.761 0Z"/>
  <path stroke="#3d3d3c" stroke-miterlimit="10" stroke-width=".61"
        d="M67.308 165.148c2.572 0 4.68 2.083 4.68 4.714 0 2.577-2.108 4.687-4.68 4.687-2.6 0-4.706-2.11-4.706-4.687a4.693 4.693 0 0 1 4.706-4.714Z"/>
  <path fill="#3d3d3c" stroke="#1d1d1b" stroke-miterlimit="10" stroke-width=".131"
        d="M67.335 165.617c2.326 0 4.214 1.865 4.214 4.249a4.22 4.22 0 0 1-4.214 4.221 4.225 4.225 0 0 1-4.241-4.221 4.214 4.214 0 0 1 4.24-4.249Z"/>
  <path fill="#5e5e5e"
        d="M235.147 149.993c10.89-3.974 23.37 1.581 27.007 12.636 3.628 11.027-1.696 23.052-12.614 27.053-10.891 3.975-23.012-1.699-27.007-12.636-3.968-10.908 1.696-23.051 12.614-27.053"/>
  <path fill="#3d3d3c" stroke="#1d1d1b" stroke-miterlimit="10" stroke-width=".131"
        d="M237.39 156.214c-7.497 2.741-11.383 11.074-8.646 18.584s11.054 11.402 18.552 8.661c7.497-2.713 11.382-11.073 8.646-18.556-2.736-7.537-11.054-11.43-18.552-8.689Z"/>
  <path fill="#d3d3d3" stroke="#1d1d1b" stroke-miterlimit="10" stroke-width=".61"
        d="M237.615 156.873c-7.141 2.604-10.835 10.553-8.236 17.734 2.6 7.154 10.562 10.882 17.704 8.278 7.142-2.632 10.863-10.58 8.264-17.734-2.6-7.182-10.563-10.882-17.732-8.278Z"/>
  <path stroke="#3d3d3c" stroke-miterlimit="10" stroke-width=".61"
        d="M238.32 158.849c-6.047 2.22-9.193 8.936-6.977 15.021 2.189 6.057 8.92 9.209 14.967 6.989s9.194-8.936 7.005-14.993c-2.216-6.085-8.947-9.209-14.995-7.017Z"/>
  <path fill="#3d3d3c" stroke="#1d1d1b" stroke-miterlimit="10" stroke-width=".131"
        d="M249.135 161.121c-.684-.466-1.451-.987-2.162-1.316-.465 1.644-1.587 3.782-.958 5.455 1.341 2.549 2.463 2.713 5.117 2.631.602-.055 1.45-.082 2.052-.11-.465-2.714-1.997-4.934-4.049-6.66Zm-.497 10.329c-1.231.575-2.353 2.22-2.435 3.563.164 1.508.903 3.07 1.45 4.523 3.037-1.7 5.281-4.962 5.664-8.388-1.56.055-3.201-.109-4.679.302Zm-5.906 4.826c-.903-.96-2.873-1.508-4.132-1.151-1.368.63-2.599 1.836-3.803 2.741 2.545 2.412 6.348 3.481 9.714 2.796-.52-1.426-.931-3.125-1.779-4.386Zm-5.942-5.669c-.082-2.33-.684-3.179-2.709-4.331a93 93 0 0 1-1.724-1.096c-1.177 3.015-1.313 5.701-.219 8.771.164.384.438.877.602 1.261 1.477-1.179 3.639-2.138 3.995-4.194zm5.637-7.513c.575-1.233.958-2.905 1.287-4.194-.849-.411-3.421.083-4.324.302-1.943.548-3.721 1.699-5.117 3.152 1.122.768 2.408 1.809 3.64 2.385 1.368.521 3.721-.384 4.514-1.645Z"/>
  <path stroke="#3d3d3c" stroke-miterlimit="10" stroke-width=".61"
        d="M240.763 165.422a4.696 4.696 0 0 1 6.02 2.823c.876 2.412-.383 5.126-2.791 6.003-2.463.877-5.144-.357-6.02-2.796-.902-2.44.356-5.153 2.791-6.03Z"/>
  <path fill="#3d3d3c" stroke="#1d1d1b" stroke-miterlimit="10" stroke-width=".131"
        d="M240.956 165.833c2.189-.795 4.596.329 5.417 2.549.794 2.22-.328 4.632-2.517 5.427a4.26 4.26 0 0 1-5.445-2.521 4.26 4.26 0 0 1 2.545-5.455Z"/>
  <path fill="#686866" stroke="#1d1d1b" stroke-miterlimit="10" stroke-width=".61"
        d="M239.967 148.812a21.6 21.6 0 0 0-4.816 1.152c-9.276 3.398-14.804 12.772-13.709 22.229h-2.517l-7.498-2.412v-4.495c0-.96-.876-1.781-1.97-1.781h-77.492c-1.094 0-1.915.766-1.915 1.781v7.071c0 .357.137.712.356.987h-.11c-3.283 1.452-21.042.987-26.296 1.124l-4.296-.028-.3-2.247c-1.15-6.634-2.463-11.102-6.048-20.996a90 90 0 0 0-1.122-2.385z"/>
  <path fill="#2b2a25"
        d="M222.26 163.508a21.1 21.1 0 0 0-.52 10.689h-89.805c-.712 0-1.314-.328-1.669-.849h.164c-.219-.302-.383-.658-.383-1.014v-7.072c0-.521.219-.932.52-1.261a2.1 2.1 0 0 1 1.368-.493z"/>
  <path stroke="#1d1d1b" stroke-miterlimit="10" stroke-width=".61"
        d="M99.953 148.758v21.516m6.102-21.516v17.706m-6.102.005h30.079m-30.985 3.81h21.972c3.393 0 6.458-.713 9.058-2.084"/>
  <path fill="#9c9c9c" stroke="#1d1d1b" stroke-miterlimit="10" stroke-width=".131"
        d="M132.986 150.242h30.241a2.825 2.825 0 0 1 2.805 2.536 30.2 30.2 0 0 1-.012 6.382 2.827 2.827 0 0 1-2.805 2.539h-30.209a2.825 2.825 0 0 1-2.807-2.554 32 32 0 0 1-.02-6.35 2.825 2.825 0 0 1 2.807-2.553Z"/>
  <path stroke="#1d1d1b" stroke-miterlimit="10" stroke-width=".61"
        d="M181.438 148.899v4.687h5.033l-.026-4.742m-20.359 9.867h52.154l4.323 4.222"/>
  <path fill="#686866"
        d="M260.898 159.695c.493.932.931 1.892 1.287 2.906 1.104 3.884 1.454 7.738.66 11.465l30.205.074c1.888 0 3.393-1.425 3.393-3.152v-10.142c0-.356-.082-.712-.219-1.014-.082-.055-.164-.082-.274-.137z"/>
  <path fill="#686866" stroke="#1d1d1b" stroke-miterlimit="10" stroke-width=".61"
        d="M260.898 159.698c-3.42-6.222-9.686-10.196-16.5-10.909h69.694c4.651 3.81 9.932 7.455 16.089 10.964 2.901-.685 6.075-2.028 7.47-.603-.027 2.741-.027 5.482-.027 8.195 0 1.59-.903 2.056-2.189 2.084-9.249-1.645-17.813-5.098-25.885-9.731z"/>
  <path stroke="#1d1d1b" stroke-miterlimit="10" stroke-width=".61"
        d="M300.109 156.463v-7.565m24 7.813h-37.131l-27.298 1.028m45.164 2.041v-3.069"/>
  <path stroke="#1d1d1b" stroke-miterlimit="10" stroke-width=".131" d="M330.188 159.758v8.522"/>
  <path stroke="#000" stroke-miterlimit="10" stroke-width=".61" d="M218.406 20.484v115.532"/>
  <path stroke="#1d1d1b" stroke-miterlimit="10" stroke-width=".61"
        d="M271.789 148.899v4.687h5.035l-.028-4.742m31.251.055v4.687h5.035l-.028-4.742"/>
  <path stroke="#000" stroke-miterlimit="10" stroke-width=".61" d="M100.828 20.484h235.129M100.828 136.016h235.129"/>
  <path fill="#2b2a25"
        d="m16.25 168.301 22.574.356c.548 0 1.587-.274 1.697-1.37.82-6.469 3.721-12.115 8.428-16.83 3.064-3.07 8.482-5.262 12.094-5.262l24.024.054c5.364 8.278 8.975 18.365 12.068 28.726h-9.167a20.6 20.6 0 0 0 .41-4.139c0-11.622-9.467-21.106-21.07-21.106-11.601 0-21.069 9.484-21.069 21.106 0 .219.028.438.028.658l-22.082-1.471c-2.488-.195 0 0-7.935-.722"/>
  <path stroke="#1d1d1b" stroke-miterlimit="10" stroke-width=".61"
        d="M24.508 71.406c1.308-2.001 3.658-3.4 7.118-3.975l50.986-.712"/>
  <path fill="#f9f9f9" d="M2.813 126.529c.081-3.508.629-6.989 1.368-10.552z"/>
  <path stroke="#1d1d1b" stroke-miterlimit="10" stroke-width=".61"
        d="M2.813 126.529c.081-3.508.629-6.989 1.368-10.552"/>
  <path fill="#2b2a25" d="M.46 163.125c.22.959 1.588 1.535 2.3 2.329l2.572 2.687 8.756.109v-5.125z"/>
  <path fill="#97c1bf" stroke="#1d1d1b" stroke-miterlimit="10" stroke-width=".61"
        d="M11.127 138.039h-4.36c-.11 3.069-.275 6.989.383 8.743.165.384.466.74.741.74 1.453 0 1.59-.192 3.236-.822.22-.082.685-.384.74-.74.33-2.44.466-4.523 0-7.181-.055-.521-.247-.74-.74-.74Z"/>
  <path fill="#686866"
        d="M73.524 126.224c.657 0 .804-.313.804-.893v-5.132c0-.401-.402-.847-.804-.847H69.85c-.475 0-.804.625-.804.87v5.132c0 .669.457.892.804.892 1.188 0 2.485-.022 3.673-.022"/>
  <path fill="#2b2a25"
        d="M72.706 120.227h-.817a.405.405 0 0 0-.405.405v4.343c0 .224.182.406.405.406h.817a.406.406 0 0 0 .404-.406v-4.343a.404.404 0 0 0-.404-.405m264.94 39.04-.044 8.446a2 2 0 0 1-.08.432 1.7 1.7 0 0 1-.216.492 1.6 1.6 0 0 1-.603.532c-.238.127-.443.164-.654.203a3 3 0 0 1-.627.049l-1.469-.28v-10.368l.217-.052a9 9 0 0 1 .932-.157c.26-.03.476-.053.766-.047.292.006.643.016 1.043.164a2 2 0 0 1 .644.378.28.28 0 0 1 .091.208"/>
  <path fill="#686866" stroke="#1d1d1b" stroke-miterlimit="10" stroke-width=".61"
        d="M234.523 150.181c.218-.055.41-.137.629-.219.246-.11.492-.192.739-.274l-.739.247c-.219.082-.411.164-.629.246Zm0-10.302v8.908h5.445c-.876.137-1.752.302-2.627.521 4.843-1.179 9.796-.575 14.092 1.453h.109a21.4 21.4 0 0 0-7.114-2.001h69.036v-8.908c-34.751 0-58.036.027-78.941.027Zm-.005 8.904v-8.908c-34.614.028-62.715.028-125.541 0v8.908zm.002 1.405c-.437.192-.903.383-1.34.575h.054c.411-.192.849-.383 1.286-.575Z"/>
  <path fill="#686866" stroke="#1d1d1b" stroke-miterlimit="10" stroke-width=".61"
        d="M235.889 149.688a8 8 0 0 0-.739.274c-.657.219-1.286.493-1.916.795h-.054a24 24 0 0 1 1.97-.822z"/>
  <path fill="#777"
        d="M650.523 233.815c48.463 0 87.75-4.329 87.75-9.669s-39.287-9.669-87.75-9.669-87.75 4.329-87.75 9.669 39.287 9.669 87.75 9.669"
        opacity=".5"/>
  <path fill="#000"
        d="M570.242 196.07v22.4c0 4.532 1.59 6.125 3.532 6.125h11.2c1.943 0 3.531-1.593 3.531-6.125v-22.4zm142.586 0v22.4c0 4.532 1.59 6.125 3.532 6.125h11.2c1.943 0 3.531-1.593 3.531-6.125v-22.4z"/>
  <path fill="#ffcc32"
        d="M728.782 162.194s-8.192-3.709-8.419-7.033c0 0-8.862-41.49-22.992-44.66-.14-.031-20.332-3.579-43.749-3.579h-6.212c-23.417 0-43.61 3.548-43.749 3.579-14.131 3.17-22.993 44.66-22.993 44.66-.226 3.324-8.419 7.033-8.419 7.033-16.052 10.099.911 47.189.911 47.189.676 1.092 2.386 2.939 7.041 2.939H720.83c4.655 0 6.366-1.847 7.041-2.939 0 0 14.935-38.542.911-47.189m-20.346-7.302H592.429c-10.012.456 4.604-31.951 4.604-31.951 1.593-4.103 6.012-6.56 6.012-6.56 3.673-1.837 16.945-3.838 33.891-4.592v-.039c4.572-.195 9.101-.279 13.505-.271 7.073-.012 14.465.213 21.842.753v.047c12.857.944 22.493 2.58 25.537 4.102 0 0 4.42 2.457 6.012 6.56 0 0 14.617 32.407 4.604 31.951"/>
  <path fill="#f7941e"
        d="M572.258 207.07a78 78 0 0 0 .904 2.316q.104.17.245.36h154.221q.14-.19.244-.36s.299-.844.773-2.316z"/>
  <path fill="url(#F)" d="M711.994 111.453H588.867v43.483h123.127z"/>
  <path fill="#58595b"
        d="M682.655 175.047h-64.646c-2.119 0-4.868 2.14-4.402 5.279l3.481 14.786c1.029 3.144 2.486 5.279 4.605 5.279h57.279c2.119 0 3.875-1.599 4.604-5.279l3.159-14.786c.588-3.296-1.96-5.279-4.08-5.279"/>
  <path fill="#272423"
        d="M681.39 179.07h-60.827c-1.994 0-3.61 1.839-3.61 4.108l2.743 11.504c.969 2.446 2.339 4.107 4.333 4.107h53.895c1.994 0 4.013-1.516 4.333-4.107L685 183.178c0-2.269-1.616-4.108-3.61-4.108"/>
  <path fill="#272423"
        d="M681.504 179.07h-62.27c-1.994 0-2.922 1.839-2.922 4.108l2.745 11.504c.968 2.446 2.338 4.107 4.332 4.107h53.895c1.993 0 4.013-1.516 4.332-4.107l2.743-11.504c0-2.269-.862-4.108-2.855-4.108"/>
  <path fill="#58595b"
        d="m616.312 183.177.468 1.96h67.113l.466-1.96q0-.114-.004-.224h-68.037q-.005.11-.006.224m1.584 6.655h64.874l.521-2.184h-65.916zm1.141 4.775h62.597l.521-2.185h-63.639z"/>
  <path fill="#f5f5f5"
        d="M606.412 200.954c.412 1.005-.276 1.823-1.531 1.823h-25.409c-1.258 0-2.162-.818-2.02-1.823l1.027-5.796c.14-1.006 1.07-1.822 2.078-1.822h20.328c1.002 0 2.151.816 2.559 1.822zm88.199.001c-.41 1.004.276 1.822 1.536 1.822h25.41c1.253 0 2.159-.818 2.016-1.827l-1.028-5.791c-.139-1.007-1.072-1.823-2.077-1.823h-20.327c-1.005 0-2.151.816-2.56 1.822z"/>
  <path fill="#bfbfbf"
        d="M605.905 199.711c-.27.151-.617.237-1.024.237h-25.409c-.78 0-1.423-.314-1.766-.792l-.254 1.802c-.142 1.005.762 1.822 2.02 1.822h25.409c1.255 0 1.943-.817 1.531-1.822zm117.414-.555c-.343.478-.985.792-1.762.792h-25.41c-.41 0-.758-.086-1.028-.237l-.508 1.247c-.41 1.005.276 1.823 1.536 1.823h25.41c1.253 0 2.159-.818 2.016-1.827z"/>
  <path fill="#978a90"
        d="M581.767 156.941c0 .692-.917 1.256-2.048 1.256h-7.282c-1.13 0-2.046-.564-2.046-1.256 0-.691.916-1.253 2.046-1.253h7.282c1.131 0 2.048.562 2.048 1.253m137.499.383c0 .692.916 1.254 2.046 1.254h7.28c1.134 0 2.05-.562 2.05-1.254s-.916-1.254-2.05-1.254h-7.28c-1.13 0-2.046.562-2.046 1.254"/>
  <path fill="url(#G)" d="M712.197 157.914H588.664v6.367h123.533z"/>
  <path fill="url(#H)" d="M700.773 124.93H598.539v25.737h102.234z"/>
  <path fill="#6d6e71"
        d="M701.305 136.211H597.906c-3.893 0-4.992 16.676-4.992 18.582.401.08 44.022.104 44.022.104h71.501c.811.019-1.646-18.556-7.132-18.686"/>
  <path fill="#636466"
        d="M574.476 145.709c-1.53 0-6.615-.222-10.397 1.119-3.796 1.34-4.821 3.679-4.821 5.591 0 1.903 1.025 4.239 4.821 5.581 3.782 1.339 8.867 1.117 10.397 1.117 1.524 0 2.384-1.204 2.384-2.101v-9.203c0-.897-.86-2.104-2.384-2.104"/>
  <path fill="#414042"
        d="M574.478 145.711c-.048 0 .666 12.841-12.935 8.981-.856-.243-1.542-.642-2.129-1.02.403 1.595 1.673 3.271 4.667 4.33 3.782 1.34 8.867 1.118 10.397 1.118 1.524 0 2.384-1.204 2.384-2.101v-9.204c0-.897-.86-2.104-2.384-2.104"/>
  <path fill="#636466"
        d="M726.555 145.709c1.53 0 6.615-.222 10.398 1.119 3.796 1.34 4.821 3.679 4.821 5.591 0 1.903-1.025 4.239-4.821 5.581-3.783 1.339-8.868 1.117-10.398 1.117-1.523 0-2.383-1.204-2.383-2.101v-9.203c0-.897.86-2.104 2.383-2.104"/>
  <path fill="#414042"
        d="M726.555 145.711c.048 0-.666 12.842 12.935 8.982.856-.243 1.542-.642 2.129-1.02-.403 1.594-1.672 3.271-4.666 4.33-3.783 1.339-8.868 1.117-10.398 1.117-1.523 0-2.383-1.204-2.383-2.101v-9.203c0-.897.86-2.105 2.383-2.105"/>
  <path fill="#f5f5f5"
        d="M603.357 170.147c-2.918-1.305-8.844-1.988-14.705-2.057-7.039-.077-13.398.947-14.912 2.631-2.768 3.096-1.789 11.512 5.838 13.672.595.167 1.223.32 1.872.455 11.463 2.453 30.264.302 30.264.302s-1.334-11.86-8.357-15.003"/>
  <path fill="#f5f5f5"
        d="M602.296 171.121c-2.647-1.185-8.023-1.805-13.34-1.866-6.387-.07-12.683.661-14.057 2.189-2.51 2.808-1.095 9.892 5.824 11.851.54.151 1.11.29 1.699.413 10.399 2.225 27.644.377 27.644.377s-1.398-10.113-7.77-12.964"/>
  <path fill="#bfbfbf"
        d="M574.899 171.444c1.374-1.528 7.67-2.259 14.057-2.189-6.813 4.634-6.971 11.173-6.534 14.453a26 26 0 0 1-1.698-.413c-6.92-1.959-8.335-9.042-5.825-11.851"/>
  <path fill="#b2b3b3"
        d="M605.006 178.531c-.437 3.287-3.482 5.592-6.802 5.149-3.321-.443-5.659-3.466-5.222-6.754.438-3.29 3.484-5.596 6.805-5.153s5.657 3.468 5.219 6.758"/>
  <path fill="#dcdbdb"
        d="M603.397 178.317c-.32 2.41-2.554 4.1-4.989 3.775-2.437-.325-4.151-2.541-3.831-4.952.321-2.413 2.555-4.105 4.992-3.779 2.434.324 4.149 2.543 3.828 4.956"/>
  <path fill="#fff"
        d="M600.484 174.435a4.46 4.46 0 0 1 2.327 1.041 4.46 4.46 0 0 0-3.234-2.116c-2.438-.325-4.671 1.364-4.992 3.777a4.39 4.39 0 0 0 1.503 3.911 4.36 4.36 0 0 1-.594-2.837c.321-2.411 2.556-4.101 4.99-3.776"/>
  <path fill="#f5f5f5"
        d="M696.983 170.147c2.917-1.305 8.843-1.988 14.704-2.057 7.04-.077 13.399.947 14.912 2.631 2.768 3.096 1.79 11.512-5.838 13.672-.595.167-1.223.32-1.872.455-11.463 2.453-30.264.302-30.264.302s1.334-11.86 8.358-15.003"/>
  <path fill="#f5f5f5"
        d="M698.043 171.121c2.647-1.185 8.023-1.805 13.341-1.866 6.386-.07 12.683.661 14.056 2.189 2.511 2.808 1.096 9.892-5.824 11.851-.54.151-1.11.29-1.699.413-10.399 2.225-27.644.377-27.644.377s1.398-10.113 7.77-12.964"/>
  <path fill="#bfbfbf"
        d="M725.439 171.444c-1.373-1.528-7.67-2.259-14.056-2.189 6.812 4.634 6.97 11.173 6.533 14.453a26 26 0 0 0 1.699-.413c6.92-1.959 8.335-9.042 5.824-11.851"/>
  <path fill="#b2b3b3"
        d="M695.334 178.531c.437 3.287 3.482 5.592 6.802 5.149 3.321-.443 5.659-3.466 5.222-6.754-.438-3.29-3.484-5.596-6.804-5.153s-5.657 3.468-5.22 6.758"/>
  <path fill="#dcdbdb"
        d="M696.937 178.317c.321 2.41 2.554 4.1 4.989 3.775 2.437-.325 4.151-2.541 3.83-4.952-.321-2.413-2.554-4.105-4.991-3.779-2.434.324-4.149 2.543-3.828 4.956"/>
  <path fill="#fff"
        d="M699.858 174.435a4.46 4.46 0 0 0-2.327 1.041 4.46 4.46 0 0 1 3.234-2.116c2.437-.325 4.671 1.364 4.992 3.777a4.39 4.39 0 0 1-1.503 3.911c.497-.825.73-1.812.594-2.837-.321-2.411-2.556-4.101-4.99-3.776"/>
  <path fill="#6d6e71"
        d="M668.387 211.567c0 1.826-1.583 3.306-3.535 3.306h-28.278c-1.952 0-3.535-1.48-3.535-3.306v-4.119c0-1.826 1.583-3.307 3.535-3.307h28.278c1.952 0 3.535 1.481 3.535 3.307z"/>
  <path fill="#fff"
        d="M667.205 211.292c0 1.522-1.48 2.757-3.305 2.757h-26.446c-1.825 0-3.306-1.235-3.306-2.757v-3.433c0-1.523 1.481-2.757 3.306-2.757H663.9c1.825 0 3.305 1.234 3.305 2.757z"/>
  <path fill="#58595b" d="m595.272 133.117-.422 21.769h-3.084l2.245-18.338z"/>
  <path fill="#414042"
        d="M659.595 118.228c-.742-1.453-1.757-3.54-2.652-3.54H643.91c-.896 0-1.911 2.087-2.652 3.54-.386.757.05 1.487.949 1.487h16.438c.899 0 1.336-.73.95-1.487"/>
  <path fill="url(#I)" d="M659.8 118.969h-18.73v1.219h18.73z"/>
  <path fill="#5a5b5d" d="M649.266 115.093a1.25 1.25 0 1 0 2.504-.001v-3.615h-2.504z"/>
  <path fill="url(#J)" d="M683.46 140.641h-13.726v14.9h13.726z"/>
  <path fill="url(#K)" d="M695.901 140.641h-13.049v15.51h13.049z"/>
  <path fill="url(#L)" d="M691.441 129.398h-3.449v1.897h3.449z"/>
  <path fill="url(#M)" d="M676.3 129.469h-3.448v1.896h3.448z"/>
  <path fill="#414042"
        d="m684.984 140.725.021.035.385.132c2.622.537 4.943 1.941 6.728 3.714l6.128-5.229a9.18 9.18 0 0 0-4.383-5.205c-1.464 3.359-4.25 5.837-8.879 6.553m10.805 12.263h3.108l-.202-9.676-4.562 3.791c1.257 1.98 1.886 4.104 1.656 5.885m-15.186-12.063q.202-.043.402-.08c-2.808-.306-5.308-1.478-7.238-3.251a8.8 8.8 0 0 0-1.223 3.943l-.091 4.353c1.738-2.198 4.393-4.142 8.15-4.965"/>
  <path fill="#ffcc32"
        d="m689.8 153.572-.001-.001-.029-.032-.002-.002-.027-.032-.002-.003-.024-.032-.002-.003-.022-.032-.002-.003-.02-.032-.002-.004-.018-.032-.002-.004-.016-.031-.002-.003-.015-.032-.001-.003-.014-.032-.001-.001-.012-.032v-.001a1 1 0 0 1-.03-.091 4 4 0 0 1-.537-.473c-.698-.737-.094-1.006-.094-1.006l.031-.103-.05-.036-.258.149-3.859 3.206h5.745c-.005-.357-.008-.711-.01-1.054-.347.025-.575-.092-.724-.245m-18.237-2.888c.191-1.354 1.17-2.275 2.281-2.228q.195.008.39.058c.374.091.726.273 1.035.52 1.979-1.904 4.761-3.1 7.848-3.131l-1.582-1.124-2.701.075 1.552-3.472 1.255-.484a13 13 0 0 1-.636-.054q-.201.037-.402.08c-3.758.823-6.413 2.767-8.15 4.965-2.807 3.55-3.217 7.763-2.004 8.981h2.709c.16-.217.316-.499.466-.859.051-.024.123-.145.216-.326l-.016-.001c-1.461-.146-2.474-1.49-2.261-3"/>
  <path fill="#ffcc32"
        d="M682.47 152.843h-2.997l-2.972-1.773.005.025c.032.214-.105.427-.34.591l.03.096s.568.254-.089.949a3.7 3.7 0 0 1-.506.446l-.009.028-.003.011-.006.019-.006.015-.005.015-.008.019-.005.013-.009.021-.005.011-.011.023-.005.01-.012.024-.005.01-.014.024-.005.009-.016.026-.005.007-.018.027-.005.006-.02.028-.004.005-.023.028-.004.004-.009.01q-.069.689-.123 1.305h4.823zm11.665-5.734-1.584 1.316c.658.386 1.152 1.131 1.285 2.074a2.9 2.9 0 0 1-.341 1.84q.107.249.199.505h-.568a2.64 2.64 0 0 1-1.767.843 4.6 4.6 0 0 0 .351 1.189h3.416a4.5 4.5 0 0 0 .665-1.882c.23-1.781-.398-3.905-1.656-5.885m-15.924 2.163 4.603 3.273 4.428-3.778a10.2 10.2 0 0 0-4.008-.814c-1.845 0-3.566.484-5.023 1.319m8.174-8.039 1.939 3.443-2.822-.006-1.104 1.289c1.637.158 3.167.644 4.51 1.385l3.211-2.739c-1.785-1.773-4.107-3.177-6.729-3.714z"/>
  <path fill="#000"
        d="M683.297 145.902c-.786-1.542-1.902-3.681-1.876-3.68l.097-.465.179-.856-.061-.003-1.256.484-1.552 3.471 2.701-.075 1.582 1.125.122-.002zm2.242-4.225c-.33.741-.971 2.934-1.367 4.262l.222.019 1.104-1.29 2.822.007-1.939-3.443-.995-.342-.385-.132z"/>
  <path fill="#fbc196"
        d="m681.52 141.762-.098.465c-.025-.001 1.091 2.138 1.877 3.68q.441.001.875.036c.396-1.328 1.037-3.521 1.367-4.262l-.538-.919-.02-.035-.192.029c-.482.287-1.832.976-3.271 1.006"/>
  <path fill="#d8a482" d="M681.523 141.764c1.439-.03 2.789-.719 3.27-1.006q-.718.102-1.496.149-.812.046-1.595.001z"/>
  <path fill="#000"
        d="M693.692 152.841a9 9 0 0 0-.198-.505 2.7 2.7 0 0 1-.369.505zm-4.825-1.357-.219.182.259-.15zm-4.693-5.542a13 13 0 0 0-.875-.036h-.064l-.122.001c-3.087.03-5.869 1.226-7.847 3.13q.07.055.136.115s.161.105.173.318c.431.154.709.444.665.747-.021.149-.12.275-.265.377.283.092.481.261.523.474l2.972 1.773h2.996l.35-.298-4.604-3.273a10.1 10.1 0 0 1 5.023-1.319c1.433 0 2.79.293 4.008.814l1.663-1.419a11.65 11.65 0 0 0-4.732-1.404"/>
  <path fill="#fbc196"
        d="M674.809 153.154c.183-.134.354-.286.506-.446.658-.696.089-.949.089-.949l-.029-.097c.235-.164.371-.376.339-.591-.03-.225-.233-.403-.526-.498.144-.102.244-.229.265-.378.043-.302-.235-.593-.666-.746-.012-.213-.172-.318-.172-.318a2.8 2.8 0 0 0-1.172-.636l-.018-.004q.203-.036.416-.028c-1.111-.046-2.091.874-2.282 2.228-.212 1.511.8 2.854 2.261 3l.016.001q.17.016.334.01.068.025.132.045c.324-.121.456-.414.507-.593m-.332.636c.396.086.658-.001.831-.142-.173.141-.435.227-.831.142m.89-.207.017-.018.009-.01z"/>
  <path fill="#d8a482"
        d="m675.4 153.562.003-.005.023-.027.005-.005.02-.028.005-.006.018-.027.005-.007.016-.026.005-.009.014-.025.005-.009.012-.024.005-.011.011-.022.005-.012.014-.033.007-.019.011-.03.007-.019.003-.011.009-.028a3.7 3.7 0 0 0 .506-.446c.657-.696.088-.949.088-.949l-.03-.096c.236-.164.372-.377.341-.591l-.005-.025c-.041-.214-.239-.382-.522-.474.145-.102.244-.228.265-.378.043-.302-.235-.592-.666-.746-.011-.213-.172-.318-.172-.318l-.137-.115a2.7 2.7 0 0 0-1.036-.52 1.9 1.9 0 0 0-.805-.03l.018.004c.43.106.831.331 1.172.635 0 0 .161.106.172.318.431.154.709.445.666.747-.021.149-.121.276-.265.378.293.095.496.273.526.498.032.215-.104.427-.339.591l.029.097s.569.253-.089.948a3.7 3.7 0 0 1-.506.447c-.051.179-.184.472-.506.593h-.001l.009.002.073.021.01.003.074.018.004.001c.397.085.659-.001.831-.142l.033-.028.001-.002.029-.028.003-.003z"/>
  <path fill="#58595b"
        d="m705.58 133.117-7.335 6.258-6.128 5.229-3.21 2.739-1.664 1.419-4.427 3.778-.349.298-2.381 2.032h4.7l3.859-3.206.219-.182c-.194-.162-.301-.36-.271-.558.032-.239.247-.428.559-.529-.154-.108-.26-.242-.282-.4-.046-.321.25-.629.706-.792.013-.226.183-.338.183-.338a2.94 2.94 0 0 1 1.243-.673 2 2 0 0 1 .72-.051l.022.003.054.007.057.009.002.001q.368.066.694.258l1.584-1.316 4.562-3.79 8.143-6.765z"/>
  <path fill="#fbc196"
        d="M693.124 152.841q.213-.23.369-.505a2.9 2.9 0 0 0 .341-1.84c-.133-.943-.627-1.688-1.285-2.074a2.1 2.1 0 0 0-.694-.258l-.019.004c-.456.112-.881.35-1.243.673 0 0-.17.112-.183.338-.457.163-.752.47-.706.792.023.157.128.292.282.4-.312.101-.527.29-.559.529-.034.227.111.453.36.627l-.032.102s-.602.269.095 1.006c.161.171.342.332.537.474.054.189.195.501.538.629-.585.181-.929.041-1.13-.165.149.153.377.27.724.246.157-.011.337-.051.546-.129q.143.005.292-.005l.078-.007a2.64 2.64 0 0 0 1.689-.837"/>
  <path fill="#d8a482"
        d="m688.951 151.555-.031.102s-.604.269.094 1.006c.161.171.342.332.537.473l.03.091v.001l.012.032.001.002.014.031.001.003.015.032.002.003.016.032.002.003.018.032.002.004.02.032.002.003.022.032.002.004.024.032.002.002.027.032.002.002.029.032.001.001c.201.206.545.346 1.129.165-.342-.128-.483-.439-.537-.629a4 4 0 0 1-.537-.474c-.697-.737-.095-1.005-.095-1.005l.032-.103c-.25-.174-.394-.399-.36-.627.031-.239.247-.428.559-.528-.154-.109-.259-.243-.282-.401-.046-.321.249-.629.706-.792.013-.226.183-.337.183-.337a2.9 2.9 0 0 1 1.262-.678l-.002-.001-.058-.008-.075-.01a2 2 0 0 0-.72.05c-.456.112-.881.35-1.243.673 0 0-.17.112-.183.338-.457.163-.752.471-.706.792.022.158.128.292.282.4-.312.101-.527.29-.559.529-.03.199.077.396.27.558l.041.032z"/>
  <path fill="#fbc196"
        d="m681.64 140.898.062.003q.784.045 1.594 0a18 18 0 0 0 1.497-.149q.097-.014.193-.03c4.628-.716 7.414-3.193 8.878-6.552q.397-.914.668-1.907a1.8 1.8 0 0 1-1.149-.556c-.575-.616-.626-1.553-.202-2.338l-.023-.074c-.201-.763-.223-1.591-.153-2.376.094-1.031.276-2.014.314-2.977-2.279.162-5.649.28-10.63.28-5.35 0-8.951-.12-11.377-.284a15 15 0 0 0-.018 1.08l.005.159.004.1.008.162.005.098.01.163.006.098.012.161.007.101.013.164.014.172.011.144.013.168.007.098.012.162.006.098.01.159.005.099.007.157.004.101.004.155.001.104.001.152-.002.11-.003.147-.005.118-.007.14-.011.138-.01.121a6 6 0 0 1-.172.95c.597.856.633 1.93.022 2.591a1.6 1.6 0 0 1-.755.457 12.5 12.5 0 0 0 3.249 4.827c1.93 1.773 4.43 2.945 7.239 3.251q.315.035.636.055m5.648-12.859c.022-.549.328-.985.683-.969.356.013.627.468.606 1.016-.02.55-.326.983-.682.97s-.627-.47-.607-1.017m.627-3.37c.96.033 1.334.762 1.245.791-.078.107-.584-.375-1.235-.368-.635.049-1.042.619-1.157.512-.073.006.165-.816 1.147-.935m-7.052 6.131c.269-1.11 1.586-1.613 1.586-1.613s-2.287 2.56.654 2.785c0 0-2.673.619-2.24-1.172m-4.497-6.128c.97.194 1.145 1.03 1.073 1.018-.123.098-.486-.501-1.117-.599-.647-.055-1.189.387-1.257.275-.087-.036.341-.735 1.301-.694m-.757 3.399c-.006-.55.277-.999.632-1.002.357-.004.65.438.657.987.006.548-.278.996-.634 1.002-.355.002-.649-.44-.655-.987m1.965 5.11c-.141-.055.22.045.908.188l-.005-.015q.15.044.427.099l.233.043c1.384.245 4.268.543 6.593.204.834-.14 1.649-.365 2.4-.709-.431 1.48-1.145 2.573-2.111 3.276l-.004.004a5 5 0 0 1-.172.117l-.004.004q-.088.058-.179.112h-.002a4 4 0 0 1-.186.104l-.002.002a4 4 0 0 1-.191.095l-.004.002q-.096.045-.195.086l-.006.004a5 5 0 0 1-.197.076l-.01.004a5 5 0 0 1-.199.067l-.015.004a5 5 0 0 1-.199.059l-.022.006-.197.049-.031.005a6 6 0 0 1-.235.047q-.093.016-.189.03l-.054.005q-.09.013-.181.023l-.07.005-.17.013-.09.004-.157.007-.124.001q-.063.002-.127.001a7 7 0 0 1-.257-.005q-.1-.005-.199-.013l-.064-.006-.13-.011-.073-.009-.117-.015-.074-.011-.111-.017-.072-.013-.11-.021-.067-.015-.113-.026-.059-.015-.167-.045-.136-.041-.025-.007a5 5 0 0 1-.626-.25l-.004-.002-.141-.071-.005-.003-.137-.075h-.001c-2.026-1.144-2.545-3.351-2.545-3.351"/>
  <path fill="#d6907a"
        d="M683.1 131.972c-2.942-.225-.655-2.784-.655-2.784s-1.317.503-1.585 1.613c-.433 1.791 2.24 1.171 2.24 1.171"/>
  <path fill="#751413"
        d="M679.847 136.371a13.8 13.8 0 0 1 6.168-.102c.966-.703 1.679-1.797 2.111-3.277a9.6 9.6 0 0 1-2.401.71 8 8 0 0 0 1.552-.364c-.135.467-.36.918-.722 1.223-1.126.949-5.897.716-7.078.231-.415-.169-.751-.761-.999-1.421-.689-.143-1.05-.245-.909-.189 0 0 .519 2.207 2.545 3.351a5 5 0 0 1-.267-.162m-.708-2.875-.233-.043z"/>
  <path fill="#fff"
        d="M679.481 134.798c1.182.485 5.953.718 7.078-.231.363-.305.588-.756.722-1.223a8 8 0 0 1-1.551.364c-2.325.339-5.209.041-6.593-.204l-.233-.043a5 5 0 0 1-.427-.099l.005.015c.249.66.584 1.252.999 1.421m.371 1.573q.128.084.267.162l.001.001a4 4 0 0 0 .282.147l.005.003q.293.142.625.249l.026.008q.067.022.136.042l.048.013.119.032.059.014a4 4 0 0 0 .179.04l.111.022.071.013.112.018.074.011.117.014.072.009.131.012.064.005a6 6 0 0 0 .456.019l.127-.001.124-.001q.079-.002.156-.007l.09-.004.171-.014.07-.006a5 5 0 0 0 .424-.058l.041-.006q.098-.019.194-.04l.031-.006a6 6 0 0 0 .418-.112l.015-.004a5 5 0 0 0 .406-.149l.006-.002q.099-.04.195-.087l.003-.001a5 5 0 0 0 .191-.096l.003-.001q.093-.05.185-.104l.003-.002q.09-.054.179-.112l.004-.002q.087-.057.172-.119l.004-.003a13.8 13.8 0 0 0-6.167.103"/>
  <path fill="#7e2818"
        d="M675.066 125.368c.069.112.61-.329 1.258-.274.63.098.993.697 1.116.599.072.012-.103-.825-1.073-1.019-.96-.041-1.388.658-1.301.694m11.696.239c.115.107.522-.463 1.157-.512.651-.007 1.157.475 1.235.368.089-.029-.284-.758-1.245-.791-.982.119-1.22.941-1.147.935"/>
  <path fill="#4a0f00"
        d="M688.579 128.087c.021-.548-.25-1.003-.606-1.016-.356-.016-.661.419-.683.968-.02.547.251 1.003.607 1.017.355.013.662-.419.682-.969m-11.68-.032c-.007-.548-.3-.99-.657-.985-.356.002-.639.45-.632 1 .006.547.299.99.655.987.356-.006.64-.454.634-1.002m16.976-4.153c-.119 1.022-.429 2.064-.532 3.114-.065.651-.055 1.333.089 1.98q.111-.14.245-.266c.607-.568 1.406-.774 2.091-.61.219-.869.39-2.013.426-3.508q.011-.477-.007-.964c-.577.088-1.33.175-2.312.254m-23.409 5.062c.32-.689.627-1.904.828-3.951v.009l-.003-.252q-.001-.415.022-.828a41 41 0 0 1-2.99-.294c-.032 2.275.229 3.849.553 4.919.512-.068 1.082.067 1.59.397"/>
  <path fill="#79421b"
        d="M670.461 128.967q.212.136.405.319.217.206.379.439a5.6 5.6 0 0 0 .171-.95l.011-.121.011-.138.007-.141.005-.117.003-.148.002-.109-.001-.152-.001-.104a8 8 0 0 0-.008-.256l-.007-.158-.005-.098-.01-.159-.007-.098-.011-.162-.007-.098-.013-.168-.012-.144-.013-.172-.013-.165-.007-.1-.012-.162-.007-.098-.01-.163-.005-.097-.008-.162-.003-.1-.005-.16v-.009c-.201 2.047-.509 3.262-.829 3.951m22.969.032c-.144-.647-.153-1.329-.089-1.98.104-1.05.414-2.092.532-3.113q-.265.021-.554.041c-.038.963-.22 1.946-.314 2.977-.07.785-.048 1.613.153 2.376l.023.074q.105-.196.249-.375"/>
  <path fill="#fbc196"
        d="M671.268 132.309c.61-.661.575-1.734-.022-2.59a2.9 2.9 0 0 0-.784-.758c-.507-.33-1.078-.465-1.59-.397a1.66 1.66 0 0 0-1.016.512c-.721.78-.541 2.135.401 3.029.67.635 1.546.864 2.255.662.288-.081.548-.233.756-.458m-2.203-.867c-.489-.459-.556-1.183-.15-1.617.213-.229.516-.331.826-.31q.183 1.147.526 2.234c-.387.123-.854.019-1.202-.307"/>
  <path fill="#ce9c80"
        d="M669.74 129.518a1.02 1.02 0 0 0-.826.31c-.406.434-.339 1.158.15 1.617.348.326.815.43 1.202.307a16 16 0 0 1-.526-2.234"/>
  <path fill="#fbc196"
        d="M693.673 128.735a2.6 2.6 0 0 0-.495.641c-.424.785-.373 1.721.202 2.336.306.328.713.513 1.149.558.622.064 1.303-.156 1.835-.655.905-.849 1.035-2.181.292-2.976a1.77 1.77 0 0 0-.892-.514c-.685-.164-1.485.042-2.091.61m2.1.732c.353.378.294 1.008-.132 1.408a1.1 1.1 0 0 1-.94.294q.22-.96.338-1.97a.89.89 0 0 1 .734.268"/>
  <path fill="#ce9c80"
        d="M695.04 129.199a18 18 0 0 1-.337 1.97c.314.059.669-.04.94-.294.426-.4.485-1.03.132-1.408a.9.9 0 0 0-.735-.268"/>
  <path fill="#231f20"
        d="M695.32 115.903h.758q.321.163.62.34v1.031h1.369v-.04l.054.049h-.054v1.193l-.183.178h-1.195v-1.371h-1.369v1.345q.105.015.203.031h1.175v.647q.063.133.125.274c.838-.674 1.691-1.469 2.311-2.347-.775-.569-1.318-.872-1.318-.872-.699-.349-1.745-.704-3.097-1.056q.307.117.601.244zm-27.462 3.064v-.305h1.01q.167-.027.359-.052v-1.324h-1.369v1.371h-1.228l-.149-.145v-1.226h-.245q.124-.124.253-.243v.234h1.369v-1.235a9 9 0 0 1 .238-.136h1.131v-.55a15 15 0 0 1 1.378-.505v1.055h1.369v-1.328h-.416q.21-.054.425-.105v.096h1.368v-.381q.673-.121 1.378-.216v.597h1.369v-.756q.677-.066 1.378-.113v.869h1.369v-.943q.68-.028 1.377-.041v.984h1.369v-.997l.062-.001h.178q.571 0 1.138.009v.989h1.367v-.956q.695.025 1.377.065v.891h1.369v-.729c-4.12-.614-9.15-1.162-14.802-1.577v-.047c-2.318-.17-4.637-.309-6.948-.419a6.1 6.1 0 0 0-.822 2.3c-.396 2.069 1.336 3.98 3.057 5.386.108-.231.207-.413.291-.516m26.089-3.064v-.791a50 50 0 0 0-1.369-.307v1.098z"/>
  <path fill="#231f20"
        d="M674.72 114.578h-1.368v1.328h1.368zm13.735 0h-1.369v1.328h1.369zm2.742 0h-1.369v1.328h1.369zm4.125 1.367h-1.369v1.328h1.369zm-1.377 1.337h-1.369v.618a26 26 0 0 0-1.378-.308v-.31h-1.369v.072l-.563-.081h.563v-1.328h-1.368v1.227a48 48 0 0 0-1.378-.138v-1.089h-1.369v.991a61 61 0 0 0-1.378-.063v-.928h-1.366v.894a62 62 0 0 0-1.138-.008h-.24v-.886h-1.369v.899q-.697.013-1.378.042v-.941h-1.369v1.014q-.7.048-1.377.114v-1.128h-1.369v1.287q-.18.024-.358.05h-1.02v.166q-.71.128-1.378.287v-.453h-1.369v.829q-.702.222-1.339.489c4.75-.621 20.014-.639 25.393-.055a17 17 0 0 0-.714-.25z"/>
  <path fill="#231f20"
        d="M673.353 115.945h-1.369v1.328h1.369zm4.117-1.367h-1.368v1.328h1.368zm15.102 1.367h-1.369v1.328h1.369zm-2.743-1.382v-.287q-.663-.115-1.368-.229v.516zm1.562.004-.188-.036v.036zm-5.689.011h-1.366v1.328h1.366zm-2.739 0h-1.369v1.328h1.369zm-12.36 1.367h-1.369v1.328h1.369zm9.61-1.367h-1.369v1.328h1.369z"/>
  <path fill="#000"
        d="m666.336 122.971.005-.018zm16.351.264c11.52 0 14.421-.63 15.146-.979a33 33 0 0 0-1.009-2.672l-.124-.274v.203a12 12 0 0 0-1.378-.695v-.155h.202l-.202-.031v.026h-.386q-.137-.055-.278-.108c-5.379-.584-20.643-.566-25.393.055l-.038.016v-.011q-.192.026-.359.053h.262q-.679.293-1.272.644v-.339a2.7 2.7 0 0 0-.291.516c-.339.731-.758 1.959-1.012 2.76.735.347 3.763.991 16.132.991m-16.156-.915.022-.07z"/>
  <path fill="#3a3536"
        d="M671.309 123.943c2.425.165 6.027.285 11.377.285 4.981 0 8.351-.118 10.63-.28q.288-.02.554-.041c.982-.08 1.735-.167 2.312-.255 2.021-.308 1.885-.626 1.885-.63l-.002-.013-.001-.005-.006-.026-.011-.041-.002-.005c-.035-.125-.11-.366-.214-.678-.724.35-3.626.979-15.145.979-12.369 0-15.397-.644-16.133-.991l-.003.012-.022.069-.001.002c-.067.212-.121.389-.156.512l-.024.082-.008.03-.002.008-.005.018-.002.008-.003.012-.001.007-.002.009-.001.004-.001.007c0 .004-.133.319 1.998.627.713.103 1.679.205 2.989.294"/>
  <path fill="#000"
        d="M667.859 118.961v.339q.593-.35 1.272-.644h-1.272zm27.663-.305h-.202v.155a12 12 0 0 1 1.378.695v-.85zm-29.035-1.383v-.234q-.13.118-.253.243h.245v-.009z"/>
  <path fill="#000"
        d="M666.486 117.273h-.009v1.235l.15.145h1.228v-1.38zm2.751.004v-1.328h-.009v-.043h-1.131q-.12.067-.238.136v1.244h1.369v-.009z"/>
  <path fill="#000" d="M670.604 117.282v-.009h-1.377v1.343l.037-.015q.638-.268 1.34-.49z"/>
  <path fill="#000" d="M670.602 117.277v.009h1.369v-.009h.009v-1.328h-.009v-.043h-1.369z"/>
  <path fill="#000" d="M671.986 117.273h-.009v.462q.667-.16 1.378-.287v-.175z"/>
  <path fill="#000"
        d="M674.72 115.906h-1.368v1.38h1.02q.177-.027.357-.05v-1.287h-.009zm2.75 0h-1.368v1.171q.677-.066 1.377-.114v-1.014h-.009zm2.743 0h-1.369v.984q.68-.028 1.377-.042v-.899h-.008zm2.75 0h-1.369v.929h.24q.57-.001 1.138.008v-.894h-.009zm2.742 0h-1.367v.043h-.002v.928q.695.024 1.378.063v-.991h-.009zm2.75 0h-1.369v1.132q.699.06 1.378.138v-1.227h-.009zm.811 1.367q.284.039.563.081v-.081z"/>
  <path fill="#000" d="M689.828 115.949v1.337h1.369v-.009h.009v-1.328h-.009v-.043h-1.369z"/>
  <path fill="#000"
        d="M691.204 117.273h-.009v.319q.709.14 1.378.308v-.627zm1.374.013h1.369v-.009h.009v-1.328h-.009v-.043h-1.369z"/>
  <path fill="#000" d="M695.323 117.273h-1.378v1.022q.366.12.714.25.14.053.278.108h.386z"/>
  <path fill="#000" d="M695.32 117.286h1.369v-.009h.009v-1.031q-.3-.177-.62-.34h-.758z"/>
  <path fill="#000"
        d="M696.688 117.282v1.371h1.195q.092-.088.182-.178v-1.202h-1.377zm1.438.002-.056-.05v.05zm-28.89-1.334h1.368v-1.098q-.724.228-1.377.505v.593zm2.75-1.385v-.096a22 22 0 0 0-.424.105h.415v-.009z"/>
  <path fill="#000" d="M671.986 115.942h1.369v-1.38h-1.378v1.38z"/>
  <path fill="#000" d="M674.72 114.575v-.009h.009v-.597q-.706.095-1.377.215v.391z"/>
  <path fill="#000" d="M674.719 114.571v1.371h1.377v-1.38h-1.377zm2.751.002v-.009h.009v-.869q-.7.047-1.377.113v.765z"/>
  <path fill="#000" d="M677.469 114.571v1.371h1.378v-1.38h-1.378z"/>
  <path fill="#000" d="M680.213 114.571v-.009h.008v-.984q-.697.012-1.377.041v.952z"/>
  <path fill="#000"
        d="M680.211 114.571v1.371h1.378v-1.38h-1.378zm2.752.006v-.009h.009v-.989a72 72 0 0 0-1.138-.009h-.24v1.007z"/>
  <path fill="#000" d="M682.961 114.571v1.371h1.378v-1.371h-.003v-.009h-1.375z"/>
  <path fill="#000" d="M684.338 114.574h1.367v-.009h.009v-.892a68 68 0 0 0-1.378-.064v.965z"/>
  <path fill="#000"
        d="M685.703 114.571v1.371h1.378v-1.38h-1.378zm1.383.003h1.369v-.009h.009v-.516q-.671-.108-1.378-.213z"/>
  <path fill="#000" d="M688.453 115.942h1.378v-1.38h-1.378z"/>
  <path fill="#000" d="M689.828 114.577h1.369v-.009h.009v-.036a95 95 0 0 0-1.378-.251z"/>
  <path fill="#000"
        d="M691.195 114.562v1.38h1.378v-1.141q-.568-.12-1.18-.239zm2.75 1.381h1.378v-.397a14 14 0 0 0-.602-.244 42 42 0 0 0-.776-.193z"/>
  <path fill="#414042"
        d="M626.172 141.542c-.291-4.642-4.271-8.401-8.882-8.401h-8.357c-4.614 0-8.592 3.759-8.881 8.401l-.24 11.937h26.598z"/>
  <path fill="url(#N)" d="M631.397 112.062H589.07v35.288h42.327z"/>
  <path fill="url(#O)" d="M699.827 115.039h-57.405v39.352h57.405z"/>
  <path fill="url(#P)" d="M671.296 111.656h-61.327v42.738h61.327z"/>
  <path fill="#f7941e" fill-rule="evenodd"
        d="m667.047 106.622-.003-.008h.003l-3.29-12.528h-.008c-.151-.848-1.065-1.5-2.171-1.5H634.31c-1.111 0-2.028.659-2.173 1.513l-3.285 12.515z"
        clip-rule="evenodd"/>
  <path fill="#000" fill-rule="evenodd"
        d="M662.831 94.727h-.008c-.143-.764-1.003-1.352-2.044-1.352h-25.666c-1.046 0-1.909.594-2.046 1.364 0 0-2.434 9.43-2.431 9.43-.143.53.044 1.317 1.069 1.317h32.333c1.04 0 1.399-.733 1.276-1.352zm-32.034 13.407-1.945-1.517 38.195.008s-2.288 1.496-2.48 1.485c-5.279-.299-11.673-.418-16.97-.455-5.896-.042-10.93.116-16.8.479"
        clip-rule="evenodd"/>
  <path fill="#f7941e"
        d="m641.909 96.457-.001 1.193h-1.345l-.006 5.592-1.388-.002.006-5.592-1.347-.002.003-1.193zm2.364 5.368-.554 1.421-1.438-.001 2.77-6.784 1.202.001 2.729 6.788-1.507-.001-.556-1.422zm2.187-1.257-.838-2.186-.869 2.185zm6.318.296-1.444 2.384-1.568-.001 2.287-3.424-2.223-3.362 1.575.001 1.376 2.36 1.377-2.357 1.57.001-2.215 3.36 2.272 3.427-1.575-.002zm4.113 2.392.006-6.787h1.384l-.007 6.787z"/>
  <path fill="#000"
        d="M703.831 122.947c-1.593-4.103-6.013-6.56-6.013-6.56-3.043-1.522-12.68-3.158-25.537-4.102v-.047c-7.377-.54-14.769-.765-21.841-.753-4.405-.008-8.934.076-13.505.271v.039c-16.946.754-30.218 2.755-33.891 4.592 0 0-4.42 2.457-6.013 6.56 0 0-14.615 32.407-4.604 31.951h116.008c10.012.456-4.604-31.951-4.604-31.951m2.289 29.92H594.743c-9.612.412 4.42-28.886 4.42-28.886 1.53-3.709 5.773-5.93 5.773-5.93 3.526-1.661 16.268-3.47 32.537-4.152v-.035c4.39-.176 8.738-.252 12.966-.245 6.79-.01 13.888.193 20.97.681v.042c12.344.854 21.595 2.333 24.518 3.709 0 0 4.243 2.221 5.772 5.93 0 0 14.033 29.298 4.421 28.886"/>
  <path fill="#bebebf"
        d="m596.89 153.973-.07-.628 22.394-2.478.035.004 21.128 2.474-.074.628-21.091-2.47zm61.5 0-.07-.628 22.394-2.478.035.004 21.128 2.474-.074.628-21.091-2.47z"/>
</svg>
