<svg xmlns="http://www.w3.org/2000/svg" width="727" height="376" fill="none" viewBox="0 0 727 376">
  <path fill="#754c29"
        d="M65.97 38.656s14.226 28.722 3.558 38.96-18.02 11.392-24.073 11.392c-6.055 0-20.182-9.085-20.47-14.564-.289-5.48-2.215-18.797 6.028-35.787z"/>
  <path fill="#a7a9ac" d="M16.5 243.666s35.98 1.527 68.581-3.053l-10.576-43.191-52.99 1.963z"/>
  <path fill="#fff"
        d="M20.864 93.594S-.288 142.093.003 157.8c0 0 9.74 6.399 13.81 5.235l17.01-53.516s6.541-17.305-9.959-15.924"/>
  <path fill="#e6e6e6"
        d="M26.511 94.023a66.2 66.2 0 0 0-8.282 18.687c-1.99 7.445-2.033 14.818-1.973 22.467.048 6.114.236 12.221.581 18.318l13.979-43.981s4.82-12.779-4.305-15.49"/>
  <path fill="#fbbe7d"
        d="M40.48 71.7s2.915 4.917-2.759 13.074-.294 24.301 5.811 24.155c6.106-.146 21.411-14.408 15.793-24.001-5.616-9.592-3-13.518-3-13.518s-7.85-8.144-15.846.29"/>
  <path fill="#e58052"
        d="M39.625 81.545c.346.553.68 1.122 1.037 1.722 2.496 4.188 7.086 4.162 11.19 2.66 2.214-.81 4.274-1.98 6.225-3.333-3.912-7.888-1.746-11.184-1.746-11.184s-7.85-8.144-15.846.29c0 0 2.14 3.642-.86 9.845"/>
  <path fill="#4ec48f"
        d="M16.922 181.875s-2.593 33.837 7.165 84.236c.609 3.146 4.1 66.602 2.032 78.262 6.58 2.168 12.65 2.101 18.26 0 0 0 7.912-48.891.912-79.73l-2.69-35.452-3.062-23.215s10.926 55.282 15.186 64.685c4.261 9.401 8.688 74.405 8.688 74.405 6.208 2.041 12.008 1.916 17.483.059 0 0 4.565-42.497-6.086-84.242 0 0-5.723-63.28-8.766-77.947z"/>
  <path fill="#1a8856"
        d="M43.32 252.757c-1.243-13.059-7.03-66.411-7.577-70.476l-18.822-.406s-2.112 27.601 4.666 70.07c1.194.16 16.528 1.63 21.733.812m10.78-39.311c1.045 11.814 1.955 24.225 5.997 35.433.468 1.299 1.434 3.189 1.434 3.189s10.467-1.201 12.32-2.618c-1.659-17.613-5.44-55.12-7.805-66.513l-13.366-.289c.123 10.28.513 20.554 1.42 30.798"/>
  <path fill="#1a8856"
        d="M67.5 198.118c.267-.031.53-.076.794-.12-.817-6.515-1.593-11.917-2.246-15.062l-49.122-1.061s-.37 4.896-.3 13.687c12.666 4.406 47.394 2.961 50.874 2.556"/>
  <path fill="#4ec48f"
        d="M65.548 147.313c.666-4.785 13.011-51.814 13.011-51.814S59.62 85.19 59.33 84.934c-2.202 11.677-16.351 19.417-16.418 19.488-3.95-5.43-5.906-13.046-5.187-19.64.789-.407-14.071 7.234-15.85 8.156-1.962 1.02-.218.27.109 8.021.213 5.073-3.181 11.227-3.317 18.618s1.88 17.071 1.88 17.074c-2.193 16.879-5.429 36.562-5.429 55.467 20.296 3.299 37.643 3.437 56.766.872 0-25.013-6.999-40.893-6.335-45.677"/>
  <path fill="#1a8856"
        d="M37.016 194.523c-.337-4.514-.683-9.022-1.2-13.524-1.323-11.503-1.727-23.073-1.83-34.645-.105-11.828 2.997-57.061 3.297-61.346-2.444 1.257-13.863 7.129-15.409 7.932-1.962 1.018-.218.268.11 8.02.212 5.073-3.183 11.227-3.318 18.618s1.88 17.071 1.88 17.074c-2.193 16.879-5.429 36.562-5.429 55.467 7.632 1.241 14.848 2.033 21.9 2.404"/>
  <path fill="#fab57a" d="m39.492 83.872.436-.224z"/>
  <path fill="#e78052"
        d="M32.137 63.814c1.873-.557 2.675-3.419 1.792-6.391s-3.117-4.932-4.99-4.375c-1.872.556-2.674 3.417-1.791 6.39s3.117 4.932 4.99 4.375m30.312-.258c1.908.425 4-1.685 4.673-4.712.674-3.027-.326-5.825-2.232-6.25s-4 1.685-4.673 4.713.326 5.825 2.233 6.249"/>
  <path fill="#fbbe7d"
        d="M46.854 34.697c-15.298.164-16.066 14.532-16.103 16.265q-.003.155.008.31c.11 1.598 1.16 16.37 2.664 19.178 1.246 2.328 10.359 9.847 14.016 9.847s12.416-7.79 13.612-10.144c1.442-2.84 2.176-17.63 2.252-19.23.005-.106.006-.207.001-.312-.074-1.73-1.152-16.079-16.45-15.914"/>
  <path fill="#e78052"
        d="M60.711 41.83h.002l-.02-.032q-.385-.65-.85-1.28c-.086-.117-.186-.227-.276-.342-.23-.294-.469-.583-.728-.864-.146-.158-.304-.31-.459-.463a14 14 0 0 0-1.302-1.132c-.262-.2-.542-.387-.827-.572-.214-.139-.423-.281-.65-.411a14 14 0 0 0-1.127-.56c-2.04-.93-4.524-1.51-7.62-1.477-15.298.164-16.066 14.532-16.103 16.265q-.003.155.008.31c.014.207.045.64.09 1.233 3.655-2.124 8.866-4.652 12.458-6.054 4.56-1.78 8.83-2.58 13.344-3.616a54.2 54.2 0 0 0 6.516 10.613c.073-1.258.12-2.191.136-2.526q.008-.156.001-.31c-.037-.875-.338-4.967-2.593-8.781"/>
  <path fill="#3e2511"
        d="M53.912 55.523c-1.072-.109-2 1.047-2.072 2.581s.739 2.865 1.81 2.974c1.073.108 2-1.048 2.072-2.582s-.739-2.866-1.81-2.973m-14.007.148c-1.073-.108-2.001 1.047-2.072 2.582-.073 1.533.738 2.864 1.81 2.972s2-1.047 2.072-2.58c.071-1.534-.739-2.866-1.81-2.974"/>
  <path fill="#e78052"
        d="M46.775 64.958c-.258.43-.243.354-.067.678.122.224.413.435.585.617.38.4-1.27.313-1.562.005-.243-.256-.83-.676-.95-1.02-.145-.41.148-.568.439-.818a5.1 5.1 0 0 0 1.642-2.664c.106-.418.794 1.739-.087 3.202"/>
  <path fill="#754c29"
        d="M45.427 27.508c15.39-4.226 16.786 8.092 16.786 8.092s2.518.926 3.617 2.78c1.098 1.852.574 11.726-2.445 15.393-2.309-3.273-5.768-12.892-5.768-12.892s-9.693-.296-26.886 12.443c-3.593-11.36.762-21.991 14.695-25.816"/>
  <path fill="#191819"
        d="M49.953 50.098q.15-.02.298-.057c5.961-1.292 8.992 1.853 8.912 1.71.283.241.68.424.913.407.231-.017.22-.244-.054-.507-.007.147-2.655-3.88-9.78-2.567-.487.114-.649 1.069-.29 1.014m-6.22 1.437a2 2 0 0 1-.268-.058c-5.324-1.372-8.603 1.442-8.503 1.344-.295.223-.703.384-.934.353-.23-.031-.199-.258.094-.504-.028.097 3.045-3.603 9.479-2.112.434.119.453 1.031.132.977"/>
  <path fill="#e78052"
        d="M53.615 69.469c-4.386.719-8.626.698-12.732 0 0 0 2.663 1.468 6.332 1.468s6.4-1.468 6.4-1.468"/>
  <path fill="#fff"
        d="M59.328 84.93s-7.722 31.563-9.03 76.935c-1.309 45.372 7.414 86.382 7.414 86.382 6.773.058 23.135-3.206 27.366-7.634 0 0-9.485-36.429-15.59-98.38l9.061-46.795zm-21.603-.149s-9.667 48.949-6.615 83.196c3.053 34.248 7.633 80.056 7.633 80.056s-17.446.654-22.243-4.362c0 0-9.567-54.146 4.048-107.02 0 0-2.794-6.357-1.922-19.663s3.98-4.472 2.235-23.395c0 0 7.942-5.137 16.864-8.812"/>
  <path fill="#fff"
        d="M78.551 95.438c9.001 8.993 11.997 34.763 14.575 55.108.654 8.641-15.495 28.77-25.672 42.73l-7.704-11.633 18.955-31.281-9.176-29.756c-.396-14.428 4.698-19.116 9.022-25.168M0 157.793s6.687 26.466 15.991 36.355l7.85-9.016-11.048-25.304S6.396 150.521 0 157.793"/>
  <path fill="#e6e6e6"
        d="m27.675 183.291-2.6-1.986-11.247 14.737 2.6 1.985zm40.572 14.089 2.6-1.985L59.6 180.656l-2.6 1.985zM59.332 84.935c.062-.179 7.604 4.114 7.604 4.114l-2.388 18.578-5.233.873 5.233 4.653-13.056 26.657s3.641-42.81 7.84-54.875m-28.441 54.903s3.999-46.71 6.834-55.057l-5.743 2.632s-4.07 11.343-4.58 17.741l3.926 1.964-4.289 2.181s1.744 21.45 3.852 30.539"/>
  <path fill="#6d6e71"
        d="M37.636 85.041c-8.17 13.17-8.933 28.87-8.864 43.949.003.551-1.063.346-1.065-.136-.07-15.232.736-31.029 8.987-44.33.25-.403 1.235.043.942.517"/>
  <path fill="#a7a9ac" d="M28.362 133.835a4.378 4.378 0 1 0 0-8.756 4.378 4.378 0 0 0 0 8.756"/>
  <path fill="#6d6e71"
        d="M28.357 130.815a1.356 1.356 0 1 0 0-2.712 1.356 1.356 0 0 0 0 2.712m33.475-27.53c.36.011.717.029 1.077.031.227-6.252-.363-12.502-2.297-18.655-.142-.453-1.207-.265-1.04.267 1.901 6.05 2.482 12.2 2.26 18.357"/>
  <path fill="#d1d3d4"
        d="m64.653 136.768-.296-.82 1.964-.711c2.074-3.253 3.31-8.601 3.31-14.347 0-9.382-3.396-17.307-7.415-17.307s-7.414 7.925-7.414 17.307c0 5.778 1.245 11.138 3.335 14.388l2.22.547-.208.849-2.552-.631-.093-.141c-2.239-3.373-3.574-8.985-3.574-15.012 0-10.193 3.64-18.179 8.286-18.179s8.286 7.986 8.286 18.179c0 5.981-1.32 11.57-3.53 14.946l-.08.122z"/>
  <path fill="#6d6e71"
        d="M55.82 112.33c1.299-5.176 3.707-8.747 6.402-8.747 2.676 0 5.068 3.523 6.373 8.641l.939-.012c-1.384-5.701-4.11-9.501-7.312-9.501-3.228 0-5.966 3.857-7.34 9.626z"/>
  <path fill="#231f20"
        d="M60.692 137.236a.871.871 0 1 0 .001-1.743.871.871 0 0 0 0 1.743m3.218.056a.872.872 0 1 0 0-1.744.872.872 0 0 0 0 1.744"/>
  <path fill="#e78052" d="M95.469 152.633c4.067 22.106 38.53 43.682 38.53 43.682l6.46-12.566-27.456-29.978z"/>
  <path fill="#e78052"
        d="M127.488 92.18s-32.02 39.208-32.02 60.453c0 0 5.965 9.561 13.522 4.059 7.557-5.5 21.451-28.705 21.451-28.705s3.958-12.614-2.953-35.807"/>
  <path fill="#000"
        d="M127.486 173.567c13.847 0 25.073-11.229 25.073-25.081s-11.226-25.08-25.073-25.08-25.072 11.229-25.072 25.08c0 13.852 11.225 25.081 25.072 25.081"/>
  <path fill="#c8492c"
        d="M102.582 146.111c-.042.972-.086 1.977.039 2.914.143 1.353.829 2.471 1.555 3.656.208.339.423.69.62 1.042.962 1.815 1.432 3.449 1.722 5.101q.252.09.529.171c-.804-3.303-1.148-6.318-1.148-9.829 0-2.111.379-7.653 3.882-13.513 3.195-5.345 8.02-9.39 14.361-12.051-11.039 1.452-19.842 10.108-21.519 21.079 0 .472-.021.959-.041 1.43"/>
  <path fill="#c8492c"
        d="M126.526 123.401c-14.728 5.191-19.956 17.117-19.956 25.761 0 3.577.361 6.632 1.214 10.023.687.159 1.476.287 2.379.377a7.3 7.3 0 0 1-.122-2.444c.4-3.128 1.861-6.423 4.344-9.796 2.256-3.065 5.318-6.1 8.856-8.777 3.45-2.611 7.245-4.806 10.976-6.347 3.546-1.466 6.95-2.298 9.91-2.433a25 25 0 0 0-17.601-6.364"/>
  <path fill="#c8492c"
        d="m117.961 159.532.096-.007c8.491-.646 30.845-6.966 34.017-15.769a25.1 25.1 0 0 0-7.241-13.334c-6.072.048-14.173 3.357-21.185 8.663-7.364 5.572-12.201 12.346-12.938 18.121-.101.791-.031 1.61.168 2.42 1.877.138 4.203.126 7.083-.094m-14.363-6.501c-.411-.67-.829-1.353-1.145-2.086a25 25 0 0 0 1.268 5.78c.325.649.951 1.282 2.057 1.796a15.6 15.6 0 0 0-1.576-4.478 31 31 0 0 0-.604-1.012"/>
  <path fill="#c8492c"
        d="M152.274 144.969c-2.36 4.559-9.195 8.068-14.729 10.267-7.445 2.959-15.296 4.645-19.439 4.961l-.096.007c-.829.063-2.51.192-4.448.192-.798 0-1.64-.023-2.484-.08.709 2.111 2.233 4.101 3.838 5.35 5.139 4.133 13.319 5.399 18.761 5.229l.382-.015c2.297-.089 4.671-.182 6.693-1.128 7.065-4.447 11.77-12.315 11.77-21.264 0-1.194-.086-2.368-.248-3.519m-46.358 14.337a7 7 0 0 1-1.494-.798 25 25 0 0 0 1.816 3.413 52 52 0 0 0-.322-2.615"/>
  <path fill="#c8492c"
        d="M138.034 171.243c-1.326.213-2.681.265-3.943.314l-.384.015q-.513.017-1.035.017c-2.986 0-6.149-.392-9.02-1.123-3.677-.935-6.84-2.411-9.148-4.268-1.723-1.34-3.438-3.537-4.158-5.937a27 27 0 0 1-.501-.052 20 20 0 0 1-1.868-.295q.233.87.509 1.779c.952 3.291 4.817 7.722 8.171 9.469a24.9 24.9 0 0 0 10.775 2.435 25 25 0 0 0 10.602-2.354"/>
  <path fill="#c8492c"
        d="M111.597 167.954c-1.769-1.928-3.207-4.157-3.761-6.072a55 55 0 0 1-.606-2.146 11 11 0 0 1-.597-.174c.119.814.206 1.639.296 2.498q.052.513.112 1.051a25.4 25.4 0 0 0 4.556 4.843"/>
  <path fill="#ccc"
        d="m183.025 171.452-48.832-1.054s-2.577 47.515 7.123 97.617c.3 1.552 1.308 17.895 1.994 35.373.095 2.415.184 4.853.263 7.275.074 2.226-2.206 9.165-2.149 11.34.12 4.635 2.541 4.362 2.554 8.363.007 2.224-4.002 4.982-4.038 6.879-.078 4.12 3.73 6.687 3.395 8.569 5.836 1.822 11.9 1.701 18.152 0 0 0 3.658-2.235 4.208-5.601.427-2.613-2.309-5.792-1.839-9.873.235-2.049 2.45-3.987 2.648-6.314.23-2.686-1.566-5.804-1.432-8.771.523-11.62.123-25.03-2.677-37.369l-2.507-44.37h2.021c3.391 15.77 7.736 39.976 7.707 45.495-.04 7.39-.608 20.776.889 31.481.346 2.479 2.365 2.256 2.747 4.697.422 2.691-2.651 6.251-2.208 8.792.531 3.044 4.58 5.026 5.105 7.683.64 3.242-2.433 7.048-1.869 9.403 1.15 4.802 1.618 3.956 6.129 5.436 6.329 1.827 12.128 1.864 17.38.058 0 0 3.419-2.435 3.1-6.753-.21-2.842-4.08-6.507-4.401-10.805-.22-2.952-.19-6.459-.453-9.968-.218-2.887-2.725-13.529-2.967-16.726-3.658-48.277-7.945-120.745-10.043-130.857"/>
  <path fill="#c1272d"
        d="m195.564 347.223-.938-1.32.468.66-.47-.658c.124-.09 3.045-2.244 2.764-6.036-.081-1.09-.884-2.484-1.736-3.96-1.159-2.011-2.474-4.291-2.665-6.844-.107-1.426-.154-2.958-.205-4.58-.055-1.755-.112-3.571-.248-5.388-.103-1.358-.768-4.683-1.41-7.898-.702-3.511-1.429-7.141-1.557-8.828-1.208-15.947-2.489-34.598-3.729-52.637-2.522-36.717-4.905-71.398-6.299-78.116l1.584-.329c1.416 6.826 3.802 41.56 6.329 78.334 1.24 18.036 2.521 36.684 3.729 52.626.12 1.588.837 5.169 1.529 8.632.683 3.413 1.328 6.638 1.437 8.094.139 1.853.197 3.687.252 5.459.05 1.604.097 3.119.202 4.51.163 2.186 1.38 4.295 2.453 6.156.946 1.64 1.839 3.19 1.948 4.649.349 4.721-3.284 7.363-3.438 7.474m-49.278-1.271-1.592-.282c.086-.489-.49-1.357-1.1-2.278-1.05-1.586-2.357-3.56-2.308-6.166.023-1.189 1.024-2.386 2.083-3.653.918-1.097 1.957-2.339 1.954-3.208-.005-1.718-.497-2.515-1.065-3.438-.666-1.082-1.422-2.307-1.488-4.907-.031-1.18.509-3.412 1.083-5.776.515-2.128 1.1-4.54 1.066-5.557-.08-2.422-.168-4.857-.263-7.271-.68-17.326-1.685-33.725-1.98-35.25-9.607-49.626-7.163-97.339-7.137-97.814l1.616.087c-.026.474-2.459 47.996 7.11 97.419.34 1.756 1.354 18.821 2.008 35.495.095 2.417.184 4.856.263 7.281.041 1.236-.519 3.546-1.111 5.993-.523 2.156-1.063 4.386-1.039 5.352.057 2.163.636 3.103 1.249 4.099.639 1.036 1.299 2.109 1.306 4.282.005 1.46-1.183 2.879-2.332 4.252-.794.95-1.694 2.026-1.706 2.645-.04 2.102 1.065 3.77 2.04 5.241.829 1.25 1.543 2.329 1.343 3.454"/>
  <path fill="url(#b)" d="M185.799 170.227h-52.221v50.165h52.221z"/>
  <path fill="#fff"
        d="M127.487 92.183c1.117-1.033 26.816-12.92 26.816-12.92l3.441 8.038 16.733-9.293s25.72 14.806 27.089 16.175c.872.872-6.002 19.309-11.028 32.582-2.865 7.567-2.864 58.19-2.864 58.19-15.136 23.411-60.357 47.622-57.982 14.928 0 0-3.322-106.666-2.205-107.7"/>
  <path fill="#cbdadf"
        d="M194.41 115.2a.25.25 0 0 1-.103.059c-5.23 10.296-10.429 21.115-10.605 32.869-.039 2.569-.147 5.222.13 7.777.221 2.043.627 4.068.662 6.128.029 1.773-.236 3.512-1.336 4.949-1.043 1.364-2.779 2.388-3.407 4.031-1.323 3.46 4.971 4.997 3.133 8.405-.702 1.303-2.265 1.955-3.406 2.791-1.825 1.339-1.979 3.758-2.663 5.771-.751 2.208-2.2 4.19-3.487 6.114-1.326 1.982-2.74 3.942-4.283 5.761-2.78 3.277-6.055 6.107-9.527 8.625-2.629 1.906-5.369 3.635-8.174 5.258 13.066-4.699 28.613-16.844 36.334-28.785 0 0-.001-50.625 2.864-58.191a1514 1514 0 0 0 4.63-12.364 9 9 0 0 1-.762.802"/>
  <path fill="#eb9756"
        d="M154.201 79.309c1.13-4.653 1.459-8.817 1.459-8.817l18.095-5.14s.009 6.407.834 12.717c.549.317 4.472 2.579 9.199 5.336 0 0-3.805 3.059-10.117 5.244q-1.12.42-2.352.722c-2.98.829-6.359 1.427-10.135 1.427-13.548 0-14.872-7.814-14.872-7.814 4.297-2.011 7.616-3.548 7.889-3.675"/>
  <path fill="#e78052"
        d="M154.414 78.379a64 64 0 0 0 1.249-7.887l18.095-5.14s.016 5.85.736 11.874c-6.277 2.81-8.422 7.19-20.08 1.153"/>
  <path fill="#eb9756"
        d="m179.315 195.57 5.933-7.194 8.388-35.793-6.099-24.55c1.573-11.982 5.503-25.542 14.03-33.845 15.128 7.027 9.899 64.579 9.032 69.369-1.936 10.697-17.08 34.532-17.08 34.532l-8.63 14.927c-3.296-2.843-5.892-10.777-5.574-17.446M150.142 54.106c0 3.148.145 5.701-1.838 5.701-1.982 0-5.343-2.552-5.343-5.7s.976-5.7 2.959-5.7 4.222 2.551 4.222 5.7m33.627-.001c0 3.148-3.361 5.701-5.343 5.701-1.983 0-1.838-2.552-1.838-5.7s2.238-5.7 4.222-5.7c1.982 0 2.959 2.551 2.959 5.7"/>
  <path fill="#eb9756"
        d="M163.368 30.203c-15.529 0-16.465 14.576-16.522 16.333q-.006.159.004.316c.094 1.623 1 16.627 2.495 19.493 1.239 2.378 9.201 10.15 13.934 10.15 4.734 0 12.872-7.772 14.112-10.15 1.495-2.866 2.401-17.87 2.495-19.493a3 3 0 0 0 .005-.316c-.057-1.758-.994-16.333-16.523-16.333"/>
  <path fill="#e78052"
        d="M146.942 48.33c1.412-.948 2.666-1.934 3.884-3.198 1.199-1.244 2.672-2.11 4.265-2.757 3.452-1.404 7.4-2.283 11.124-1.775 3.993.544 7.212 2.824 10.483 5.008 1.065.712 2.073 1.503 3.129 2.221.029-.459.049-.801.059-.977a3 3 0 0 0 .005-.316c-.057-1.757-.994-16.333-16.523-16.333s-16.465 14.576-16.522 16.333q-.006.159.004.316c.013.234.045.757.092 1.477"/>
  <path fill="#3c2415"
        d="M156.093 49.05c1.087-.148 2.042 1.272 2.13 3.171.09 1.9-.717 3.561-1.804 3.71s-2.041-1.271-2.131-3.17c-.091-1.902.719-3.562 1.805-3.711m14.219 0c1.086-.148 2.041 1.272 2.131 3.171.09 1.9-.718 3.561-1.806 3.71-1.087.149-2.041-1.271-2.13-3.17-.091-1.902.718-3.562 1.805-3.711m6.042-5.016c-.263-.12-4.559-2.588-10.33-1.076-.399.103-.804 2.231-.491 2.258q.137.011.281-.022c5.357-1.31 9.637.11 9.729.154.442.161 1-.003 1.228-.368.228-.364.033-.787-.417-.946M150.38 45.23c.263-.122 4.559-2.59 10.33-1.077.398.103.804 2.232.49 2.259a.9.9 0 0 1-.28-.023c-5.356-1.309-9.638.11-9.73.154-.442.162-1-.002-1.227-.367s-.033-.788.417-.947"/>
  <path fill="#e88252"
        d="M162.844 58.241c-.27.6-.255.492-.06.959.134.323.447.635.635.9.412.586-1.353.392-1.671-.057-.263-.374-.897-.995-1.032-1.489-.162-.588.148-.8.455-1.143.879-.982 1.442-2.228 1.712-3.713.107-.588.878 2.502-.039 4.543"/>
  <path fill="#e78052"
        d="M169.691 64.36c-4.558.747-8.963.724-13.23 0 0 0 2.767 1.525 6.58 1.525s6.65-1.526 6.65-1.526"/>
  <path fill="#6592bf"
        d="M146.898 48.45c9.116-12.437 23.896-12.437 33.013 0V38.039c-9.117-12.437-23.897-12.437-33.013 0z"/>
  <path fill="#528bba"
        d="M149.53 38.12c.658-.408 1.202-.721 1.998-.797 1.02-.097 2.086.2 2.951-.51.561-.459.865-1.192 1.468-1.61 1.032-.712 2.348.11 3.471.164 1.013.049 2.016-.19 3.022-.15.675.027 1.2.335 1.807.593 1.811.77 3.935.672 5.824.255.746-.165 1.281-.393 2.016-.131.89.316 1.541.831 2.542.948.825.097 1.622.081 2.355.52.728.436 1.239 1.122 1.99 1.537.304.167.618.3.937.419v-1.32c-9.117-12.436-23.897-12.436-33.013 0v.728c.909-.036 1.742-.095 2.632-.646"/>
  <path fill="#3c2415"
        d="M182.526 29.77a5.84 5.84 0 0 0-5.821-5.42c-.043 0-.085.005-.127.005a4.313 4.313 0 0 0-4.279-3.783c-.953 0-1.83.313-2.544.837a4.944 4.944 0 0 0-8.553-1.734c-.9-.567-1.963-.9-3.106-.9a5.84 5.84 0 0 0-5.15 3.083 4.405 4.405 0 0 0-9.228 8.607 4.22 4.22 0 0 0-1.624 3.327 4.226 4.226 0 0 0 7.924 2.04 4.405 4.405 0 0 0 5.653-3.328 5.815 5.815 0 0 0 7.052-.169 4.94 4.94 0 0 0 4.452 2.806 4.94 4.94 0 0 0 4.256-2.439 5.84 5.84 0 0 0 5.865 3.308 4.4 4.4 0 0 0 3.902 2.368 4.405 4.405 0 0 0 4.405-4.406 4.405 4.405 0 0 0-3.077-4.203"/>
  <path fill="#66371a"
        d="M144.468 30.94c.685-.527 1.201-1.032 1.347-1.93.048-.3.011-.607.095-.903.152-.533.544-1.02 1.006-1.32.85-.553 1.917-.412 2.723-1.054.699-.557.776-1.425 1.374-2.042.538-.555 1.205-.572 1.916-.717 1.209-.246 1.697-.973 2.636-1.6 1.4-.933 2.901-.205 4.327.233 1.339.412 2.35.165 3.595-.393.647-.29 1.286-.567 2.008-.585 1.885-.045 2.282 1.392 3.648 2.27 1.428.916 3.316-1.142 4.808-1.335a4.4 4.4 0 0 1 1.103.003 4.285 4.285 0 0 0-5.291-.158 4.944 4.944 0 0 0-8.553-1.734c-.9-.567-1.963-.9-3.106-.9a5.84 5.84 0 0 0-5.15 3.083 4.405 4.405 0 0 0-9.228 8.607 4.22 4.22 0 0 0-1.624 3.327c0 .102.009.203.016.303.49-1.232 1.292-2.341 2.35-3.155"/>
  <path fill="#3c2415"
        d="M157.105 65.651a26.15 26.15 0 0 1 12.151 0c.391.092.78-.198.868-.658s-.175-.928-.587-1.026a27.4 27.4 0 0 0-12.713 0c-.412.098-.676.565-.588 1.026.088.46.478.75.869.658m-.621 7.685c0 1.988 3.094 5.597 6.911 5.597s6.91-3.61 6.91-5.597c-4.531 2.292-9.14 2.218-13.821 0"/>
  <path fill="#754c29"
        d="M278.098 38.045a65.4 65.4 0 0 0 7.398 18.929c1.161 1.986 2.456 3.99 2.772 6.268.689 4.985-3.465 9.742-2.618 14.703.564 3.301 3.203 5.811 4.689 8.812 1.834 3.707 1.846 8.017 1.819 12.153-.028 4.316-.131 8.899-2.478 12.521-1.265 1.952-3.09 3.464-4.919 4.901-4.077 3.202-8.358 6.212-13.101 8.306-4.742 2.093-9.998 3.239-15.142 2.59-5.515-.695-10.737-3.504-14.358-7.723-1.955-2.279-3.492-4.979-5.906-6.765-1.267-.939-2.8-1.654-3.58-3.025-1.181-2.074-.128-4.717 1.297-6.632 2.299-3.09 5.514-5.423 7.714-8.585 4.794-6.887 3.874-16.039 4.729-24.387 1.114-10.88 5.664-21.385 12.839-29.64 1.696-1.952 3.706-3.874 6.252-4.33z"/>
  <path fill="#528bba" d="M230.727 94.375c-9.66 6.944-10.539 33.087-14.657 52.149l10.683 3.363 4.649-17.985z"/>
  <path fill="#fab57a"
        d="M277.478 176.703c9.42 27.933.204 109.724.204 109.724 6.916 31.068-.273 59.546 5.765 79.683 0 0-12.693 11.556-37.677 8.178-3.634-.492 24.453-16.899 24.453-16.899s-13.598-131.125-20.861-141.386c-1.077-1.52-22.891 60.199-22.891 60.199 15.854 33.238 8.473 35.204 20.168 73.368 0 0-25.717 26.572-31.642 18.778.659-1.461 13.665-16.541 17.985-22.386 1.886-2.552-21.479-58.204-21.349-69.409s13.273-72.11 13.273-72.11l5.281-27.74z"/>
  <path fill="#e68052"
        d="M249.362 216.003c3.003 4.242 7.089 29.146 10.848 56.901 1.611.087 3.218.289 4.825.429 3.027.262 6.071.136 9.1-.04a161 161 0 0 0 4.864-.362c2.152-24.422 5.518-75.357-1.52-96.228h-47.292l-5.281 27.739s-9.279 43-12.32 63.385c5.295.975 10.579 2.063 15.921 2.645 5.443-15.267 19.981-55.703 20.855-54.469"/>
  <path fill="#fff"
        d="M279.335 269.014c2.132-25.6 4.826-72.499-1.856-92.311h-47.291l-5.282 27.74s-8.569 39.709-11.937 60.899c5.996 3.769 60.197 6.724 66.366 3.672"/>
  <path fill="#fab57a"
        d="M290.746 97.085s-16.995-9.506-20.362-11.186c-4.439-3.905.201-17.813.201-17.813l-16.138.573-4.606 15.878-2.017 1.037c-4.571 2.35-15.462 7.952-17.097 8.8 0 0-.23.284.115 8.492.227 5.372-3.367 18.215-3.511 26.041-.144 7.825 5.685 11.747 5.685 11.747-.855 8.942-1.076 10.257-2.832 36.05 7.647 4.991 35.639 4.396 47.291 0-3.907-22.008-3.904-23.08-4.2-24.759-1.019-5.778 17.471-54.86 17.471-54.86"/>
  <path fill="#edeaea"
        d="M242.688 88.215s4.1 7.42 14.453 8.139 18.906-7.42 18.906-7.42-3.854-2.098-4.983-2.686c-2.626 1.518-5.361 2.806-8.307 3.565-3.145.81-5.963.623-8.94-.652-1.255-.538-2.453-1.2-3.429-2.172-.592-.59-1.103-1.247-1.617-1.903q-.412.21-.948.487c-1.313.676-3.149 1.619-5.135 2.642"/>
  <path fill="#6592bf"
        d="M290.745 97.085s-5.758-3.221-11.235-6.244c-2.087 2.543-5.706 11.108-11.305 14.675-5.601 3.567-22.498 2.804-25.768-.338s-4.615-14.46-4.615-14.46a3808 3808 0 0 0-7.095 3.656s-.23.284.115 8.491c.227 5.372-3.367 18.215-3.511 26.041s5.685 11.747 5.685 11.747c-.855 8.943-1.076 10.258-2.832 36.05 7.647 4.992 35.639 4.396 47.291 0-3.907-22.008-3.904-23.08-4.2-24.758-1.019-5.778 17.47-54.86 17.47-54.86"/>
  <path fill="#528bba"
        d="M276.552 137.7c-3.125-1.106-6.412-1.731-9.627-2.539-4.388-1.103-8.691-3.349-13.282-3.304-2.349.024-4.613.165-6.963-.066-2.432-.24-4.834-.682-7.257-.985-4.023-.504-8.087-.507-12.087-1.126.232 7.313 5.678 10.978 5.678 10.978-.402 4.211-.664 6.731-1.013 10.912 4.395.811 8.804 1.544 13.238 2.103 3.69.465 7.429.873 11.144 1.099 1.567.096 3.651.154 4.874-1.028 1.134-1.096.929-3.009 1.547-4.394 1.13-2.53 3.611-1.305 5.406-.217 1.639.995 3.341 1.915 5.062 2.806-.298-1.73 1.129-7.287 3.28-14.239"/>
  <path fill="#e68052"
        d="M253.656 83.17c2.258 1.483 5.18 1.509 7.747.974 2.541-.53 4.879-1.625 7.122-2.922-.47-5.541 2.061-13.136 2.061-13.136l-16.138.573-3.542 12.212c.885.807 1.746 1.64 2.75 2.3"/>
  <path fill="#754c29"
        d="M250.4 80.436c-1.869-3.26-9.609-14.616-9.609-14.616l-.742 1.224c-2.188 3.723-4.992 9.573-3.197 12.692 2.765 4.803 5.58 4.48 2.644 9.954-2.935 5.476-10.502 8.97-5.846 17.849 4.657 8.88 12.66 10.918 12.66 10.918s-2.328-3.785-1.455-9.608c.338-2.255 2.329-6.022 4.286-10.329l.835-1.884s2.293-12.94.424-16.2"/>
  <path fill="#57301f"
        d="M240.791 65.82c-.122 2.52.865 5.176 2.37 7.524 2.223 3.47 5.661 6.063 6.581 10.269.528 2.416.373 5.08.376 7.539q.003 2.744-.142 5.484c2.751-6.391 4.933-13.618 1.528-18.807 0 0-5.814-4.505-7.141-7.187-1.06-2.142-2.128-7.001-2.128-7.001s-.613.85-1.444 2.18"/>
  <path fill="#e78052"
        d="M242.39 63.612c2.017-.6 2.881-3.684 1.929-6.889s-3.359-5.315-5.377-4.715-2.882 3.684-1.93 6.887c.952 3.205 3.36 5.316 5.378 4.716m32.657-.271c2.055.458 4.309-1.815 5.035-5.077s-.351-6.278-2.406-6.736c-2.055-.457-4.309 1.816-5.035 5.078s.351 6.278 2.406 6.736"/>
  <path fill="#fbbe7d"
        d="M258.238 32.244c-16.487.176-17.315 15.661-17.355 17.528-.002.113.001.222.009.335.118 1.722 1.251 17.641 2.871 20.668 1.343 2.51 11.163 10.612 15.105 10.612 3.941 0 13.382-8.395 14.67-10.932 1.555-3.06 2.345-19.001 2.426-20.725q.01-.167.002-.335c-.08-1.866-1.241-17.33-17.728-17.151"/>
  <path fill="#e78052"
        d="M275.907 50.786c-3.973-4.965-5.221-10.767-5.221-10.767l-27.233.251s6.607-7.939 14.78-8.026c16.487-.178 17.648 15.286 17.728 17.151q.007.168-.001.334z"/>
  <path fill="#231f20"
        d="M265.847 54.687c-1.155-.116-2.155 1.129-2.233 2.782s.795 3.087 1.951 3.204 2.155-1.128 2.233-2.78c.077-1.654-.797-3.09-1.951-3.206m-15.101.164c-1.155-.116-2.156 1.13-2.233 2.783-.078 1.653.796 3.087 1.952 3.204s2.154-1.129 2.232-2.782-.795-3.088-1.951-3.205"/>
  <path fill="#e78052"
        d="M258.151 64.86c-.278.462-.262.38-.072.73.132.241.444.468.631.665.409.431-1.369.337-1.683.005-.262-.276-.895-.728-1.025-1.1-.156-.44.16-.61.473-.88a5.5 5.5 0 0 0 1.77-2.872c.114-.45.855 1.874-.094 3.451"/>
  <path fill="#fff"
        d="M253.039 69.337c3.725-.598 7.545-.592 11.455 0 0 0-2.927 4.935-5.686 4.935s-5.769-4.935-5.769-4.935"/>
  <path fill="#754c29"
        d="M256.7 24.49c16.588-4.553 18.092 8.722 18.092 8.722s2.714.997 3.897 2.994c1.184 1.998.619 12.637-2.634 16.59-2.489-3.526-4.432-13.893-4.432-13.893-6.617-2.311-26.405-.059-26.405-.059s-.885 10.897-4.355 13.468c-3.872-12.241.822-23.7 15.837-27.822"/>
  <path fill="#8a603d"
        d="M272.794 28.2c-2.2-3.188-6.758-6.273-16.094-3.71-8.632 2.37-13.847 7.167-15.989 13.14 2.366-3.756 5.504-6.974 9.452-9.128 2.442-1.334 5.102-2.225 7.842-2.696.692-.12 8.245-1.381 14.789 2.393"/>
  <path fill="#231f20"
        d="M261.584 48.848q.162-.022.321-.061c6.424-1.393 9.691 1.996 9.605 1.842.304.26.733.458.984.44.25-.02.236-.264-.058-.547-.008.157-2.202-5.029-9.881-3.613-.526.123-1.359 1.998-.971 1.939m-6.704 1.54a2 2 0 0 1-.289-.063c-5.738-1.478-9.272 1.555-9.164 1.449-.317.24-.758.413-1.006.38s-.214-.278.102-.543c-.032.104 2.849-4.693 9.783-3.086.467.128.92 1.922.574 1.863"/>
  <path fill="#528bba"
        d="M298.79 150.652c-1.235-19.629.558-42.428-8.044-53.566-6.465 8.237-10.619 17.43-11.574 27.946l3.968 26.716z"/>
  <path fill="#e78052"
        d="M211.125 129.656s2.444 23.588 10.496 25.458 7.333-8.774 7.045-9.637c-.287-.863-10.208-13.952-10.208-13.952z"/>
  <path fill="#6592bf"
        d="M211.125 129.656s2.444 23.588 10.496 25.458 7.333-8.774 7.045-9.637c-.287-.863-10.208-13.952-10.208-13.952 2.021 11.555-4.88 10.021-7.333-1.869"/>
  <path fill="gray"
        d="m216.358 115.036 38.545 2.732a.857.857 0 0 1 .797.837l.624 27.886c0 .023-.229.569-.23.591.258-.152.659-.949.651-1.273l-.623-27.886a.86.86 0 0 0-.797-.837l-38.545-2.733c-.482-.034-1.285.83-1.311 1.304.144-.084.708-.634.889-.621"/>
  <path fill="#fff"
        d="M256.311 146.552c.001-.022.012-.041.012-.063l-.624-27.886a.86.86 0 0 0-.797-.838l-38.545-2.732a.83.83 0 0 0-.485.13.85.85 0 0 0-.434.746l.624 27.886a.86.86 0 0 0 .797.838l38.545 2.732a.85.85 0 0 0 .907-.813"/>
  <path fill="#4d4d4d" d="M219.49 120.238a.663.663 0 1 0-.002-1.326.663.663 0 0 0 .002 1.326"/>
  <path fill="#ccc"
        d="M220.504 119.34a1.04 1.04 0 1 0-2.024.479 1.04 1.04 0 0 0 2.024-.479m-1.656.39a.664.664 0 0 1 .493-.796.664.664 0 0 1 .796.493.662.662 0 0 1-1.289.303"/>
  <path fill="#911d22" d="m270.742 146.218 1.237-13.773s3.111 17.105-1.237 13.773"/>
  <path fill="#fbb57a"
        d="M264.368 138.006s20.641 20.572 28.654 18.855c8.012-1.718 5.837-9.046 4.006-11.908-1.832-2.863-36.934-17.633-36.934-17.633z"/>
  <path fill="#e78052"
        d="M297.032 144.957c-1.128-1.763-14.871-8.041-25.266-12.605.441 2.553.168 5.431-.046 7.914-.111 1.296-.461 2.516-.923 3.698 6.75 5.929 17.087 14.003 22.229 12.901 8.013-1.718 5.838-9.046 4.006-11.908"/>
  <path fill="#6592bf"
        d="M297.03 144.956c-1.12-1.751-14.683-7.955-25.051-12.511 1.315 9.161.766 14.964-1.237 13.773 6.749 5.933 17.127 11.751 22.282 10.646 8.013-1.718 5.838-9.045 4.006-11.908"/>
  <path fill="#fbb57a"
        d="M242.723 128.999c1.527-1.17 12.338-4.579 17.374-1.679l4.273 10.687s-17.409 4.662-21.682.692-1.492-8.529.035-9.7m-30.021-5.246c4.464-2.193 11.826 2.135 10.959 5.226-.652 2.324-1.526 8.854-4.884 7.939-3.358-.916-10.653-.799-6.075-13.165"/>
  <path fill="#1b212d"
        d="M299.406 164.59c2.717-22.872 22.746-60.486 32.748-70.48 4.917 6.882 13.914 16.178 13.464 32.584l-23.533 39.016c-7.534 7.603-17.936 7.486-22.679-1.12"/>
  <path fill="#0e1117" d="m335.842 200.496 12.428-16.032-1.655-1.284-12.427 16.033z"/>
  <path fill="#1b212d"
        d="m306.974 155.078 7.876.593 13.999 16.978 16.69 13.218-10.489 12.33c-6.327-4.529-11.52-7.411-17.212-11.402-7.155-5.017-13.278-12.432-17.439-16.149-3.885-7.9 3.591-15.315 6.575-15.568"/>
  <path fill="#ffe177"
        d="m342.307 183.336-10.128 13.067c-.578-.366-1.156-.739-1.734-1.11l10.256-13.231zm-3.945-3.132-10.431 13.458q-.862-.561-1.72-1.127l10.545-13.605zm-3.948-3.133-10.697 13.802c-.571-.384-1.135-.768-1.701-1.152l10.792-13.924z"/>
  <path fill="#1b212d"
        d="m317.859 186.858 11.002-14.194 1.606 1.275-10.92 14.087c-.565-.389-1.131-.779-1.688-1.168m21.242-7.881s-2.786 51.367 7.701 105.53c.654 3.381 4.407 71.577 2.184 84.107h19.623s8.503-52.542.981-85.684l-2.89-38.1-3.292-24.948s11.742 59.41 16.32 69.514c4.579 10.105 9.337 79.963 9.337 79.963l18.789.063s4.906-45.671-6.541-90.534c0 0-6.15-83.009-9.42-98.771z"/>
  <path fill="url(#c)" d="M397.587 178.93h-58.853v54.726h58.853z"/>
  <path fill="#9490a7"
        d="m385.246 74.599-9.358-.966-11.23 1.81-5.494 3.264.724 7.005 7.245-4.47 9.178-1.51 11.511 1.935z"/>
  <path fill="#fbb57a"
        d="M381.872 65.414s0 16.912 3.381 23.917c3.382 7.007-22.219 14.738-22.219 14.738s-10.868-7.007-6.279-13.53 5.555-19.569 5.555-19.569z"/>
  <path fill="#fbb57a"
        d="M383.593 84.071c-8.293 3.586-16.89 4.874-23.639-.579-.794 2.582-1.833 5.104-3.199 7.046-4.589 6.523 6.279 13.53 6.279 13.53s25.601-7.73 22.219-14.738c-.684-1.418-1.225-3.25-1.66-5.259"/>
  <path fill="#e78052"
        d="M380.609 83.21c.862-.418 1.71-.859 2.568-1.286-1.301-7.574-1.307-16.51-1.307-16.51l-19.563 5.557s-.379 5.12-1.791 10.55c5.555 4.778 13.134 5.053 20.093 1.688"/>
  <path fill="#dddbed"
        d="M331.854 94.416c1.207-1.117 25.867-12.575 25.867-12.575l4.347 15.704 23.91-17.154s24.481 14.708 25.959 16.187c.943.943-6.487 20.874-11.921 35.224-3.098 8.179-2.807 6.073-5.585 14.545s-1.191 29.487-1.191 29.487l-41.685 6.269-11.834-2.175-1.932-15.462-3.012-52.668s-4.131-16.264-2.923-17.382"/>
  <path fill="#a9a6b9"
        d="M354.274 128.524c.55-7.449 1.474-14.985 1.487-22.392.012-7.44 1.062-14.931 2.525-22.25l-.565-2.038s-3.599 1.667-8.143 3.8c.659 14.47-.3 29.147 4.696 42.88m8.833-23.378c.062 5.809.214 11.616.248 17.427.034 5.99 1.172 11.674 1.563 17.602.016.233-.171 2.341.154 2.528.604-.183-.141-44.707-.141-44.707l4.914-4.915 4.98 2.59s12.72-12.243 14.177-13.35c-2.991-1.812-3.025-1.93-3.025-1.93l-23.243 16.675c.173 2.69.344 5.382.373 8.08"/>
  <path fill="#a9a6b9" d="m367.38 85.707-.575 8.577c8.753-.655 20.923-12.833 20.923-12.833l-2.476-6.857z"/>
  <path fill="#784f2c"
        d="M354.391 184.58c9.334 0 37.727-3.861 37.727-3.861l.39-4.883s-31.004 3.671-38.117 3.671c-8.851 0-15.59-.611-15.656-.616l-.313 5.206c.279.023 6.915.483 15.969.483"/>
  <path fill="#e3e4e3"
        d="M353.452 184.945c-.63-.575-1-1.358-1.04-2.204l-.026-.535a3.16 3.16 0 0 1 .828-2.292c.573-.631 1.356-1 2.202-1.04l3.704-.176c1.754-.07 3.248 1.275 3.331 3.029l.027.536c.04.847-.254 1.66-.828 2.291a3.16 3.16 0 0 1-2.202 1.042l-3.704.174a3.16 3.16 0 0 1-2.292-.825m5.738-4.8-3.705.176h-.001a1.73 1.73 0 0 0-1.199.569 1.7 1.7 0 0 0-.45 1.247l.025.535c.021.46.223.887.567 1.199.345.314.782.474 1.249.452l3.704-.176a1.73 1.73 0 0 0 1.199-.569c.313-.343.473-.786.451-1.247l-.026-.535a1.737 1.737 0 0 0-1.731-1.654z"/>
  <path fill="#231f20" d="m358.001 170.503 7.268-5.682-1.165-67.321-4.723.005-7.303 67.328z"/>
  <path fill="#242c3c"
        d="M331.277 94.65s.409 9.102 1.756 19.071c0 0-1.002 29.054-.443 62.319.117 6.925-6.45 9.743-6.175 16.808.341 8.748 3.014 15.537 9.505 24.348 0 0 6.49 2.087 14.14 2.087l12.061-27.233 8.529 31.252s29.176-2.155 36.448-5.388l-6.464-73.749s14.58-39.511 11.358-47.7c-5.93-4.204-14.756-9.402-24.264-15.01l-28.57 54.088-5.656-26.403 4.31-27.75s-22.636 10.357-26.535 13.26"/>
  <path fill="#000" d="m359.156 135.54 26.624-20.204-2.39-5.579 7.57-.133 6.242-22.45-9.476-5.72z"/>
  <path fill="#242c3c" d="m359.156 135.54 25.695-21.399-2.657-5.048 7.969-.665 6.64-21.654-9.077-5.32z"/>
  <path fill="#000" d="m359.155 135.542-5.656-26.403 4.524-28.076-8.101 3.986-6.507 19.661 6.64 2.259-7.172 4.517z"/>
  <path fill="#242c3c"
        d="m359.158 135.542-5.656-26.403 4.524-28.076-8.101 3.986-5.644 19.329 5.777 2.591-6.308 4.582z"/>
  <path fill="#c3c0e0" d="m385.247 74.594-17.872 11.113s1.673 6.965 7.246 8.939l13.101-13.195z"/>
  <path fill="#a9a6b9" d="M359.732 84.196s-2.167 8.081-8.779 9.727l4.347-11.596 3.864-3.624z"/>
  <path fill="#c3c0e0" d="m355.305 82.327 5.194 9.542s-1.398-4.425-1.631-7.126.302-6.04.302-6.04z"/>
  <path fill="#062438"
        d="m363.75 87.102 4.034.088s1.32 2.95 2.091 3.876c.771.924-2.363 1.099-2.363 1.099zm-4.914.006s-.787.057-1.105-.176c-.318-.23-.833 3.415-.59 4.195s1.695-4.019 1.695-4.019"/>
  <path fill="#231f20" d="m365.816 87.102-6.979.003-1.696 4.02 2.239 6.38 4.723-.003 4.488-5.453z"/>
  <path fill="#ffe177"
        d="M348.887 149.487a2.356 2.356 0 1 0 0-4.713 2.356 2.356 0 0 0 0 4.713m23.219 0a2.356 2.356 0 1 0 0-4.713 2.356 2.356 0 0 0 0 4.713m-23.219 18.18a2.356 2.356 0 1 0 0-4.713 2.356 2.356 0 0 0 0 4.713m23.219 0a2.356 2.356 0 1 0 0-4.713 2.356 2.356 0 0 0 0 4.713m-23.219 18.179a2.356 2.356 0 1 0 0-4.712 2.356 2.356 0 0 0 0 4.712m23.218 0a2.356 2.356 0 1 0 0-4.712 2.356 2.356 0 0 0 0 4.712"/>
  <path fill="#231f20"
        d="m403.565 96.274 2.217-3.492-1.674-1.063-2.217 3.492zm-5.214-8.227-2.218 3.493 1.794 1.139 2.217-3.493zm8.025 10.008 2.216-3.493-1.673-1.062-2.216 3.492zm2.925 1.89 2.217-3.493-1.793-1.14-2.217 3.493zm-10.254-6.515 1.673 1.063L402.937 91l-1.673-1.064z"/>
  <path fill="#ffe177"
        d="m407.499 98.792 2.217-3.493-1.147-.729-2.217 3.493zm-2.782-1.79 2.217-3.493-1.147-.728-2.217 3.492zm-2.827-1.812 2.217-3.492-1.147-.73-2.218 3.493z"/>
  <path fill="#231f20"
        d="m400.148 89.188-2.218 3.492 1.148.73 2.217-3.492zm-58.261 4.737-1.941-3.652-1.751.931 1.941 3.653zm2.215-5.85 1.941 3.653 1.875-.997-1.941-3.653zm-5.193 7.414-1.94-3.653-1.75.93 1.94 3.653zm-2.952 1.562-1.941-3.653-1.875.997 1.941 3.653zm6.949-8.356-1.75.931 1.942 3.653 1.75-.93z"/>
  <path fill="#ffe177"
        d="m337.172 96.41-1.941-3.652-1.2.638 1.941 3.653zm2.961-1.546-1.941-3.653-1.2.638 1.941 3.653zm2.946-1.571-1.941-3.652-1.2.638 1.941 3.653z"/>
  <path fill="#231f20" d="m342.891 88.7 1.942 3.654 1.2-.638-1.941-3.653z"/>
  <path fill="#ffe177"
        d="m387.985 123.27-1.877-1.356h-5.258q-.005.088-.006.176c0 1.581.874 2.875 1.941 2.875h5.086a80 80 0 0 1 .114-1.695m2.281 0 1.877-1.356h5.258q.005.088.006.176c0 1.581-.873 2.875-1.94 2.875h-5.086a73 73 0 0 0-.115-1.695"/>
  <path fill="#ffe177"
        d="M390.586 123.153c0-.804-.653-1.458-1.457-1.458a1.459 1.459 0 0 0 0 2.916c.804 0 1.457-.654 1.457-1.458"/>
  <path fill="#ffe792"
        d="M389.125 120.727a2.422 2.422 0 1 0 0 4.845 2.422 2.422 0 0 0 0-4.845m-1.457 2.423a1.459 1.459 0 0 1 2.915 0 1.46 1.46 0 0 1-1.458 1.458 1.46 1.46 0 0 1-1.457-1.458"/>
  <path fill="#ffe177" d="M397.404 121.914h-1.569l-1.663 3.051h1.298c1.067 0 1.94-1.293 1.94-2.875z"/>
  <path fill="#ffe792"
        d="m383.669 121.914-1.56 2.862c.211.116.435.189.672.189h1.346l1.664-3.051zm10.041 0-1.663 3.051h2.121l1.663-3.051z"/>
  <path fill="#eb9756"
        d="M388.022 58.027c2.144 0 3.881-2.759 3.881-6.162s-1.737-6.162-3.881-6.162-3.881 2.759-3.881 6.162 1.738 6.162 3.881 6.162m-36.36 0c2.144 0 3.882-2.759 3.882-6.162s-1.738-6.162-3.882-6.162c-2.143 0-3.881 2.759-3.881 6.162s1.738 6.162 3.881 6.162"/>
  <path fill="#653a2d"
        d="M388.619 35.032c3.075 15.262-3.125 23.886-3.125 23.886s-9.113-11.938-9.99-19.56.804-9.076 5.682-9.492 7.433 5.166 7.433 5.166m-37.767-.038c-3.237 15.244 4.053 23.807 4.053 23.807s10.069-11.827 10.946-19.449c.877-7.621-1.032-9.102-6.519-9.588-5.487-.487-8.48 5.23-8.48 5.23"/>
  <path fill="#fbb57a"
        d="M369.842 26.023c16.788 0 17.8 15.757 17.861 17.657a4 4 0 0 1-.005.341c-.101 1.754-1.081 17.976-2.697 21.075-1.34 2.57-7.321 7.854-9.841 10.016a3.95 3.95 0 0 1-2.578.954h-5.481a3.95 3.95 0 0 1-2.578-.954c-2.52-2.162-8.501-7.447-9.842-10.016-1.616-3.099-2.595-19.32-2.697-21.075a4 4 0 0 1-.005-.34c.061-1.901 1.074-17.658 17.863-17.658"/>
  <path fill="#e78052"
        d="M374.88 45.128c4.39-.902 8.507-2.603 12.425-4.722-1.017-5.186-4.621-14.383-17.458-14.383-12.428 0-16.204 8.626-17.355 13.882 5.465 5.964 14.69 6.805 22.388 5.223"/>
  <path fill="#eb9756"
        d="M369.84 26.016c7.517 0 11.853 3.162 14.375 6.82-5.068.549-10.071 1.532-14.875 3.225-1.431-.425-2.855-.866-4.349-1.036-2.165-.247-4.426-.33-6.547.254-2.674.736-4.545 2.328-5.905 4.365 1.218-5.275 5.074-13.628 17.301-13.628"/>
  <path fill="#402302"
        d="M377.701 47.08c-1.175-.131-2.206 1.126-2.303 2.808-.097 1.683.776 3.153 1.951 3.284 1.175.132 2.206-1.126 2.304-2.807.097-1.683-.777-3.154-1.952-3.285m-15.367 0c-1.175-.131-2.207 1.126-2.303 2.808-.098 1.683.776 3.153 1.951 3.284 1.175.132 2.206-1.126 2.304-2.807.096-1.683-.777-3.154-1.952-3.285"/>
  <path fill="#682b1c"
        d="M355.803 42.794c.286-.13 4.93-2.799 11.168-1.164.432.112.87 2.413.53 2.442q-.148.012-.303-.024c-5.791-1.416-10.417.118-10.517.166-.477.175-1.082-.003-1.328-.397s-.036-.852.45-1.023m28.078-1.336c-.285-.131-4.929-2.798-11.167-1.164-.432.112-.871 2.414-.53 2.442q.149.012.302-.024c5.791-1.415 10.419.117 10.518.166.477.175 1.082-.002 1.328-.397.246-.394.035-.851-.451-1.023"/>
  <path fill="#653a2d"
        d="M388.753 24.884c-.091-.294-.216-.583-.328-.874-2.588-3.173-6.504-11.604-11.343-11.741-4.562-.13-16.208 4.058-18.009 4.675-1.04.808-6.279 11.25-8.073 17.543.677-.458 1.364-.879 2.066-1.206 1.752-.814 3.321-.762 5.226-.486.998.144 9.009.453 9.683.36 5.527-.76 13.414-4.67 18.4-.714 1.378-1.005 2.41-2.314 2.722-3.828.255-1.239.031-2.514-.344-3.73"/>
  <path fill="#864d3c"
        d="M353.068 33.275c.05-.023.097-.03.146-.051 1.295-.959 2.675-1.805 4.187-2.466 4.968-2.172 10.407-1.268 15.571-2.514 5.842-1.408 8.097-6.832 5.664-12.164-.63-1.38-1.474-2.575-2.273-3.799-4.955.256-15.574 4.069-17.288 4.657-1.04.808-6.28 11.25-8.075 17.544.678-.458 1.365-.88 2.068-1.207"/>
  <path fill="#e88252"
        d="M370.408 56.202c.291.685.275.563.064 1.097-.144.368-.483.725-.686 1.029-.446.668 1.462.445 1.805-.067.285-.427.971-1.137 1.117-1.701.174-.672-.162-.913-.493-1.305-.95-1.122-1.559-2.546-1.85-4.241-.116-.674-.949 2.857.043 5.188"/>
  <path fill="#653a2d"
        d="M352.571 34.281a985 985 0 0 1 3.869 2.559c.136.09.28.212.201.325-.037.053-.115.088-.19.121l-5.123 2.234zm33.904-.531q-1.939 1.275-3.869 2.558c-.135.09-.28.212-.201.326.037.053.116.088.191.12l5.122 2.235z"/>
  <path fill="#242c3c"
        d="M369.842 2.773c16.82 0 27.506 21.08 27.371 21.442-.166.446-4.155 10.898-10.953 10.898q-.224 0-.449-.015c-1.881-.128-4.37-.192-7.398-.192-1.982 0-4.143.027-6.432.08a.95.95 0 0 1-.448.114h-.037s-.633-.025-1.654-.056c-1.021.031-1.649.055-1.649.055l-.042.001a.94.94 0 0 1-.448-.114 276 276 0 0 0-6.433-.08c-3.028 0-5.517.064-7.398.191q-.225.016-.449.016c-6.798 0-10.787-10.453-10.953-10.898-.135-.361 10.553-21.442 27.372-21.442"/>
  <path fill="#1b212d" d="M352.086 32.882h35.517v-6.953c-9.808-9.811-25.71-9.811-35.517 0z"/>
  <path fill="#1b212d" d="M352.086 32.882h35.517v-6.953c-9.808-9.811-25.71-9.811-35.517 0z"/>
  <path fill="#b6b8bc" d="M354.746 23.625a25 25 0 0 0-2.66 2.303v6.953h4.763c-2.003-2.507-2.486-5.825-2.103-9.256"/>
  <path fill="#0e1117" d="M383.865 32.88h3.739v-6.953a25 25 0 0 0-5.799-4.318c1.529 3.593 1.806 7.317 2.06 11.271"/>
  <path fill="#131313"
        d="M387.603 32.32v3.045s-1.746 7.891-17.758 7.891-17.759-8.036-17.759-8.036v-3.234c11.693-2.517 23.821-2.38 35.517.333"/>
  <path fill="#050505"
        d="M387.604 32.32a83 83 0 0 0-3.993-.812c1.472 2.887.252 6.65-2.642 9.952 5.795-2.329 6.635-6.093 6.635-6.093z"/>
  <path fill="#d1d3d4"
        d="M355.999 37c-2.863-4.733 5.362-6.058 8.291-6.432a69 69 0 0 1 3.249-.334c-5.186.096-10.361.658-15.453 1.754v3.235s1.746 8.036 17.758 8.036c.461 0 .87-.028 1.308-.04-5.255-.665-12.385-1.64-15.153-6.218"/>
  <path fill="#ffe177" d="M352.102 33.592a81.4 81.4 0 0 1 35.52-.088l.491-2.205a83.7 83.7 0 0 0-36.535-.047z"/>
  <path fill="#ffe177"
        d="M387.603 34.153c.475 0 .861-.742.861-1.658s-.386-1.66-.861-1.66c-.476 0-.861.743-.861 1.66s.385 1.658.861 1.658m-35.515 0c.476 0 .861-.742.861-1.658s-.385-1.66-.861-1.66c-.475 0-.861.743-.861 1.66s.386 1.658.861 1.658m15.844-19.745-2.781-2.01h-7.79c-.003.087-.009.173-.009.26 0 2.344 1.294 4.26 2.875 4.26h7.535q.07-1.257.17-2.51m3.38 0 2.782-2.01h7.79q.006.13.008.26c0 2.344-1.294 4.26-2.875 4.26h-7.535q-.07-1.257-.17-2.51"/>
  <path fill="#ffe177"
        d="M371.787 14.23c0-1.19-.969-2.16-2.16-2.16-1.19 0-2.158.97-2.158 2.16s.968 2.16 2.158 2.16c1.191 0 2.16-.969 2.16-2.16"/>
  <path fill="#ffe792"
        d="M369.628 10.64a3.59 3.59 0 0 0-3.589 3.591 3.589 3.589 0 1 0 7.177 0 3.59 3.59 0 0 0-3.588-3.59m-2.16 3.591c0-1.191.968-2.16 2.159-2.16s2.159.969 2.159 2.16-.968 2.16-2.159 2.16a2.16 2.16 0 0 1-2.159-2.16"/>
  <path fill="#ffe177"
        d="M381.883 12.398h-2.324l-2.465 4.52h1.923c1.582 0 2.875-1.916 2.875-4.259q-.002-.131-.009-.26"/>
  <path fill="#ffe792"
        d="m361.546 12.398-2.312 4.24c.312.173.645.28.996.28h1.994l2.465-4.52zm14.871 0-2.464 4.52h3.143l2.464-4.52z"/>
  <path fill="#fff" d="M363.398 62.542c4.522-.726 9.159-.72 13.906 0 0 0-3.552 5.99-6.902 5.99s-7.004-5.99-7.004-5.99"/>
  <path fill="#fab57a"
        d="M404.466 213.304c2.568-2.511 2.801-4.379 3.852-3.153.381.445.31 3.351.31 3.351s-2.387-.682-2.477.075c-.089.756 1.11 2.154 1.98 2.705s8.087.77 8.358.467c1.518-1.693 2.393-11.911 2.978-13.37.583-1.46 1.108-3.796 1.05-6.715h-9.283l-.695 1.863s-4.925 5.961-5.859 7.518-4.125 8.369-4.125 8.369 1.343 1.401 3.911-1.11"/>
  <path fill="#dddbed" d="M421.61 193.938h-12.938v3.965h12.938z"/>
  <path fill="#1b212d"
        d="M412.401 96.82c9.261 9.253 8.754 35.769 11.406 56.703.674 8.892.168 26.917-1.547 43.145h-14.617l-.469-43.334-6.956-27.03c-.406-14.845 7.734-23.256 12.183-29.484"/>
  <path fill="#ffe177"
        d="M407.615 193.622h14.956q.087-.926.168-1.856h-15.145zm-.056-4.564h15.404q.077-.927.148-1.855h-15.572zm-.047-4.562h15.797q.062-.93.119-1.855h-15.936z"/>
  <path fill="#242c3c" d="M423.691 178.086h-16.246l.02 1.855h16.126c.034-.62.069-1.241.1-1.855"/>
  <path fill="#000"
        d="M654.144 197.557h12.183c16.407 0 29.832-13.429 29.832-29.842v-40.654c0-16.413-13.425-29.842-29.832-29.842h-12.183c-16.408 0-29.832 13.429-29.832 29.842v40.654c0 16.413 13.424 29.842 29.832 29.842"/>
  <path fill="#333"
        d="M629.717 110.684c2.526 1.324 3.977 3.284 4.985 6.064 1.745 4.808 1.45 62.299 7.353 64.791 3.711 1.567 43.455-2.207 51.673-2.507-4.473 10.876-14.642 18.521-26.404 18.521h-14.177c-15.86 0-28.835-13.893-28.835-30.873v-38.592c0-6.5 1.907-12.544 5.144-17.533q.13.063.261.129"/>
  <path fill="#1a1a1a"
        d="M633.112 155.254c.508 1.218.555 3.079.719 4.39.341 2.743 1.825 17.473 1.566 18.355-.463 1.578-2.304.836-3.208.281-2.225-1.364-3.083-3.793-3.825-6.303-.906-3.067-1.602-6.419-1.851-9.632-.205-2.634 6.01-8.5 6.599-7.091"/>
  <path fill="#6592bf"
        d="M702.038 167.547s2.733 50.396-7.555 103.536c-.498 2.569-2.82 43.309-2.826 67.248 0 1.258 1.411 2.849 1.424 4.006.015 1.314-1.366 2.179-1.332 3.341.037 1.284 1.557 3.603 1.619 4.671.107 1.827-1.218 2.179-1.028 3.252-6.189 1.933-12.621 1.803-19.252 0 0 0-2.167-1.27-2.509-3.729-.203-1.457 1.495-3.406 1.232-5.554-.148-1.202-1.362-1.928-1.518-3.315-.11-.98.838-2.578.727-3.641-1.868-17.862-3.662-46.817 1.106-67.825l2.836-37.381 3.229-24.476s-11.521 58.287-16.013 68.201c-2.913 6.43-5.901 37.525-7.641 58.582a1280 1280 0 0 0-.338 4.157c-.083 1.037 1.296 2.375 1.221 3.337-.117 1.502-1.683 2.571-1.781 3.858-.129 1.698 1.537 4.485 1.446 5.727-.188 2.587-2.066 2.79-2.066 2.79-6.712 1.938-12.863 1.978-18.435.062 0 0-2.431-1.047-2.716-6.334-.06-1.126 1.985-4.354 1.931-5.675-.046-1.154-1.228-1.855-1.264-3.147-.026-.95 1.091-2.461 1.073-3.48-.306-17.132.661-43.801 7.393-70.187 0 0 6.034-81.441 9.242-96.905z"/>
  <path fill="url(#d)" d="M702.625 167.32h-57.609v51.41h57.609z"/>
  <path fill="#e78052"
        d="m620.625 154.823 9.342-68.112 14.494 34.92-4.958 33.382zm87.913-70.229 16.205 72.522-13.348 4.202-7.247-31.099z"/>
  <path fill="#f95f53"
        d="m700.929 139.629-3.499-27.026 11.11-28.01c7.076 7.072 13.465 32.744 16.158 52.154-7.862 1.496-15.769 2.668-23.769 2.882"/>
  <path fill="#fd7665"
        d="M708.534 84.589c-1.185-1.096-28.442-13.702-28.442-13.702l-3.65 8.525-17.747-9.857s-27.281 15.704-28.732 17.156c-.924.924 6.365 20.479 11.697 34.558 3.038 8.025.509 84.677.509 84.677 9.344 7.821 58.352 7.249 63.31 2.289 0 0 4.24-122.55 3.055-123.646"/>
  <path fill="#f95f53"
        d="M664.228 146.258c2.404-.641 14.877 4.44 16.482 4.582 3.72.33 25.037 1.045 26.586 1.212.177-5.843.35-11.753.512-17.522-.852-.064-1.704-.097-2.536-.133-3.009-.13-5.994-.533-9.007-.656-3.544-.145-7.086-.198-10.614-.587-3.499-.386-6.979-.949-10.49-1.216-3.468-.265-6.96-.25-10.337.671-3.277.893-6.117 2.588-8.923 4.452-4.247 2.823-8.457 5.711-12.766 8.441.042 5.334.024 11.115-.033 16.921 2.504-1.691 18.615-15.496 21.126-16.165"/>
  <path fill="#fbb57a"
        d="M680.201 70.936c-1.198-4.935-1.547-9.352-1.547-9.352l-19.192-5.451s-.009 6.795-.885 13.488c-.582.336-4.743 2.735-9.757 5.659 0 0 4.036 3.245 10.732 5.562q1.188.446 2.494.766c3.161.879 6.745 1.514 10.75 1.514 14.369 0 15.773-8.288 15.773-8.288-4.557-2.132-8.078-3.763-8.368-3.898"/>
  <path fill="url(#e)" d="M680.247 55.797h-21.966v18.242h21.966z"/>
  <path fill="#f95f53"
        d="M644.691 141.931c-9.22-.094-18.327-.671-27.207-3.512 1.008-21.362 4.707-47.752 12.478-51.708 10.897 10.193 16.943 25.557 15.974 48.397z"/>
  <path fill="#000"
        d="m664.333 6.33 1.434 2.47-.613-2.782a11.2 11.2 0 0 1 7.423.173l-.803 3.469 1.847-3.016a11.1 11.1 0 0 1 3.36 2.592l-6.265 5.527a2.784 2.784 0 0 0-4.177 0l-6.266-5.527a11.1 11.1 0 0 1 4.06-2.906"/>
  <path fill="#eb9756"
        d="M655.422 44.202c0 3.34.154 6.046-1.949 6.046s-5.668-2.707-5.668-6.046 1.036-6.046 3.139-6.046 4.478 2.707 4.478 6.046m35.673 0c0 3.34-3.565 6.046-5.667 6.046-2.103 0-1.949-2.707-1.949-6.046s2.374-6.046 4.477-6.046 3.139 2.707 3.139 6.046"/>
  <path fill="#fbb57a"
        d="M669.448 18.852c-16.471 0-17.463 15.459-17.524 17.323q-.006.167.005.335c.099 1.72 2.204 17.636 3.79 20.676 1.315 2.52 8.614 10.763 13.634 10.763 5.022 0 12.509-8.242 13.824-10.763 1.586-3.04 3.691-18.956 3.791-20.676q.01-.168.005-.335c-.06-1.864-1.054-17.323-17.525-17.323"/>
  <path fill="url(#f)" d="M687.292 18.484h-35.644V39.63h35.644z"/>
  <path fill="#000"
        d="M661.736 38.847c1.152-.157 2.165 1.35 2.259 3.364.095 2.016-.762 3.777-1.915 3.934s-2.165-1.348-2.26-3.363c-.095-2.016.763-3.776 1.916-3.935m15.085 0c1.151-.157 2.164 1.35 2.26 3.364.095 2.016-.762 3.777-1.915 3.934s-2.165-1.348-2.26-3.363c-.097-2.016.761-3.776 1.915-3.935m6.392-5.799c-.289-.104-5.051-2.324-11.013-.206-.413.145-.649 2.431-.315 2.431a1 1 0 0 0 .294-.05c5.544-1.866 10.195-.753 10.296-.714.481.131 1.057-.093 1.265-.499.207-.405-.037-.835-.527-.962m-27.537 1.745c.28-.129 4.836-2.746 10.957-1.141.423.109.853 2.367.519 2.395a1 1 0 0 1-.297-.024c-5.681-1.388-10.221.115-10.318.163-.469.172-1.062-.002-1.303-.39-.242-.386-.035-.835.442-1.003"/>
  <path fill="#e88252"
        d="M668.899 48.591c-.286.636-.271.523-.064 1.018.142.342.475.673.674.955.437.62-1.435.414-1.772-.061-.279-.398-.952-1.056-1.096-1.58-.171-.623.158-.848.484-1.212.931-1.041 1.528-2.363 1.814-3.938.114-.624.933 2.654-.04 4.818"/>
  <path fill="#e78052"
        d="M676.158 55.086c-4.835.793-9.507.77-14.033 0 0 0 2.935 1.618 6.979 1.618s7.054-1.618 7.054-1.618"/>
  <path fill="#000"
        d="M668.483 21.102s-8.725-.209-13.301 4.817c-2.369 2.6-2.211 6.877-2.146 12.733l-1.43-.394s-4.147-25.86 18.307-25.86c19.057 0 17.985 23.356 17.448 25.824l-1.394.394s1.592-8.66-3.254-13.842c-2.578-2.758-7.835-3.672-14.23-3.672"/>
  <path fill="#000"
        d="m684.289 24.992.285 6.939 1.645 6.51s1.216-8.728-1.93-13.449m-29.729 0-.286 6.939-1.645 6.51s-1.215-8.728 1.931-13.449m28.299-1.642s-5.221-.382-13.945 1.645c0 0-9.63-2.075-15.352-1.645 0 0 14.923-9.014 29.297 0"/>
  <path fill="url(#g)" d="M681.077 12.68h-23.624v7.462h23.624z"/>
  <path fill="#000" d="M653.993 127.359s5.721 24.035-12.013 44.637l-1.144-5.723s11.823-12.399 8.963-37.77z"/>
  <path fill="#333"
        d="M646.659 75.969s-6.734.749-11.597 7.11c0 0 10.526 39.944 11.399 52.292 0 0 5.416.891 10.154.143 0 0-3.003-39.343-9.956-59.545m47.797 1.601c-1.87-1.91 10.053 1.414 11.596 3.557s5.05 39.707.561 42.506c0 0-10.287-44.153-12.157-46.063"/>
  <path fill="#e78052"
        d="M724.553 130.406s5.34 31.14-.19 34.52c-5.53 3.379-10.107-.716-12.967-3.613-2.861-2.896 6.483-34.532 6.483-34.532z"/>
  <path fill="url(#h)" d="M725.832 126.688h-12.02v15.339h12.02z"/>
  <path fill="#fbb57a"
        d="M723.219 122.773s-10.288.267-11.242 3.128c-.953 2.862-.2 14.422 3.996 13.277 4.195-1.144 12.967-.953 7.246-16.405"/>
  <path fill="#c1272d" d="M688.57 74.836s12.82 52.356 19.876 50.639l7.436 1.335s-17.162-26.515-21.426-49.24z"/>
  <path fill="#000"
        d="m679.331 142.569 19.09 1.94 2.206-21.723-19.09-1.94a1.94 1.94 0 0 0-2.128 1.735l-1.813 17.861a1.94 1.94 0 0 0 1.735 2.127"/>
  <path fill="#404041"
        d="m685.094 143.153 26.238 2.666a2.187 2.187 0 0 0 2.396-1.955l1.764-17.371a2.19 2.19 0 0 0-1.954-2.398L687.3 121.43z"/>
  <path fill="#404041" d="m706.32 120.535-.285 2.802-10.504-1.067.491-4.832 8.475.861a2.04 2.04 0 0 1 1.823 2.236"/>
  <path fill="#000"
        d="m697.627 119.53-.296 2.922-7.698-.782.405-3.974a.86.86 0 0 1 .943-.77l4.931.5a1.92 1.92 0 0 1 1.715 2.104m4.489 5.859 5.433.552c4.782.486 8.266 4.759 7.78 9.543a8.703 8.703 0 0 1-9.539 7.782l-5.434-.552a8.705 8.705 0 0 1-7.779-9.542c.486-4.784 4.757-8.269 9.539-7.783"/>
  <path fill="#6592bf"
        d="M705.86 142.586c4.4.447 8.344-2.77 8.791-7.172s-2.769-8.347-7.17-8.794c-4.399-.447-8.344 2.771-8.791 7.172-.446 4.402 2.77 8.347 7.17 8.794"/>
  <path fill="#000"
        d="M707.415 127.303c4.026.409 6.968 4.018 6.559 8.045s-4.017 6.971-8.043 6.561c-4.026-.409-6.968-4.018-6.559-8.045s4.017-6.971 8.043-6.561m.138-1.359a8.704 8.704 0 0 0-9.539 7.782 8.705 8.705 0 1 0 17.319 1.76c.485-4.784-2.998-9.056-7.78-9.542"/>
  <path fill="url(#i)" d="M706.77 128.352h-4.973v12.437h4.973z"/>
  <path fill="#c1272d"
        d="M653.715 72.258s5.149 70.007 26.697 51.695l5.149.953s-16.972 15.261-25.172 1.527c-8.46-14.172-11.569-51.147-11.569-51.147z"/>
  <path fill="#fbb57a"
        d="M686.414 126.59s-11.822-5.722-18.115-2.098c0 0-43.86 18.456-46.148 22.033s-5.006 12.733 5.005 14.879c10.012 2.146 35.803-23.559 35.803-23.559s18.879 4.388 24.218-.572c5.34-4.96-.763-10.683-.763-10.683M506.277 82.876l-35.485 25.809-18.313-35.537-17.213.733s16.481 52.39 27.102 55.321 48.711-16.486 48.711-16.486 15.789-29.297-4.802-29.84"/>
  <path fill="#e78052"
        d="M448.191 108.347c-7.018-15.699-12.925-34.467-12.925-34.467l17.213-.732 13.469 26.137c-5.288 4.195-11.366 6.995-17.757 9.062m22.333-.173.263.51 35.486-25.809c20.591.543 4.801 29.84 4.801 29.84s-25.796 13.145-40.848 16.165c-.095-6.899.035-13.801.298-20.706"/>
  <path fill="#fff"
        d="m470.422 106.49 35.851-23.612c22.105-.957 5.9 36.068 5.9 36.068 1.05 2.31-18.38 11.396-31.131 12.09-1.932-3.862-9.178-20.572-10.62-24.546"/>
  <path fill="#cbdadf"
        d="M513.926 115.622c-5.509.241-11.376-.745-16.659.858 1.015 1.063 2.4 1.626 3.682 2.323.658.358 1.611.799 1.816 1.601.21.819-.452 1.47-1.032 1.944-1.635 1.336-3.76 2.218-5.703 2.991-5.079 2.022-10.455 3.09-15.889 3.798.364.786.673 1.435.904 1.897 12.751-.694 32.18-9.779 31.131-12.09 0 0 .841-.564 1.75-3.322"/>
  <path fill="#bc842c" d="M422.879 105.64 605.79 39.837l-4.987-20.439-184.826 61.474z"/>
  <path fill="#fabe78" d="m428.635 107.655 182.911-65.802-4.986-20.439-184.826 61.474z"/>
  <path fill="#bb8f5a" d="m428.639 107.656-5.76-2.014-6.902-24.767 5.761 2.013z"/>
  <path fill="#fcd8ae" d="m606.564 21.412-5.761-2.014-184.826 61.474 5.761 2.014z"/>
  <path fill="#fab264"
        d="M606.095 30.547c-.027.01-2.388.899-3.262.899q-.19.002-.272-.06a.38.38 0 0 1-.143-.345c.012-.093.065-.148.118-.201-.688.237-1.55.527-2.657.894l-4.08 1.371c.343-.053.424.036.492.244.111.333.152.457-2.171 1.243l-.004.002c-1.291.42-1.88.608-2.174.608-.206 0-.267-.092-.323-.26-.064-.194-.093-.322.38-.56l-26.964 9.06c-3.069 1.072-4.586 1.504-6.054 1.921-1.142.325-2.323.66-4.242 1.299-6.726 2.21-11.414 3.78-15.272 5.07-6.286 2.106-10.439 3.496-17.633 5.718q-7.23 2.427-14.691 4.925l-.594.2q-1.217.41-2.473.826c-1.415.523-2.936.957-4.407 1.377-1.102.315-2.241.64-3.297.993a.365.365 0 0 1-.452-.203.365.365 0 0 1 .165-.468 17 17 0 0 1 1.637-.751c-.005-.013-.019-.02-.022-.033a.366.366 0 0 1 .237-.442c2.444-.818 4.63-1.546 7.075-2.35l20.193-6.748c2.815-.86 2.817-.862 2.944-.464l.004.012c1.759-.596 3.544-1.203 5.313-1.805 9.201-3.133 17.893-6.092 20.959-6.769.637-.24 1.08-.414 1.387-.54a.5.5 0 0 1-.037-.11.41.41 0 0 1 .098-.377c-8.67 2.863-17.794 5.785-25.966 8.4-6.466 2.07-12.049 3.858-16.343 5.275a.365.365 0 0 1-.461-.23.366.366 0 0 1 .225-.464l.487-.17-8.427 2.793c-3.927 1.38-7.85 2.388-12.003 3.456-3.624.932-7.372 1.895-11.091 3.124a.365.365 0 0 1-.452-.206.365.365 0 0 1 .17-.467c2.281-1.18 4.667-1.843 6.911-2.386 5.867-1.31 10.752-2.652 15.842-4.354h.002q1.348-.44 2.586-.85c2.422-.798 4.456-1.47 5.686-1.883l30.039-9.945c2.684-.812 2.685-.814 2.808-.416a.4.4 0 0 1 .026.131 1972 1972 0 0 1 17.81-5.835c-.039-.01-.098-.01-.121-.027a.38.38 0 0 1-.137-.324 319 319 0 0 1-9.636 2.931l-.111.053-.009-.02a2 2 0 0 1-.202.051.366.366 0 0 1-.143-.671c-.972.314-2.02.658-3.095 1.013.093.006.171.02.213.052a.38.38 0 0 1 .138.348c-.034.236-.247.32-.417.387-.281.113-2.944 1.063-3.88 1.063-.129 0-.225-.018-.278-.06a.39.39 0 0 1-.139-.338l-2.496.837c.007.011.022.018.026.03.147.367-.252.528-.403.587-.262.107-3.028 1.085-3.974 1.085-.126 0-.22-.018-.272-.057-.025-.02-.037-.051-.056-.077-6.597 2.205-12.636 4.176-14.463 4.46a.365.365 0 0 1-.412-.277.366.366 0 0 1 .241-.433l39.303-12.904a.4.4 0 0 1 .114-.019l.048.002c.564 0 2.626-.74 3.016-.967a.36.36 0 0 1 .176-.116c3.654-1.1 3.674-1.048 3.804-.631.115.367.148.477-3.54 1.842l.036.045a.37.37 0 0 1 .03.415l-.003.002c.362-.063.639-.073.744.01a.38.38 0 0 1 .141.346l-.002.004c4.177-1.337 8.365-2.668 12.571-3.984a.363.363 0 0 1 .456.23c.057.163-.024.325-.165.415.158-.01.312.06.369.215q.019.053.023.104c1.558-.53 3.391-1.163 5.266-1.81 7.991-2.756 12.672-4.328 15.441-5.189-.065-.03-.122-.067-.146-.125a.36.36 0 0 1-.01-.253l-.007-.001a.38.38 0 0 1-.142-.346c.032-.234.244-.32.385-.379.067-.026 3.112-1.158 3.536-.826a.38.38 0 0 1 .143.346c-.006.044-.041.062-.058.097.067.031.142.058.166.118.051.122.059.283-.113.43.284.005.34.107.401.227.176.343-.19.601-.31.686a.4.4 0 0 1-.109.053q-.307.088-.64.19c.055.175.064.291-.424.526.77-.225 1.541-.395 1.743-.24.103.08.16.216.143.346-.035.234-.248.322-.387.38m-.333 2.037.884-.284a.366.366 0 0 1 .243.691c-13.536 5.187-46.956 16.21-57.939 19.832a.37.37 0 0 1-.46-.226.367.367 0 0 1 .216-.464c7.008-2.645 18.58-6.673 29.925-10.527a.366.366 0 0 1 .148-.47c1.433-.83 7.741-2.933 14.421-5.16 1.636-.546 3.298-1.1 4.871-1.63l-.001-.002c-.125-.388-.125-.388 2.253-1.244l5.918-2.011a.4.4 0 0 1 .096-.019c.313-.017.841-.05.923.373.055.285-.036.52-1.498 1.141m-6.274 8.81c-2.106.745-2.854 1-3.145.967l-21.817 7.679a594 594 0 0 0-9.033 3.004l-2.038.695c-5.321 1.559-13.277 4.011-20.945 7.306l-2.614.931a.365.365 0 0 1-.455-.499.4.4 0 0 1 .087-.132l-19.772 6.926-1.636.557c-10.105 3.162-20.555 6.433-30.967 10.867l-3.006 1.053c-1.974.638-2.727.882-3.048.882-.195 0-.228-.092-.28-.242-.131-.383-.131-.383 2.126-1.218.791-.295 1.777-.648 2.832-1.025 10.297-4.143 20.334-7.662 30.672-10.755l22.548-7.885 1.35-.473a.5.5 0 0 1-.105-.168c-.026-.057-.004-.125.008-.191a2319 2319 0 0 1-26.85 9.294c-.477.164-.961.326-1.538.518-.921.305-1.928.653-2.949 1.006l-.507.175a.366.366 0 0 1-.239-.694h.003c.693-.241 1.409-.49 2.106-.806l2.054-.766c7.636-2.847 17.485-6.287 29.854-10.55-.049-.009-.113-.009-.14-.03a.38.38 0 0 1-.144-.345c.031-.239.242-.325.428-.401.114-.045 3.771-1.434 4.222-1.097a.38.38 0 0 1 .14.31 968 968 0 0 1 9.939-3.417l1.31-.448c1.815-.627 3.481-1.204 5.042-1.746-1.894.607-2.648.84-2.964.84-.203 0-.234-.093-.282-.24-.041-.123-.073-.22.328-.44l-.005-.036c.018-.003.057-.012.136-.032 1.134-.57 4.814-1.878 16.305-5.782 2.663-.995 4.489-1.765 6.257-2.51 3.273-1.381 6.659-2.809 15.449-5.688a.37.37 0 0 1 .406.127c2.39-.976 6.055-2.431 8.592-3.002a.375.375 0 0 1 .415.207.37.37 0 0 1-.12.447q-.3.216-.537.381.282-.016.641-.032c.192.008.34.12.374.299a.37.37 0 0 1-.24.415l-3.652 1.268q.043.059.075.15c.113.331.155.455-2.133 1.252-1.261.423-1.836.613-2.125.613-.199 0-.261-.093-.319-.26a.5.5 0 0 1-.033-.18l-9.892 3.436a.37.37 0 0 1-.484-.3 1493 1493 0 0 0-8.615 2.979.36.36 0 0 1 .044.213c-.03.236-.244.325-.398.39-.029.012-2.661 1.026-3.576 1.026-.119 0-.209-.018-.26-.056-.03-.023-.047-.057-.068-.087l-.268.093-2.341.817c.126.017.242.075.293.2a.37.37 0 0 1 .005.267.366.366 0 0 1-.017.619c-2.562 1.521-8.739 3.182-12.059 4.075-.618.165-1.126.302-1.45.395l-3.138 1.106a707 707 0 0 0-6.094 2.157 753 753 0 0 1-5.682 2.004q.023.04.047.093c.034.076.019.168-.012.255.301-.112.6-.22.904-.335.618-.178 1.465-.475 2.099-.696a.363.363 0 0 1 .461.21c.02.052.002.102-.001.153a226 226 0 0 1 14.038-4.68q1.068-.366 2.161-.752l.205-.072c3.248-1.138 6.644-2.34 10.007-3.53 7.104-2.517 13.911-4.928 18.998-6.611-3.777 1.135-8.081 2.462-13.849 4.637a.367.367 0 0 1-.277-.678c5.39-2.376 10.46-3.93 15.828-5.573 3.743-1.145 7.615-2.331 11.8-3.862a.373.373 0 0 1 .466.206c.054.135.002.266-.089.367.244-.034.58-.046.665.285.082.313.192.743-9.512 4.17m-5.348 4.168-.008-.047c.024-.005.082-.019.222-.06 2.392-1.148 11.772-4.352 11.88-4.389 3.379-1.137 3.381-1.14 3.515-.74.138.41.139.41-5.116 2.328-2.802 1.023-5.705 2.057-7.061 2.515-2.471.835-3.169 1.07-3.442 1.07-.109 0-.15-.036-.208-.087a.37.37 0 0 1-.118-.35c.011-.049.13-.131.336-.24m7.541-18.493c-.027.01-2.168.86-3.183.86-.261 0-.448-.056-.506-.197-.067-.165-.059-.398.36-.572l.004-.001c.034-.014 3.408-1.357 3.689-.665.068.165.059.398-.364.574"/>
  <path fill="#fab264"
        d="M590.637 30.709c-2.908.978-5.923 1.967-7.332 2.403-2.361.731-3.236 1.002-3.59 1.002-.21 0-.239-.093-.285-.243-.129-.414-.129-.414 5.469-2.296 2.928-.984 6.056-2.01 7.44-2.441 3.49-1.078 3.492-1.078 3.616-.675.129.416.129.416-5.318 2.25m-3.338 2.388c.921-.32 2.882-.959 3.213-.701a.38.38 0 0 1 .141.346c-.032.235-.238.32-.39.38-.028.012-2.515.938-3.426.938-.129 0-.226-.018-.28-.06-.021-.017-.031-.044-.048-.065-.738.27-2.098.726-2.844.726-.26 0-.445-.055-.5-.193q-.147-.363.377-.58c.034-.013 3.198-1.261 3.757-.791m.706 14.473h.004c2.216-.762 2.389-.811 2.529-.399.114.325.161.46-2.222 1.302-1.338.463-1.937.666-2.232.666-.197 0-.259-.09-.316-.254-.115-.325-.161-.459 2.237-1.314m-14.108-10.654c-1.484.453-2.102.642-2.384.642-.201 0-.232-.096-.284-.261-.134-.422-.148-.467 5.615-2.36l.009-.002c2.479-.756 2.483-.758 2.608-.359.13.413.15.477-5.564 2.34m-8.764 6.931c.035-.015 3.507-1.315 3.952-.97a.39.39 0 0 1 .141.347c-.032.236-.242.32-.408.388-.03.013-2.497 1.006-3.582 1.006-.252 0-.429-.054-.484-.185-.15-.363.247-.53.377-.585zm-8.847 7.652c2.495-.835 2.595-.85 2.732-.443.115.34.159.466-2.428 1.36-1.504.502-2.148.71-2.45.71-.206 0-.256-.095-.311-.26-.115-.336-.158-.463 2.454-1.365zm-6.759 10.184c.369-.297.75-.605 1.374-.91.358-.22.737-.444 1.112-.644l.014-.008a15 15 0 0 1 1.743-.71.367.367 0 0 1 .31.66q-.529.316-1.059.642c-1.223.747-2.488 1.52-3.94 2.187a.37.37 0 0 1-.477-.162.367.367 0 0 1 .137-.485c.307-.184.54-.37.786-.57m-28.55 9.916a462 462 0 0 1 2.392-.72c2.864-.858 5.827-1.746 8.686-2.815l1.382-.486.009-.003c2.775-.916 2.781-.92 2.924-.545.131.339-.207.49-.375.566-.257.11-.775.315-1.464.577-.686.255-1.54.572-2.477.918-3.461 1.244-7.176 2.494-10.9 3.219a.36.36 0 0 1-.424-.271.365.365 0 0 1 .247-.44m1.488-11.505c-.252 0-.426-.052-.479-.18-.149-.364.256-.531.408-.593l.003-.002c.043-.016 4.28-1.698 4.573-.976.15.365-.255.534-.411.599-.036.014-2.913 1.152-4.094 1.152"/>
  <path fill="#fab264"
        d="M425.906 92.379c.789-.328 1.576-.638 2.365-.955-.012-.016-.031-.024-.04-.041a.37.37 0 0 1 .097-.473c.082-.062.199-.112.294-.169-.694.25-1.419.47-2.11.527l-.03.001a.367.367 0 0 1-.134-.708 331 331 0 0 1 8.847-3.323.5.5 0 0 1-.089-.125c-.089-.168.02-.432.18-.534.271-.174 1.221-.599 2.081-.932 2.382-.868 2.41-.819 2.569-.487.069.14-.016.329-.135.451 7.527-2.606 14.899-4.921 21.969-7.108l13.06-4.409c2.603-.887 5.18-1.946 7.672-2.971q1.071-.442 2.129-.872a70 70 0 0 1 2.319-.886l.28-.09c.976-.314 1.897-.611 2.682-.675a.36.36 0 0 1 .388.29c.013.062-.011.118-.028.175a613 613 0 0 1 7.442-2.356c3.099-.963 6.034-1.878 8.972-2.853-.004-.012-.01-.017-.014-.03-.041-.13-.073-.224.335-.436l-.006-.038c.023-.004.069-.014.155-.036 1.253-.591 5.457-2.004 19.026-6.561l32.14-10.844c2.613-.822 2.615-.824 2.743-.424.135.415.155.478-5.895 2.498l-5.987 2.024c2.607-.816 2.629-.782 2.744-.425.053.162.086.263-.325.472v.002l-.006.001c-.672.342-2.511.971-7.312 2.616-2.135.731-4.398 1.5-6.345 2.158.175.017.302.067.345.17.149.363-.25.529-.402.592-.269.111-3.116 1.153-4.064 1.153-.121 0-.211-.017-.261-.055a.38.38 0 0 1-.143-.347l.004-.006c-1.32.417-1.892.589-2.158.588-.201 0-.233-.095-.285-.255-.104-.316-.139-.425 2.606-1.39l-18.673 6.311c-.003.054.005.106-.02.154.055.03.11.062.145.119a.364.364 0 0 1-.059.452c-.256.247-1.221.69-5.106 2.046-1.34.472-2.849.987-4.389 1.511l-1.336.442c-8.541 2.83-17.372 5.755-26.421 9.223q-1.26.434-2.531.866l-8.108 2.756c-1.204.409-2.42.822-3.67 1.244-10.823 3.291-22.309 7.194-37.242 12.655a.367.367 0 0 1-.265-.683"/>
  <path fill="#fab264"
        d="M495.789 70.207a.37.37 0 0 1-.416-.235.365.365 0 0 1 .172-.446c.363-.195 1.817-.705 3.013-1.086l.005-.001c.327-.097.646-.207.964-.317.661-.228 1.345-.463 2.071-.571a.367.367 0 0 1 .202.697c-2.057.92-4.022 1.56-6.011 1.959m-5.845-4.152a.375.375 0 0 1 .389.291.37.37 0 0 1-.244.421c-.937.312-1.873.57-2.868.843l-1.053.293-.014.003c-.569.135-.943.217-1.19.217-.238 0-.358-.077-.423-.26q-.123-.336.34-.56c1.619-.707 3.181-1.092 5.063-1.248m-7.105 3.067a.366.366 0 0 1-.11.481c-2.791 1.95-7.731 3.87-11.745 4.565a.37.37 0 0 1-.412-.249.366.366 0 0 1 .189-.44c1.476-.716 3.081-1.3 4.635-1.867 1.394-.507 2.834-1.032 4.15-1.642a.35.35 0 0 1 .364.045c.593-.2 1.959-.819 2.459-1.045a.366.366 0 0 1 .47.152m-7.117.915c-.701.318-3.605 1.369-4.531 1.369-.112 0-.196-.016-.243-.05a.38.38 0 0 1-.148-.349c.034-.244.254-.329.48-.417.462-.192 4.539-1.844 4.833-1.159.154.358-.242.538-.391.606m-4.454 4.665c.118.357.157.478-3.1 1.573h-.002c-2 .655-2.784.9-3.122.9-.217 0-.251-.1-.304-.26-.116-.35-.159-.482 3.12-1.585 3.266-1.06 3.272-1.044 3.408-.628m.488 13.258c.366-.153 4.68-1.766 5.122-1.421.105.08.161.215.145.345-.01.078-.062.12-.104.172 2.643-1.028 6.44-2.418 11.688-4.284l1.703-.608c5.068-1.715 8.678-3.374 11.041-5.08l.292-.198q.458-.31.922-.61a.38.38 0 0 1 .342-.03.37.37 0 0 1 .215.269c.398 2.063-3.911 3.793-9.583 5.84-.74.268-1.437.52-2.052.754l-.01.003q-.939.332-1.881.654l-.396.138c-6.153 2.158-12.515 4.389-16.781 5.998a.367.367 0 0 1-.396-.593c.213-.228.871-.582 2.047-1.094-.882.286-1.786.53-2.315.53-.237 0-.399-.048-.448-.165-.154-.367.253-.537.449-.62m-8.827-11.294c-.12 0-.208-.017-.256-.054a.38.38 0 0 1-.138-.347c.034-.242.253-.329.483-.42.372-.149 4.746-1.704 5.2-1.347a.38.38 0 0 1 .137.348c-.035.242-.251.327-.477.416-.334.133-3.89 1.404-4.949 1.404m-33.56 16.411a233 233 0 0 1 9.891-3.795c-.003-.007-.011-.009-.014-.016a.37.37 0 0 1 .11-.448c.265-.201 1.298-.643 2.136-.958.643-.239 1.867-.67 2.853-.881a.37.37 0 0 1 .425.241c.015.048-.002.094-.006.142 5.88-1.984 11.679-3.757 17.259-5.407l4.03-1.31c1.181-.384 2.236-.731 3.135-1.032a.365.365 0 0 1 .46.225.366.366 0 0 1-.213.466c-1.356.519-2.654 1.01-3.91 1.477-1.285.471-2.528.926-3.841 1.383-11.184 3.422-21.563 6.915-31.742 10.679l-3.153 1.072a.367.367 0 0 1-.263-.683c.78-.337 1.75-.731 2.843-1.155m33.372-1.908c3.392-1.134 3.388-1.131 3.525-.727.143.415.172.502-7.815 3.313l-.006.002c-2.176.729-2.983.998-3.317.998-.198 0-.231-.094-.282-.243-.147-.425-.168-.49 7.895-3.343m-38.558-6.376c.767-.28 2.115-.745 3.768-1.305a173 173 0 0 0 4.45-1.524c1.97-.693 4.006-1.41 6.089-2.04a261 261 0 0 1 3.908-1.283c.99-.385 2.032-.673 3.039-.953.697-.194 1.396-.388 2.083-.613a.36.36 0 0 1 .459.225.366.366 0 0 1-.215.465c-4.711 1.797-9.324 3.312-14.206 4.914l-1.282.424c.133.023.18.099.232.216.031.075.11.335-.233.524-.354.192-1.71.702-3.026 1.138-2.238.717-3.076.975-3.428.975-.21 0-.249-.091-.307-.231-.032-.076-.109-.338.246-.526l.042-.02c-.76.233-1.321.4-1.665.495-.205.056-.382.105-.525.105-.164 0-.282-.064-.342-.252-.114-.36.103-.44.913-.734"/>
  <path fill="#fab264"
        d="M424.832 86.933c.764-.28 2.11-.754 3.733-1.31l.09-.03c3.107-1.034 6.319-2.102 9.456-3.315a164 164 0 0 1 3.515-1.204c1.798-.605 3.698-1.227 5.427-1.593a.36.36 0 0 1 .423.255 736 736 0 0 1 12.15-3.891c.923-.303 1.828-.606 2.73-.907l4.88-1.624c5.018-1.59 5.018-1.59 5.162-1.2.124.346-.221.486-.41.563-.354.139-1.152.43-2.233.81a561 561 0 0 1-3.931 1.348c-.709.247-1.452.496-2.203.75l-.448.152a959 959 0 0 1-10.906 3.539c-7.353 2.354-14.955 4.789-22.512 7.583l-.146.047c.438-.05.752-.022.819.145.147.368-.261.534-.435.605h-.003c-.348.139-4.256 1.526-5.368 1.526q-.184 0-.257-.054a.39.39 0 0 1-.137-.35c.029-.191.187-.28.373-.36-.058.01-.136.039-.185.039-.159 0-.272-.065-.334-.252-.045-.14-.02-.232.051-.317a.3.3 0 0 1-.212-.217c-.116-.357.08-.43.911-.738m8.751 12.236c3.537-1.208 3.555-1.187 3.695-.771.123.353.169.485-3.372 1.734l-.002.001c-2.254.772-3.1 1.052-3.455 1.052-.212 0-.247-.101-.3-.256-.126-.357-.171-.49 3.434-1.76m63.492-20.915c-3.146 1.556-6.401 3.166-10.139 4.227-.676.232-1.269.435-1.782.6-1.876.635-2.586.874-2.887.874-.184 0-.215-.09-.267-.233-.134-.385-.134-.385 3.555-1.735l.524-.192q.483-.175 1.028-.38c2.242-.785 4.104-1.453 5.958-2.304 1.183-.566 2.323-1.16 3.426-1.736 2.77-1.446 5.388-2.812 8.59-3.721 1.694-.474 3.372-.935 5.035-1.391 6.548-1.798 12.733-3.497 18.83-5.672l.001-.001 7.467-2.642q1.466-.529 3.059-1.11l.851-.31c.655-.24 1.324-.482 1.971-.723 6.124-2.924 13.46-6.146 21.431-7.87 1-.226 2.081-.613 3.126-.987.467-.166.932-.332 1.387-.485l2.445-.834a425 425 0 0 1 6.864-2.254c.166-.236.886-.519 3.51-1.464 2.374-.76 2.373-.76 2.504-.388.113.32.122.36-1.208.879 3.707-1.314 7.446-2.64 11.04-3.916l-.017-.013a.37.37 0 0 1-.116-.349c.01-.05.129-.133.336-.241l-.008-.046c.023-.004.08-.018.213-.056 2.378-1.14 11.79-4.32 11.898-4.356 3.388-1.129 3.383-1.129 3.517-.73.027.082.047.147.024.214a.42.42 0 0 1 .149.258c.042.327.068.543-3.175 1.768-2.663 1.014-19.254 6.894-33.753 11.992l-1.651.584c-4.859 1.88-9.61 2.936-14.636 4.053-2.663.673-5.009 1.762-7.148 2.838a.366.366 0 0 1-.49-.16c-.032-.062-.021-.13-.016-.193-.342.166-.69.33-1.027.496-2.138 1.049-4.351 2.135-6.785 2.9l-10.603 3.826c-5.841 2.148-11.556 3.69-17.608 5.325-1.546.417-3.11.839-4.689 1.275-1.9.572-3.866 1.162-5.769 2.033-1.703.736-3.361 1.556-4.965 2.35m-70.178 18.298a.365.365 0 0 0 .433.257c.63-.145 1.491-.38 2.491-.682l.166-.055a49 49 0 0 0-2.571 1.116.37.37 0 0 0-.181.47.37.37 0 0 0 .459.206l1.516-.53c-.16.114-.177.225-.112.408l.005.01a45 45 0 0 0-1.34.503c-.253.102-.475.191-.509.434a.38.38 0 0 0 .141.347q.068.05.236.05c.232 0 .6-.07 1.031-.175-1.191.47-1.161.564-1.072.82.045.13.077.22.279.22.43 0 1.645-.407 5.459-1.682 1.013-.335 2.528-.856 4.24-1.456 1.304-.47 2.61-.93 3.919-1.39 3.475-1.223 7.07-2.489 10.517-3.933a.365.365 0 0 0 .012-.668c3.297-1.138 6.585-2.297 9.736-3.486a.366.366 0 0 0-.209-.7c-.896.2-1.837.531-2.75.853-.842.296-1.714.603-2.519.793l-.029.008c-1.077.348-2.758.898-4.699 1.545-3.443 1.17-7.314 2.513-11.136 4.014 0-.032.017-.06.008-.092a.36.36 0 0 0-.393-.269c-.215.024-.416.082-.619.136 5.932-2.14 11.836-4.11 17.595-6.03 2.575-.858 5.122-1.707 7.628-2.557l2.522-.87c-.203.15-.172.246-.129.376.052.153.083.248.285.248.331 0 1.121-.258 3.211-.939 7.705-2.656 7.676-2.743 7.538-3.154-.042-.126-.082-.206-.2-.233q4.29-1.488 8.18-2.854l1.114-.393a252 252 0 0 0 1.582-.56q1.383-.52 2.737-1.01l.876-.316q.912-.329 1.817-.652c1.814-.698 3.574-1.307 5.276-1.896.875-.316 1.745-.635 2.611-.966l.114-.044a170 170 0 0 0 2.472-.956q.974-.37 1.878-.729l.423-.169q.683-.272 1.334-.539a.36.36 0 0 0 .226-.306l.026-.01c7.053-2.49 9.673-3.414 10.61-3.86.084-.025.129-.035.152-.04l-.006-.034c.401-.21.369-.304.321-.444-.13-.393-.136-.392-3.801.796a593 593 0 0 0-9.138 3.143l-2.577.918c-1.039.4-2.068.79-3.103 1.173-3.105 1.244-6.429 2.316-9.645 3.351-1.655.534-3.306 1.065-4.933 1.621-.974.321-1.983.655-3.017 1.005a1963 1963 0 0 0-13.686 4.68l-4.507 1.56-4.976 1.663c-9.279 3.097-18.875 6.3-28.512 9.95-1.528.524-3.066 1.046-4.573 1.56a.365.365 0 0 0-.234.445m6.667.571a.33.33 0 0 0 .006-.28c-.017-.042-.056-.07-.1-.095 1.238-.427 2.537-.888 3.825-1.377.001.042-.018.081-.002.122.03.08.087.137.154.177a58 58 0 0 0-2.577.985zm10.165-1.771h.003c.734-.201 1.459-.429 2.172-.652a58 58 0 0 1 2.097-.63c1.121-.299 2.295-.622 3.299-.958a.367.367 0 0 1 .235.694c-2.481.855-5.231 1.611-7.612 2.253a.363.363 0 0 1-.449-.257.366.366 0 0 1 .255-.45"/>
  <path fill="#fff"
        d="M455.41 63.253s11.339-.236 10.621 9.892-20.143 12.09-21.242 5.496c-1.099-6.595-9.523-4.763-9.523-4.763s7.691-11.357 20.144-10.625"/>
  <path fill="#00395e"
        d="M506.715 184.695c23.648.395 47.302.336 70.953.308l-.505 28.059-6.827 158.414-18.481 1.454-6.309-139.847h-10.048l-21.434 142.755L496 371.061l10.088-159.96z"/>
  <path fill="#fff" d="M506.273 82.874c20.311-16.359 51.574-15.127 71.394 0v120.614h-71.394z"/>
  <path fill="#cbdadf"
        d="M568.319 97.958c-4.668-5.61-12.182-3.835-18.537-3.153-7.711.83-15.43 2.188-23.213 1.903-2.443-.09-4.918-.367-6.804 1.504-2.699 2.679-3.917 6.727-5.668 10.019-1.991 3.744-4.618 4.535-7.824 7.05v88.211h71.394v-90.131c-4.575-3.99-5.521-10.804-9.348-15.403"/>
  <path fill="#fbb57a"
        d="M549.738 59.422c-6.953.034-13.905.145-20.857.276-.316 5.125-.822 10.49-1.638 14.503-.116.566 13.782 6.027 25.533-.316-2.281-6.708-2.845-14.312-2.845-14.312z"/>
  <path fill="#e78052"
        d="M549.738 59.422c-6.954.034-13.907.145-20.859.276a178 178 0 0 1-.527 6.673c2.247 1.779 4.328 3.835 7.002 4.92 3.401 1.38 7.258 1.123 10.586-.32 1.875-.815 3.588-1.895 5.223-3.1-.954-4.551-1.233-8.298-1.233-8.298z"/>
  <path fill="#5e3b22" d="M515.597 97.25h52l11.621 42.403v159.719h-75.241V139.653z"/>
  <path fill="#754c29" d="m515.597 97.25 46.696 6.365 9.605 36.376-1.715 149.961-60.377 2.746-5.829-153.045z"/>
  <path fill="#5e3b22"
        d="M561.26 105.612h3.753a1.48 1.48 0 0 0 1.48-1.48V76.047a25.2 25.2 0 0 0-6.712-2.414v30.499c0 .817.662 1.48 1.479 1.48"/>
  <path fill="#000" d="M563.133 103.784a2.15 2.15 0 1 0-.001-4.3 2.15 2.15 0 0 0 .001 4.3"/>
  <path fill="#5e3b22"
        d="M521.912 105.612h-3.753a1.48 1.48 0 0 1-1.479-1.48V76.047a25.2 25.2 0 0 1 6.712-2.414v30.499a1.48 1.48 0 0 1-1.48 1.48"/>
  <path fill="#000" d="M520.04 103.784a2.15 2.15 0 1 0-.001-4.3 2.15 2.15 0 0 0 .001 4.3"/>
  <path fill="#603813" d="M519.742 174.631h45.414v-32.24c-16.016 2.572-31.27 2.913-45.414 0z"/>
  <path fill="#482a0e" d="m524.999 170.868 40.161 3.765-2.086-28.945c-16.016 2.572-25.555 3.635-39.699.722z"/>
  <path fill="#fbb03b" d="M579.358 192.219h-24.256v23.18h24.256zm-51.329 0h-24.256v23.18h24.256z"/>
  <path fill="#bc842c"
        d="M533.417 214.558h16.396a4.485 4.485 0 0 0 4.472-4.473v-16.588a4.486 4.486 0 0 0-4.472-4.474h-16.396a4.485 4.485 0 0 0-4.472 4.473v16.589a4.485 4.485 0 0 0 4.472 4.473"/>
  <path fill="#fbb03b"
        d="M534.71 210.523h13.805a3.777 3.777 0 0 0 3.765-3.767v-13.967a3.777 3.777 0 0 0-3.765-3.766H534.71a3.777 3.777 0 0 0-3.765 3.766v13.967a3.777 3.777 0 0 0 3.765 3.767"/>
  <path fill="#bc842c" d="M580.275 185.461h-77.314v8.124h77.314z"/>
  <path fill="#bcbec0"
        d="M581.354 193.566c-.183 3.729-.412 7.59-.655 11.677l-.093 1.576a.914.914 0 0 1-.914.861h-.63v15.152l.549.456-.456 3.006h-1.595l-.457-3.006.549-.456V207.68h-.63a.914.914 0 0 1-.913-.861l-.092-1.537c-.243-4.102-.473-7.975-.657-11.716a.92.92 0 0 1 .267-.693 3.87 3.87 0 0 1 3.087-1.114 3.87 3.87 0 0 1 2.372 1.114.9.9 0 0 1 .268.693"/>
  <path fill="#4d4d4d"
        d="M581.353 193.566c-.183 3.729-.412 7.59-.654 11.677l-.094 1.576a.914.914 0 0 1-.913.861h-2.67a.914.914 0 0 1-.913-.861l-.092-1.537c-.243-4.102-.473-7.975-.657-11.716a.92.92 0 0 1 .267-.693 3.87 3.87 0 0 1 3.087-1.114 3.87 3.87 0 0 1 2.372 1.114c.183.183.28.434.267.693"/>
  <path fill="#858585"
        d="M498.492 195.746a2.56 2.56 0 0 0 2.324 1.503h.702a2.56 2.56 0 0 0 2.325-1.503h5.842c6.346-.234 10.522 11.427 10.522 11.427h-2.405s-2.839-5.948-5.211-6.015-2.906 2.306-2.906 2.306h-5.842a2.56 2.56 0 0 0-2.325-1.504h-.702c-1.03 0-1.921.62-2.324 1.504h-4.64v-7.718z"/>
  <path fill="#fff" d="M554.422 194.284h6.382a.355.355 0 0 0 0-.709h-5.673v-2.837a.355.355 0 0 0-.709 0z"/>
  <path fill="#f7931e"
        d="M561.079 209.248h7.8c3.12 0 5.673-2.553 5.673-5.674v-8.04c0-3.121-2.553-5.675-5.673-5.675h-7.8c-3.12 0-5.673 2.554-5.673 5.675v8.04c0 3.121 2.553 5.674 5.673 5.674"/>
  <path fill="#fff"
        d="M564.978 205.631a6.07 6.07 0 0 0 6.071-6.073 6.072 6.072 0 1 0-12.143 0 6.07 6.07 0 0 0 6.072 6.073"/>
  <path fill="#e78052"
        d="M555.019 42.686c-.764 3.686.442 7.077 2.693 7.574s4.697-2.088 5.462-5.774-.441-7.076-2.693-7.573c-2.251-.497-4.697 2.088-5.462 5.773m-39.057 1.774c.747 3.69 3.179 6.288 5.432 5.803s3.476-3.87 2.729-7.56c-.747-3.688-3.178-6.286-5.432-5.8-2.253.484-3.476 3.869-2.729 7.558"/>
  <path fill="#fbb57a"
        d="M539.571 14.96c18.034 0 19.121 17.452 19.186 19.556.006.128.003.251-.005.378-.109 1.943-1.161 19.908-2.897 23.34-1.44 2.845-11.704 12.15-16.272 12.15s-14.857-9.305-16.296-12.15c-1.737-3.432-2.789-21.397-2.897-23.34a5 5 0 0 1-.006-.378c.066-2.104 1.154-19.555 19.187-19.555"/>
  <path fill="#e78052"
        d="M525.255 28.885c.503-1.29.544-3.042 1.424-4.143.843-1.054 2.258-.92 3.44-.73 2.93.472 14.282 1.11 17.076.991 1.683-.072 4.035-.234 5.401 1.01.603.549.947 1.36 1.335 2.065.748 1.357 1.773 2.45 2.755 3.627q1.05 1.264 2.061 2.556c-.145-2.97-1.73-19.3-19.176-19.3-18.034 0-19.122 17.45-19.187 19.555q-.004.16.005.318c1.932-1.697 3.92-3.52 4.866-5.95"/>
  <path fill="#231f20"
        d="M548.013 38.284c-1.262-.146-2.37 1.247-2.474 3.11s.834 3.491 2.097 3.637 2.369-1.246 2.475-3.11c.102-1.863-.836-3.49-2.098-3.637m-16.515 0c-1.262-.146-2.37 1.247-2.474 3.11s.833 3.491 2.096 3.637c1.262.146 2.37-1.246 2.475-3.11s-.835-3.49-2.097-3.637"/>
  <path fill="#3c2415"
        d="M524.485 33.538c.306-.145 5.296-3.099 11.996-1.289.464.124.934 2.672.569 2.705q-.16.013-.326-.027c-6.22-1.568-11.19.13-11.298.184-.511.194-1.16-.003-1.424-.44-.265-.436-.039-.943.483-1.133m30.163-.492c-.306-.145-5.294-3.099-11.996-1.29-.463.124-.934 2.674-.569 2.706q.16.013.325-.027c6.22-1.567 11.192.13 11.299.183.512.194 1.161-.002 1.425-.439.265-.437.038-.943-.484-1.133"/>
  <path fill="#f18873"
        d="M539.64 48.387c-.314.758-.296.622-.07 1.213.156.408.521.803.738 1.14.478.74-1.571.494-1.939-.073-.307-.474-1.044-1.26-1.201-1.884-.187-.744.174-1.013.53-1.446 1.02-1.242 1.674-2.82 1.987-4.697.124-.746 1.021 3.164-.045 5.747"/>
  <path fill="#652c2d"
        d="M532.656 55.648s3.809 6.296 7.302 6.296 7.196-6.297 7.196-6.297c-4.949-.755-9.784-.762-14.498 0"/>
  <path fill="#b23c3e"
        d="M540.019 59.047c-1.371 0-3.402.522-4.042.773 1.213 1.167 2.622 2.124 3.983 2.124 1.373 0 2.778-.975 3.979-2.157-.943-.327-2.549-.74-3.92-.74"/>
  <path fill="#fff"
        d="M545.885 57.521c.781-1.049 1.269-1.873 1.269-1.873-4.949-.756-9.784-.763-14.498 0 0 0 .459.752 1.194 1.732 3.99.606 8.04.64 12.035.141"/>
  <path fill="#5e3b22"
        d="M550.031 20.824s5.758 3.394 4.935 7.212l2.262 2.333 1.235 6.787s5.552-13.575 4.524-16.756-8.799-8.658-8.799-8.658z"/>
  <path fill="#472c1a"
        d="M562.986 20.394c-.33-1.024-1.362-2.286-2.607-3.527 2.455 5.183-.008 10.876-2.66 16.198l.743 4.085s5.553-13.574 4.524-16.756"/>
  <path fill="#5e3b22"
        d="M528.77 21.457s-5.758 3.393-4.936 7.211l-2.262 2.333-1.234 6.787s-5.552-13.574-4.524-16.755c1.028-3.182 8.798-8.658 8.798-8.658z"/>
  <path fill="#804921"
        d="M518.802 29.698c.137-3.568.108-7.565 2.525-10.418 1.088-1.283 2.562-2.342 3.157-3.99.261-.724.341-1.524.397-2.329l-.269-.586s-7.77 5.476-8.798 8.657c-.667 2.066 1.439 8.511 2.998 12.78a53 53 0 0 1-.01-4.114"/>
  <path fill="#5e3b22"
        d="m528.773 21.457-3.368-7.355c-.216 1.314-.591 2.53-1.668 3.74-1.242 1.392-2.501 2.548-3.174 4.361-.739 1.989-.87 4.065-.942 6.172-.095 2.785.005 5.52.249 8.229.289.74.471 1.185.471 1.185l1.235-6.787 2.262-2.333c-.823-3.818 4.935-7.212 4.935-7.212"/>
  <path fill="#5e3b22"
        d="M559.358 12.93C559.244 12.876 553.536 0 536.256 0s-17.74 10.12-17.74 15.494c0 10.462 38.187 8.075 38.187 8.075 2.348-4.11 3.084-7.651 2.655-10.639"/>
  <path fill="#5e3b22"
        d="M559.358 12.935c-.05-.023-1.168-2.493-3.851-5.268-7.637-4.442-17.674-7.69-26.062-3.718-5.81 2.75-8.737 8.396-9.672 14.527 6.598 6.994 36.93 5.098 36.93 5.098 2.348-4.11 3.083-7.651 2.655-10.639"/>
  <path fill="#553116"
        d="M559.357 12.93c-.031-.015-.458-.934-1.388-2.274.277 4.59-.763 9.436-4.977 11.311-4.163 1.853-19.092.814-21.838.594-2.163-.173-4.178-.784-6.248-1.25 10.87 3.564 31.796 2.257 31.796 2.257 2.347-4.11 3.083-7.65 2.655-10.638"/>
  <path fill="#804921"
        d="M529.128 3.217c7.612-3.604 16.505-1.474 23.893 2.207C549.387 2.574 543.981 0 536.256 0c-17.28 0-17.74 10.12-17.74 15.494 0 .787.22 1.5.62 2.147 1.091-6.117 4.175-11.67 9.992-14.424"/>
  <path fill="#1a1a1a"
        d="m555.408 207.475 1.304-2.397a3.243 3.243 0 0 0-1.294-4.386l-5.058-2.754a3.24 3.24 0 0 0-4.384 1.294l-1.304 2.397a3.243 3.243 0 0 0 1.294 4.386l5.058 2.754a3.24 3.24 0 0 0 4.384-1.294m10.919-17.178s.207 2.721 5.884 4.124c5.678 1.404 12.257 1.15 14.668 4.61l-4.7 8.64s-8.098-2.875-11.905-4.333c-2.41-.924-3.349-.371-3.715.16a.414.414 0 0 1-.666.04c-.928-1.126-4.2-3.982-5.79-2.363-2.062 2.098 6.224-10.878 6.224-10.878"/>
  <path fill="#1a1a1a"
        d="m556.362 178.458-9.751 17.924a3.28 3.28 0 0 0 1.312 4.448l3.273 1.782 4.733 2.576 1.394.759a1.105 1.105 0 0 0 1.5-.443l10.351-19.024c.78-1.434.585-3.062-.433-3.616a1.1 1.1 0 0 1-.575-.973 3.24 3.24 0 0 0-1.685-2.865l-4.234-2.305a4.35 4.35 0 0 0-5.885 1.737"/>
  <path fill="#f5a22d"
        d="m553.258 184.162-7.079 13.012c-.629 1.155.151 2.793 1.742 3.658l3.272 1.782 4.733 2.577 1.394.759c.537.292 1.144.213 1.356-.177l7.514-13.811c.566-1.042.197-2.347-.822-2.902-.356-.194-.606-.514-.65-.833-.128-.909-.83-1.866-1.908-2.453l-4.235-2.305c-2.096-1.141-4.489-.829-5.317.693"/>
  <path fill="#fdb735"
        d="m559.082 179.94-9.752 17.924c-.866 1.591-.79 3.304.168 3.826l1.973 1.073 2.852 1.553.841.457c.323.176.822-.116 1.114-.653l10.35-19.024c.78-1.435.917-2.882.303-3.216-.215-.117-.306-.419-.237-.789.197-1.05-.04-1.969-.69-2.323l-2.552-1.39c-1.263-.687-3.23.465-4.37 2.562"/>
  <path fill="#1a1a1a"
        d="m589.821 197.02-.639-.348c-1.018-.554-2.395-.009-3.06 1.213l-.491.904-7.228 13.284-.491.903c-.665 1.222-.375 2.675.643 3.23l.639.348c-.181 1.183.509 2.497 1.783 3.191l.487 2.45c.349 1.756 2.437 2.645 3.853 1.55.258-.2.475-.449.636-.745l1.316-2.418 8.773-16.126 1.316-2.419c.724-1.33.038-3.114-1.524-3.964l-2.366-1.288c-1.274-.694-2.752-.559-3.647.235"/>
  <path fill="#f5a22d"
        d="m583.201 213.23-4.989-.802-.299.551c-1.831 3.365 1.791 6.075 3.065 6.769l.487 2.45c.349 1.755 2.437 2.645 3.853 1.55.258-.2.475-.449.636-.745l11.405-20.963c.724-1.33.038-3.114-1.524-3.965l-2.366-1.287a3.6 3.6 0 0 0-1.136-.39z"/>
  <path fill="#fdb735"
        d="m583.201 213.23-4.989-.802-.299.551c-1.831 3.365 1.791 6.075 3.065 6.769l.487 2.45c.349 1.755 15.932-23.272 14.37-24.122l-2.366-1.288a3.7 3.7 0 0 0-1.136-.39z"/>
  <path fill="#1a1a1a"
        d="m561.627 181.119-1.738 3.196a.66.66 0 0 1-.891.262.66.66 0 0 1-.262-.891l1.738-3.195a.66.66 0 0 1 .89-.263.66.66 0 0 1 .263.891m1.774.96-1.739 3.196a.658.658 0 0 1-1.153-.628l1.738-3.195a.66.66 0 0 1 .891-.263.66.66 0 0 1 .263.89m1.773.97-1.738 3.195a.66.66 0 0 1-.891.263.66.66 0 0 1-.263-.891l1.739-3.195a.658.658 0 0 1 1.153.628"/>
  <path fill="#fbb57a"
        d="M575.91 82.008c16.621 10.693 28.878 55.725 27.845 72.12-1.033 16.397-18.918 37.182-18.918 37.182l-7.366-7.4 8.647-35.186-9.357-41.069s-10.772-13.92-.851-25.647"/>
  <path fill="#e78052"
        d="M575.91 82.008c4.843 3.116 9.312 9.158 13.193 16.548-3.28 6.686-5.199 13.961-5.31 21.487-.069 4.647.561 9.296 1.998 13.721.797 2.453 1.879 4.774 3.072 7.056 1.101 2.105 3.148 4.733 3.208 7.203.07 2.867-2.58 6.248-3.822 8.665-1.382 2.69-2.695 5.424-3.791 8.245-1.861 4.787-3.183 9.822-4.232 14.844-.406 1.942-.74 3.896-1.042 5.855l-1.714-1.722 8.647-35.186-9.357-41.069s-10.771-13.92-.85-25.647"/>
  <path fill="#e78052"
        d="M589.21 185.717c-2.532 3.443-4.374 5.587-4.374 5.587l-7.367-7.4.923-3.756c1.518.52 9.779 3.486 10.818 5.569"/>
  <path fill="#fff"
        d="M575.907 82.008c10.052 6.467 18.501 25.489 23.386 43.144-2.996.238-5.986.57-8.95 1.091-4.661.821-6.855.948-10.849 3.561l-6.195-22.293s-7.313-13.776 2.608-25.503m13.056 106.189c-.363.327-2.457 6.116-2.457 6.116s-.116.811-.316 2.121c-.834 5.462-4.503 17.567-5.969 17.742-1.818.216-1.294-1.575-1.294-1.575s-.464 1.677-2.554 1.831-1.334-3.1-1.334-3.1-1.315 3.377-3.541 2.074-.771-3.766-.771-3.766c-.165.006-1.86 3.214-3.72 2.115-2.307-1.364-.929-3.467-.929-3.467s-2.694 2.897-3.974-.592c-.929-2.537 2.536-11.925 2.536-11.925l12.149-12.849c2.321-2.018 14.583 3.106 12.174 5.275"/>
  <path fill="#cbdadf"
        d="m564.64 195.771.301-.318c.268 1.77.709 3.509 1.75 5.004 1.39 1.995 3.466 3.114 5.731 3.848 3.626 1.175 7.636 1.572 11.529 1.35-1.336 4.425-2.892 8.42-3.73 8.52-1.818.216-1.294-1.575-1.294-1.575s-.464 1.677-2.554 1.832c-2.09.154-1.334-3.101-1.334-3.101s-1.315 3.377-3.541 2.074-.771-3.765-.771-3.765c-.165.005-1.86 3.213-3.72 2.114-2.307-1.363-.929-3.467-.929-3.467s-2.694 2.898-3.974-.592c-.929-2.537 2.536-11.924 2.536-11.924"/>
</svg>
