<svg width="882" height="440" viewBox="0 0 882 440" fill="none" xmlns="http://www.w3.org/2000/svg">
  <path
    d="M270.81 125H261.544V102.453H270.607C272.721 102.453 274.378 102.958 275.576 103.969C276.784 104.969 277.388 106.339 277.388 108.078C277.388 109.255 277.008 110.312 276.247 111.25C275.487 112.177 274.55 112.734 273.435 112.922V113.188C274.956 113.344 276.18 113.922 277.107 114.922C278.044 115.911 278.513 117.141 278.513 118.609C278.513 120.599 277.831 122.161 276.466 123.297C275.102 124.432 273.216 125 270.81 125ZM265.044 105.422V112H269.201C270.742 112 271.909 111.724 272.701 111.172C273.503 110.609 273.904 109.792 273.904 108.719C273.904 107.677 273.539 106.87 272.81 106.297C272.091 105.714 271.086 105.422 269.794 105.422H265.044ZM265.044 122.031H270.107C271.68 122.031 272.878 121.719 273.701 121.094C274.524 120.469 274.935 119.557 274.935 118.359C274.935 117.182 274.508 116.292 273.654 115.688C272.8 115.073 271.55 114.766 269.904 114.766H265.044V122.031ZM288.838 118.969H288.588L284.87 125H281.182L286.823 116.531L281.135 107.984H285.057L288.713 113.984H288.979L292.604 107.984H296.338L290.729 116.391L296.401 125H292.541L288.838 118.969ZM306.335 125.328C303.835 125.328 301.872 124.542 300.445 122.969C299.018 121.396 298.304 119.234 298.304 116.484C298.304 113.745 299.018 111.589 300.445 110.016C301.882 108.443 303.846 107.656 306.335 107.656C308.815 107.656 310.768 108.443 312.195 110.016C313.632 111.589 314.351 113.745 314.351 116.484C314.351 119.234 313.638 121.396 312.21 122.969C310.783 124.542 308.825 125.328 306.335 125.328ZM306.335 122.344C307.783 122.344 308.903 121.833 309.695 120.812C310.497 119.781 310.898 118.339 310.898 116.484C310.898 114.641 310.497 113.208 309.695 112.188C308.903 111.156 307.783 110.641 306.335 110.641C304.877 110.641 303.752 111.151 302.96 112.172C302.169 113.193 301.773 114.63 301.773 116.484C301.773 118.349 302.169 119.792 302.96 120.812C303.752 121.833 304.877 122.344 306.335 122.344ZM328.895 122.172V110.812H322.911L322.442 117.219C322.265 119.354 321.822 120.917 321.114 121.906V122.172H328.895ZM319.145 129.453H316.02V122.172H317.395C318.52 121.484 319.176 119.776 319.364 117.047L319.989 107.984H332.239V122.172H334.895V129.453H331.786V125H319.145V129.453ZM353.171 110.562H349.467V114.969H352.796C354.796 114.969 355.796 114.229 355.796 112.75C355.796 112.062 355.572 111.526 355.124 111.141C354.686 110.755 354.035 110.562 353.171 110.562ZM353.03 117.438H349.467V122.422H353.452C354.441 122.422 355.197 122.208 355.717 121.781C356.238 121.354 356.499 120.74 356.499 119.938C356.499 118.271 355.342 117.438 353.03 117.438ZM346.139 125V107.984H353.811C355.467 107.984 356.759 108.375 357.686 109.156C358.624 109.927 359.092 110.979 359.092 112.312C359.092 113.177 358.816 113.953 358.264 114.641C357.723 115.328 357.04 115.75 356.217 115.906V116.172C357.311 116.297 358.191 116.724 358.858 117.453C359.525 118.172 359.858 119.052 359.858 120.094C359.858 121.594 359.327 122.786 358.264 123.672C357.202 124.557 355.744 125 353.889 125H346.139ZM376.743 117.219C376.66 118.5 376.514 119.604 376.305 120.531C376.097 121.448 375.79 122.271 375.384 123C374.988 123.719 374.462 124.26 373.805 124.625C373.149 124.99 372.363 125.172 371.446 125.172C370.998 125.172 370.613 125.109 370.29 124.984V121.844C370.571 121.927 370.873 121.969 371.196 121.969C371.977 121.969 372.55 121.547 372.915 120.703C373.29 119.859 373.535 118.641 373.649 117.047L374.243 107.984H385.962V125H382.602V110.812H377.212L376.743 117.219ZM394.006 125H390.678V107.984H394.006V119.688H394.271L402.115 107.984H405.443V125H402.115V113.234H401.865L394.006 125ZM423.815 125H420.456V117.891H420.19C419.159 118.797 417.805 119.25 416.128 119.25C414.149 119.25 412.602 118.688 411.487 117.562C410.383 116.427 409.831 114.911 409.831 113.016V107.984H413.19V112.797C413.19 113.849 413.477 114.677 414.05 115.281C414.633 115.885 415.466 116.188 416.55 116.188C418.216 116.188 419.518 115.708 420.456 114.75V107.984H423.815V125ZM439.719 125V117.625H431.875V125H428.516V107.984H431.875V114.797H439.719V107.984H443.062V125H439.719ZM463.169 125V107.984H466.528V125H463.169ZM454.247 116.016H451.138V122.172H454.247C455.268 122.172 456.08 121.891 456.685 121.328C457.299 120.766 457.606 120.021 457.606 119.094C457.606 118.167 457.299 117.422 456.685 116.859C456.07 116.297 455.258 116.016 454.247 116.016ZM447.778 125V107.984H451.138V113.203H454.497C456.466 113.203 458.034 113.734 459.2 114.797C460.367 115.859 460.95 117.292 460.95 119.094C460.95 120.896 460.367 122.333 459.2 123.406C458.034 124.469 456.466 125 454.497 125H447.778ZM474.557 125H471.229V107.984H474.557V119.688H474.822L482.666 107.984H485.994V125H482.666V113.234H482.416L474.557 125ZM472.932 100.281H475.729C475.729 101.146 475.984 101.88 476.494 102.484C477.005 103.089 477.671 103.391 478.494 103.391C479.338 103.391 480.01 103.089 480.51 102.484C481.02 101.88 481.281 101.146 481.291 100.281H484.072C484.072 101.812 483.557 103.078 482.526 104.078C481.494 105.068 480.151 105.562 478.494 105.562C476.838 105.562 475.494 105.068 474.463 104.078C473.442 103.078 472.932 101.812 472.932 100.281ZM503.129 117.562H502.363V125H499.004V107.984H502.363V114.891H503.113L509.254 107.984H513.207L505.879 115.891L513.52 125H509.332L503.129 117.562ZM521.689 122.453C522.949 122.453 523.996 122.099 524.829 121.391C525.673 120.682 526.095 119.797 526.095 118.734V117.312L521.939 117.578C520.772 117.651 519.913 117.891 519.361 118.297C518.809 118.703 518.533 119.281 518.533 120.031C518.533 120.781 518.824 121.375 519.408 121.812C519.991 122.24 520.751 122.453 521.689 122.453ZM520.829 125.281C519.163 125.281 517.798 124.818 516.736 123.891C515.684 122.953 515.158 121.719 515.158 120.188C515.158 118.667 515.704 117.474 516.798 116.609C517.892 115.734 519.454 115.234 521.486 115.109L526.095 114.844V113.375C526.095 112.469 525.798 111.776 525.204 111.297C524.611 110.807 523.746 110.562 522.611 110.562C521.673 110.562 520.892 110.729 520.267 111.062C519.652 111.385 519.251 111.849 519.064 112.453H515.814C515.98 110.995 516.694 109.833 517.954 108.969C519.225 108.094 520.829 107.656 522.767 107.656C524.892 107.656 526.533 108.161 527.689 109.172C528.855 110.172 529.439 111.573 529.439 113.375V125H526.204V122.609H525.939C525.428 123.464 524.725 124.125 523.829 124.594C522.944 125.052 521.944 125.281 520.829 125.281ZM537.92 120.875C538.733 121.854 539.879 122.344 541.358 122.344C542.837 122.344 543.978 121.854 544.78 120.875C545.592 119.896 545.998 118.51 545.998 116.719C545.998 115.01 545.592 113.688 544.78 112.75C543.978 111.812 542.837 111.344 541.358 111.344C539.879 111.344 538.733 111.812 537.92 112.75C537.118 113.688 536.717 115.01 536.717 116.719C536.717 118.51 537.118 119.896 537.92 120.875ZM535.998 111.641H536.264C536.795 110.651 537.54 109.875 538.498 109.312C539.457 108.74 540.618 108.453 541.983 108.453C544.233 108.453 546.04 109.193 547.405 110.672C548.78 112.141 549.467 114.141 549.467 116.672C549.467 119.359 548.743 121.474 547.295 123.016C545.858 124.557 543.889 125.328 541.389 125.328C538.774 125.328 536.764 124.474 535.358 122.766C533.962 121.057 533.264 118.505 533.264 115.109C533.264 112.995 533.41 111.177 533.702 109.656C534.004 108.125 534.493 106.802 535.17 105.688C535.858 104.573 536.764 103.729 537.889 103.156C539.024 102.583 540.41 102.266 542.045 102.203L543.905 102.125C544.696 102.083 545.462 101.995 546.202 101.859C546.941 101.724 547.478 101.604 547.811 101.5C548.144 101.385 548.321 101.318 548.342 101.297V104.266C548.269 104.318 548.144 104.391 547.967 104.484C547.79 104.568 547.337 104.693 546.608 104.859C545.889 105.016 545.05 105.115 544.092 105.156L542.233 105.219C541.149 105.26 540.228 105.427 539.467 105.719C538.717 106.01 538.108 106.443 537.639 107.016C537.17 107.589 536.811 108.24 536.561 108.969C536.321 109.698 536.134 110.589 535.998 111.641ZM556.714 125H553.386V107.984H556.714V119.688H556.98L564.824 107.984H568.152V125H564.824V113.234H564.574L556.714 125ZM584.071 125V117.625H576.227V125H572.868V107.984H576.227V114.797H584.071V107.984H587.414V125H584.071ZM602.115 111.719C601.365 110.917 600.37 110.516 599.13 110.516C597.891 110.516 596.87 110.917 596.068 111.719C595.266 112.521 594.818 113.589 594.724 114.922H603.318C603.276 113.578 602.875 112.51 602.115 111.719ZM603.302 120.406H606.537C606.151 121.938 605.307 123.141 604.005 124.016C602.714 124.891 601.099 125.328 599.162 125.328C596.724 125.328 594.802 124.547 593.396 122.984C592 121.411 591.302 119.266 591.302 116.547C591.302 113.828 592.011 111.667 593.427 110.062C594.844 108.458 596.75 107.656 599.146 107.656C601.511 107.656 603.365 108.417 604.708 109.938C606.063 111.458 606.74 113.557 606.74 116.234V117.406H594.724V117.594C594.776 119.094 595.208 120.281 596.021 121.156C596.833 122.031 597.912 122.469 599.255 122.469C601.307 122.469 602.656 121.781 603.302 120.406ZM622.237 107.984V110.812H616.878V125H613.518V110.812H608.159V107.984H622.237Z"
    fill="#444444"/>
  <rect y="162" width="882" height="278" rx="8" fill="#F2F2F2"/>
  <g filter="url(#filter0_d_2_382)">
    <rect x="58" y="234" width="787" height="56" rx="8" fill="white"/>
    <path
      d="M82.6328 268.602V270.5H72.1562V253.59H82.6328V255.488H74.2656V260.914H82.1992V262.789H74.2656V268.602H82.6328ZM93.4808 264.652H85.7933V262.742H93.4808V264.652ZM96.8756 270.5V257.867H98.7975V259.859H98.985C99.2741 259.156 99.7233 258.613 100.333 258.23C100.942 257.84 101.669 257.645 102.512 257.645C103.34 257.645 104.051 257.844 104.645 258.242C105.247 258.641 105.7 259.18 106.005 259.859H106.192C106.536 259.18 107.051 258.641 107.739 258.242C108.426 257.844 109.2 257.645 110.059 257.645C111.348 257.645 112.34 258.004 113.036 258.723C113.731 259.434 114.079 260.449 114.079 261.77V270.5H112.063V262.238C112.063 260.387 111.176 259.461 109.403 259.461C108.544 259.461 107.84 259.742 107.294 260.305C106.747 260.867 106.473 261.559 106.473 262.379V270.5H104.458V261.922C104.458 261.172 104.215 260.574 103.731 260.129C103.255 259.684 102.618 259.461 101.821 259.461C101.001 259.461 100.305 259.773 99.735 260.398C99.1725 261.023 98.8913 261.781 98.8913 262.672V270.5H96.8756ZM121.329 268.953C122.368 268.953 123.228 268.652 123.907 268.051C124.595 267.449 124.938 266.695 124.938 265.789V264.629L121.54 264.852C120.587 264.914 119.888 265.113 119.442 265.449C118.997 265.785 118.774 266.273 118.774 266.914C118.774 267.547 119.013 268.047 119.489 268.414C119.966 268.773 120.579 268.953 121.329 268.953ZM120.954 270.723C119.712 270.723 118.688 270.383 117.884 269.703C117.087 269.016 116.688 268.102 116.688 266.961C116.688 265.836 117.087 264.953 117.884 264.312C118.681 263.672 119.817 263.309 121.294 263.223L124.938 263V261.852C124.938 261.07 124.696 260.473 124.212 260.059C123.728 259.645 123.017 259.438 122.079 259.438C121.321 259.438 120.692 259.574 120.192 259.848C119.692 260.121 119.372 260.508 119.231 261.008H117.192C117.325 260 117.845 259.188 118.751 258.57C119.665 257.953 120.798 257.645 122.149 257.645C123.681 257.645 124.864 258.016 125.7 258.758C126.536 259.5 126.954 260.531 126.954 261.852V270.5H125.032V268.637H124.845C124.438 269.309 123.899 269.824 123.228 270.184C122.556 270.543 121.798 270.723 120.954 270.723ZM130.408 270.5V257.867H132.423V270.5H130.408ZM132.411 254.891C132.138 255.164 131.806 255.301 131.415 255.301C131.025 255.301 130.693 255.164 130.419 254.891C130.146 254.609 130.009 254.277 130.009 253.895C130.009 253.512 130.146 253.184 130.419 252.91C130.693 252.629 131.025 252.488 131.415 252.488C131.806 252.488 132.138 252.629 132.411 252.91C132.685 253.184 132.822 253.512 132.822 253.895C132.822 254.277 132.685 254.609 132.411 254.891ZM136.064 270.5V252.852H138.08V270.5H136.064ZM149.323 275.07C149.002 275.07 148.701 275.047 148.42 275V273.277C148.623 273.316 148.905 273.336 149.264 273.336C149.85 273.336 150.315 273.18 150.658 272.867C151.01 272.555 151.319 272.02 151.584 271.262L151.819 270.512L147.143 257.867H149.323L152.791 268.262H152.979L156.436 257.867H158.58L153.647 271.273C153.108 272.734 152.533 273.73 151.924 274.262C151.315 274.801 150.448 275.07 149.323 275.07ZM163.745 264.746H163.194V270.5H161.178V257.867H163.194V263.152H163.745L168.749 257.867H171.198L165.409 263.82L171.42 270.5H168.807L163.745 264.746ZM177.464 268.953C178.503 268.953 179.362 268.652 180.042 268.051C180.729 267.449 181.073 266.695 181.073 265.789V264.629L177.675 264.852C176.722 264.914 176.022 265.113 175.577 265.449C175.132 265.785 174.909 266.273 174.909 266.914C174.909 267.547 175.147 268.047 175.624 268.414C176.1 268.773 176.714 268.953 177.464 268.953ZM177.089 270.723C175.847 270.723 174.823 270.383 174.018 269.703C173.222 269.016 172.823 268.102 172.823 266.961C172.823 265.836 173.222 264.953 174.018 264.312C174.815 263.672 175.952 263.309 177.429 263.223L181.073 263V261.852C181.073 261.07 180.831 260.473 180.347 260.059C179.862 259.645 179.151 259.438 178.214 259.438C177.456 259.438 176.827 259.574 176.327 259.848C175.827 260.121 175.507 260.508 175.366 261.008H173.327C173.46 260 173.979 259.188 174.886 258.57C175.8 257.953 176.933 257.645 178.284 257.645C179.815 257.645 180.999 258.016 181.835 258.758C182.671 259.5 183.089 260.531 183.089 261.852V270.5H181.167V268.637H180.979C180.573 269.309 180.034 269.824 179.362 270.184C178.69 270.543 177.933 270.723 177.089 270.723ZM191.019 270.711C189.636 270.711 188.48 270.398 187.55 269.773C186.628 269.141 186.113 268.305 186.003 267.266H188.077C188.202 267.812 188.523 268.242 189.038 268.555C189.562 268.859 190.222 269.012 191.019 269.012C191.933 269.012 192.655 268.816 193.187 268.426C193.718 268.035 193.984 267.52 193.984 266.879C193.984 265.48 192.995 264.781 191.019 264.781H189.05V263.094H191.019C192.675 263.094 193.503 262.465 193.503 261.207C193.503 260.652 193.288 260.207 192.859 259.871C192.429 259.527 191.816 259.355 191.019 259.355C190.261 259.355 189.624 259.508 189.109 259.812C188.593 260.117 188.296 260.523 188.218 261.031H186.226C186.359 259.992 186.859 259.168 187.726 258.559C188.593 257.949 189.691 257.645 191.019 257.645C192.417 257.645 193.511 257.957 194.3 258.582C195.097 259.207 195.495 260.031 195.495 261.055C195.495 261.688 195.304 262.254 194.921 262.754C194.546 263.254 194.054 263.574 193.445 263.715V263.902C194.273 264.082 194.902 264.422 195.331 264.922C195.769 265.422 195.988 266.039 195.988 266.773C195.988 267.945 195.527 268.895 194.605 269.621C193.683 270.348 192.488 270.711 191.019 270.711ZM202.957 268.953C203.996 268.953 204.855 268.652 205.535 268.051C206.222 267.449 206.566 266.695 206.566 265.789V264.629L203.168 264.852C202.214 264.914 201.515 265.113 201.07 265.449C200.625 265.785 200.402 266.273 200.402 266.914C200.402 267.547 200.64 268.047 201.117 268.414C201.593 268.773 202.207 268.953 202.957 268.953ZM202.582 270.723C201.339 270.723 200.316 270.383 199.511 269.703C198.714 269.016 198.316 268.102 198.316 266.961C198.316 265.836 198.714 264.953 199.511 264.312C200.308 263.672 201.445 263.309 202.921 263.223L206.566 263V261.852C206.566 261.07 206.324 260.473 205.839 260.059C205.355 259.645 204.644 259.438 203.707 259.438C202.949 259.438 202.32 259.574 201.82 259.848C201.32 260.121 201 260.508 200.859 261.008H198.82C198.953 260 199.472 259.188 200.378 258.57C201.293 257.953 202.425 257.645 203.777 257.645C205.308 257.645 206.492 258.016 207.328 258.758C208.164 259.5 208.582 260.531 208.582 261.852V270.5H206.66V268.637H206.472C206.066 269.309 205.527 269.824 204.855 270.184C204.183 270.543 203.425 270.723 202.582 270.723ZM220.531 270.5V264.781H214.226V270.5H212.211V257.867H214.226V263.094H220.531V257.867H222.547V270.5H220.531ZM234.555 270.5V264.781H228.25V270.5H226.235V257.867H228.25V263.094H234.555V257.867H236.57V270.5H234.555ZM251.309 270.5V257.867H253.325V270.5H251.309ZM244.77 263.609H242.274V268.812H244.77C245.598 268.812 246.258 268.578 246.75 268.109C247.25 267.633 247.5 267 247.5 266.211C247.5 265.422 247.25 264.793 246.75 264.324C246.258 263.848 245.598 263.609 244.77 263.609ZM240.258 270.5V257.867H242.274V261.922H244.77C246.215 261.922 247.368 262.309 248.227 263.082C249.086 263.855 249.516 264.898 249.516 266.211C249.516 267.523 249.086 268.566 248.227 269.34C247.368 270.113 246.215 270.5 244.77 270.5H240.258ZM259.04 270.5H257.024V257.867H259.04V267.289H259.227L265.52 257.867H267.536V270.5H265.52V261.078H265.333L259.04 270.5ZM258.208 252.266H260.036C260.036 252.938 260.235 253.516 260.634 254C261.032 254.484 261.559 254.727 262.216 254.727C262.88 254.727 263.411 254.484 263.809 254C264.216 253.516 264.419 252.938 264.419 252.266H266.247C266.247 253.367 265.872 254.285 265.122 255.02C264.38 255.746 263.411 256.109 262.216 256.109C261.028 256.109 260.063 255.746 259.321 255.02C258.579 254.293 258.208 253.375 258.208 252.266ZM285.892 270.5V259.555H279.705V270.5H277.689V257.867H287.908V270.5H285.892ZM297.748 257.645C299.357 257.645 300.642 258.238 301.603 259.426C302.572 260.613 303.056 262.199 303.056 264.184C303.056 266.16 302.572 267.746 301.603 268.941C300.635 270.129 299.349 270.723 297.748 270.723C296.849 270.723 296.053 270.539 295.357 270.172C294.662 269.797 294.142 269.273 293.799 268.602H293.611V274.719H291.595V257.867H293.517V259.977H293.705C294.111 259.25 294.67 258.68 295.381 258.266C296.099 257.852 296.888 257.645 297.748 257.645ZM297.267 268.906C298.424 268.906 299.33 268.488 299.986 267.652C300.642 266.816 300.97 265.66 300.97 264.184C300.97 262.707 300.642 261.551 299.986 260.715C299.338 259.879 298.435 259.461 297.279 259.461C296.138 259.461 295.232 259.887 294.56 260.738C293.888 261.582 293.553 262.73 293.553 264.184C293.553 265.629 293.885 266.777 294.549 267.629C295.22 268.48 296.127 268.906 297.267 268.906ZM308.15 270.5H306.135V257.867H308.15V267.289H308.338L314.631 257.867H316.647V270.5H314.631V261.078H314.443L308.15 270.5ZM332.952 257.645C334.561 257.645 335.846 258.238 336.807 259.426C337.776 260.613 338.26 262.199 338.26 264.184C338.26 266.16 337.776 267.746 336.807 268.941C335.839 270.129 334.553 270.723 332.952 270.723C332.053 270.723 331.257 270.539 330.561 270.172C329.866 269.797 329.346 269.273 329.003 268.602H328.815V274.719H326.8V257.867H328.721V259.977H328.909C329.315 259.25 329.874 258.68 330.585 258.266C331.303 257.852 332.092 257.645 332.952 257.645ZM332.471 268.906C333.628 268.906 334.534 268.488 335.19 267.652C335.846 266.816 336.175 265.66 336.175 264.184C336.175 262.707 335.846 261.551 335.19 260.715C334.542 259.879 333.639 259.461 332.483 259.461C331.342 259.461 330.436 259.887 329.764 260.738C329.092 261.582 328.757 262.73 328.757 264.184C328.757 265.629 329.089 266.777 329.753 267.629C330.425 268.48 331.331 268.906 332.471 268.906ZM346.39 259.426C345.382 259.426 344.554 259.766 343.905 260.445C343.257 261.125 342.894 262.023 342.815 263.141H349.776C349.753 262.023 349.433 261.125 348.815 260.445C348.198 259.766 347.39 259.426 346.39 259.426ZM349.718 267.23H351.733C351.429 268.324 350.808 269.18 349.87 269.797C348.94 270.414 347.788 270.723 346.413 270.723C344.663 270.723 343.276 270.137 342.253 268.965C341.23 267.785 340.718 266.195 340.718 264.195C340.718 262.203 341.233 260.613 342.265 259.426C343.296 258.238 344.679 257.645 346.413 257.645C348.116 257.645 349.456 258.211 350.433 259.344C351.409 260.477 351.897 262.027 351.897 263.996V264.77H342.815V264.863C342.87 266.113 343.222 267.105 343.87 267.84C344.526 268.574 345.39 268.941 346.46 268.941C348.093 268.941 349.179 268.371 349.718 267.23ZM363.05 259.555H356.98V270.5H354.964V257.867H363.05V259.555ZM367.816 270.5H365.8V257.867H367.816V267.289H368.004L374.297 257.867H376.312V270.5H374.297V261.078H374.109L367.816 270.5ZM390.477 261.734H388.438C388.266 261.07 387.895 260.527 387.324 260.105C386.762 259.676 386.047 259.461 385.18 259.461C384.047 259.461 383.145 259.883 382.473 260.727C381.809 261.57 381.477 262.707 381.477 264.137C381.477 265.59 381.812 266.75 382.484 267.617C383.156 268.477 384.055 268.906 385.18 268.906C386.031 268.906 386.738 268.715 387.301 268.332C387.871 267.949 388.25 267.402 388.438 266.691H390.477C390.289 267.887 389.73 268.859 388.801 269.609C387.871 270.352 386.668 270.723 385.191 270.723C383.418 270.723 382.008 270.129 380.961 268.941C379.914 267.746 379.391 266.145 379.391 264.137C379.391 262.168 379.914 260.594 380.961 259.414C382.008 258.234 383.414 257.645 385.18 257.645C386.656 257.645 387.859 258.031 388.789 258.805C389.727 259.578 390.289 260.555 390.477 261.734ZM401.922 257.867V259.555H397.821V270.5H395.805V259.555H391.703V257.867H401.922ZM410.696 257.645C412.305 257.645 413.59 258.238 414.551 259.426C415.52 260.613 416.005 262.199 416.005 264.184C416.005 266.16 415.52 267.746 414.551 268.941C413.583 270.129 412.297 270.723 410.696 270.723C409.797 270.723 409.001 270.539 408.305 270.172C407.61 269.797 407.09 269.273 406.747 268.602H406.559V274.719H404.544V257.867H406.465V259.977H406.653C407.059 259.25 407.618 258.68 408.329 258.266C409.047 257.852 409.837 257.645 410.696 257.645ZM410.215 268.906C411.372 268.906 412.278 268.488 412.934 267.652C413.59 266.816 413.919 265.66 413.919 264.184C413.919 262.707 413.59 261.551 412.934 260.715C412.286 259.879 411.383 259.461 410.227 259.461C409.087 259.461 408.18 259.887 407.508 260.738C406.837 261.582 406.501 262.73 406.501 264.184C406.501 265.629 406.833 266.777 407.497 267.629C408.169 268.48 409.075 268.906 410.215 268.906ZM422.985 268.953C424.024 268.953 424.884 268.652 425.563 268.051C426.251 267.449 426.595 266.695 426.595 265.789V264.629L423.196 264.852C422.243 264.914 421.544 265.113 421.099 265.449C420.653 265.785 420.431 266.273 420.431 266.914C420.431 267.547 420.669 268.047 421.145 268.414C421.622 268.773 422.235 268.953 422.985 268.953ZM422.61 270.723C421.368 270.723 420.345 270.383 419.54 269.703C418.743 269.016 418.345 268.102 418.345 266.961C418.345 265.836 418.743 264.953 419.54 264.312C420.337 263.672 421.474 263.309 422.95 263.223L426.595 263V261.852C426.595 261.07 426.353 260.473 425.868 260.059C425.384 259.645 424.673 259.438 423.735 259.438C422.978 259.438 422.349 259.574 421.849 259.848C421.349 260.121 421.028 260.508 420.888 261.008H418.849C418.981 260 419.501 259.188 420.407 258.57C421.321 257.953 422.454 257.645 423.806 257.645C425.337 257.645 426.52 258.016 427.356 258.758C428.192 259.5 428.61 260.531 428.61 261.852V270.5H426.688V268.637H426.501C426.095 269.309 425.556 269.824 424.884 270.184C424.212 270.543 423.454 270.723 422.61 270.723ZM444.357 273.84H442.458V270.5H432.24V257.867H434.255V268.812H440.325V257.867H442.341V268.812H444.357V273.84ZM448.701 270.5H446.685V257.867H448.701V267.289H448.888L455.181 257.867H457.197V270.5H455.181V261.078H454.994L448.701 270.5ZM462.912 270.5H460.896V257.867H462.912V267.289H463.1L469.392 257.867H471.408V270.5H469.392V261.078H469.205L462.912 270.5Z"
      fill="#AAAAAA"/>
  </g>
  <path
    d="M68.5273 222.418V224H59.7969V209.908H68.5273V211.49H61.5547V216.012H68.166V217.574H61.5547V222.418H68.5273ZM77.378 219.127H70.9717V217.535H77.378V219.127ZM80.0177 224V213.473H81.6192V215.133H81.7755C82.0164 214.547 82.3907 214.094 82.8985 213.775C83.4064 213.45 84.0118 213.287 84.715 213.287C85.4051 213.287 85.9975 213.453 86.4923 213.785C86.9936 214.117 87.3712 214.566 87.6251 215.133H87.7814C88.0678 214.566 88.4975 214.117 89.0704 213.785C89.6433 213.453 90.2879 213.287 91.004 213.287C92.0782 213.287 92.9051 213.587 93.4845 214.186C94.0639 214.778 94.3536 215.624 94.3536 216.725V224H92.6739V217.115C92.6739 215.572 91.935 214.801 90.4571 214.801C89.741 214.801 89.1551 215.035 88.6993 215.504C88.2436 215.973 88.0157 216.549 88.0157 217.232V224H86.336V216.852C86.336 216.227 86.1342 215.729 85.7306 215.357C85.3334 214.986 84.8028 214.801 84.1388 214.801C83.4552 214.801 82.8758 215.061 82.4005 215.582C81.9317 216.103 81.6974 216.734 81.6974 217.477V224H80.0177ZM100.206 222.711C101.072 222.711 101.788 222.46 102.355 221.959C102.928 221.458 103.214 220.829 103.214 220.074V219.107L100.382 219.293C99.5877 219.345 99.005 219.511 98.634 219.791C98.2629 220.071 98.0773 220.478 98.0773 221.012C98.0773 221.539 98.2759 221.956 98.673 222.262C99.0702 222.561 99.5812 222.711 100.206 222.711ZM99.8937 224.186C98.8586 224.186 98.0057 223.902 97.3351 223.336C96.6711 222.763 96.339 222.001 96.339 221.051C96.339 220.113 96.6711 219.378 97.3351 218.844C97.9992 218.31 98.9465 218.007 100.177 217.936L103.214 217.75V216.793C103.214 216.142 103.012 215.644 102.609 215.299C102.205 214.954 101.612 214.781 100.831 214.781C100.2 214.781 99.6756 214.895 99.259 215.123C98.8423 215.351 98.5754 215.673 98.4582 216.09H96.759C96.8696 215.25 97.3026 214.573 98.0578 214.059C98.8195 213.544 99.7635 213.287 100.89 213.287C102.166 213.287 103.152 213.596 103.849 214.215C104.545 214.833 104.894 215.693 104.894 216.793V224H103.292V222.447H103.136C102.797 223.007 102.348 223.437 101.788 223.736C101.228 224.036 100.597 224.186 99.8937 224.186ZM107.582 224V213.473H109.262V224H107.582ZM109.252 210.992C109.024 211.22 108.748 211.334 108.422 211.334C108.097 211.334 107.82 211.22 107.592 210.992C107.364 210.758 107.25 210.481 107.25 210.162C107.25 209.843 107.364 209.57 107.592 209.342C107.82 209.107 108.097 208.99 108.422 208.99C108.748 208.99 109.024 209.107 109.252 209.342C109.48 209.57 109.594 209.843 109.594 210.162C109.594 210.481 109.48 210.758 109.252 210.992ZM112.107 224V209.293H113.786V224H112.107Z"
    fill="#777777"/>
  <path
    d="M122.94 216.041L120.557 214.498L120.713 217.32H119.385L119.541 214.488L117.159 216.041L116.504 214.908L119.043 213.629L116.504 212.34L117.159 211.188L119.541 212.779L119.385 209.908H120.713L120.557 212.779L122.94 211.188L123.594 212.34L121.065 213.629L123.594 214.908L122.94 216.041Z"
    fill="#EF5E54"/>
  <path d="M380 37.5C380 16.7893 396.789 0 417.5 0H501V36.5C501 57.2107 484.211 74 463.5 74H380V37.5Z" fill="#FCB042"/>
  <path
    d="M439.977 11.9969C434.454 11.9969 429.977 16.4744 429.977 21.9969C426.267 21.9969 420.289 21.9969 419.977 21.9969C418.597 21.9969 417.477 23.1169 417.477 24.4969V51.997C417.477 57.5195 421.954 61.997 427.477 61.997H452.477C457.999 61.997 462.477 57.5195 462.477 51.997V24.4969C462.477 23.1169 461.357 21.9969 459.977 21.9969C459.664 21.9969 453.687 21.9969 449.977 21.9969C449.977 16.4744 445.499 11.9969 439.977 11.9969ZM439.977 16.9969C442.739 16.9969 444.977 19.2344 444.977 21.9969C440.417 21.9969 439.537 21.9969 434.977 21.9969C434.977 19.2344 437.214 16.9969 439.977 16.9969ZM449.977 34.497C450.617 34.497 451.284 34.712 451.774 35.1995C452.749 36.177 452.749 37.817 451.774 38.7945L441.774 48.7945C440.797 49.7695 439.157 49.7695 438.179 48.7945L433.179 43.7945C432.204 42.817 432.204 41.177 433.179 40.1995C434.157 39.2245 435.797 39.2245 436.774 40.1995L439.977 43.402L448.179 35.1995C448.669 34.712 449.337 34.497 449.977 34.497Z"
    fill="white"/>
  <g opacity="0.5">
    <rect x="268" y="330" width="324" height="56" rx="8" fill="#52BE8D"/>
    <path
      d="M407.746 365H401.838V350.908H407.688C408.97 350.908 409.992 351.227 410.754 351.865C411.516 352.503 411.896 353.356 411.896 354.424C411.896 355.179 411.649 355.85 411.154 356.436C410.66 357.021 410.051 357.373 409.328 357.49V357.568C410.292 357.66 411.073 358.021 411.672 358.652C412.277 359.284 412.58 360.065 412.58 360.996C412.58 362.24 412.15 363.219 411.291 363.936C410.432 364.645 409.25 365 407.746 365ZM404.357 352.871V356.846H406.662C407.541 356.846 408.218 356.67 408.693 356.318C409.169 355.96 409.406 355.452 409.406 354.795C409.406 354.183 409.201 353.711 408.791 353.379C408.387 353.04 407.808 352.871 407.053 352.871H404.357ZM404.357 363.037H407.17C408.094 363.037 408.798 362.848 409.279 362.471C409.768 362.093 410.012 361.543 410.012 360.82C410.012 360.104 409.761 359.561 409.26 359.189C408.765 358.818 408.033 358.633 407.062 358.633H404.357V363.037ZM422.941 363.77C422.036 364.727 420.818 365.205 419.288 365.205C417.758 365.205 416.541 364.727 415.636 363.77C414.731 362.806 414.278 361.491 414.278 359.824C414.278 358.164 414.734 356.852 415.646 355.889C416.557 354.919 417.771 354.434 419.288 354.434C420.812 354.434 422.026 354.919 422.931 355.889C423.842 356.852 424.298 358.164 424.298 359.824C424.298 361.491 423.845 362.806 422.941 363.77ZM417.433 362.373C417.888 362.979 418.507 363.281 419.288 363.281C420.069 363.281 420.688 362.979 421.144 362.373C421.599 361.768 421.827 360.918 421.827 359.824C421.827 358.737 421.599 357.891 421.144 357.285C420.688 356.673 420.069 356.367 419.288 356.367C418.513 356.367 417.895 356.673 417.433 357.285C416.977 357.891 416.749 358.737 416.749 359.824C416.749 360.918 416.977 361.768 417.433 362.373ZM428.809 365H426.426V354.648H428.809V361.562H428.887L433.389 354.648H435.772V365H433.389V358.037H433.311L428.809 365ZM427.891 350.029H429.453C429.46 350.583 429.623 351.035 429.942 351.387C430.267 351.738 430.694 351.914 431.221 351.914C431.748 351.914 432.171 351.738 432.49 351.387C432.816 351.035 432.982 350.583 432.989 350.029H434.551C434.551 350.973 434.245 351.735 433.633 352.314C433.021 352.887 432.217 353.174 431.221 353.174C430.225 353.174 429.421 352.887 428.809 352.314C428.197 351.735 427.891 350.973 427.891 350.029ZM446.435 354.648V356.523H443.251V365H440.839V356.523H437.656V354.648H446.435ZM450.702 365H448.319V354.648H450.702V361.562H450.78L455.282 354.648H457.665V365H455.282V358.037H455.204L450.702 365Z"
      fill="white"/>
  </g>
  <defs>
    <filter id="filter0_d_2_382" x="58" y="234" width="787" height="56" filterUnits="userSpaceOnUse"
            color-interpolation-filters="sRGB">
      <feFlood flood-opacity="0" result="BackgroundImageFix"/>
      <feColorMatrix in="SourceAlpha" type="matrix" values="0 0 0 0 0 0 0 0 0 0 0 0 0 0 0 0 0 0 127 0"
                     result="hardAlpha"/>
      <feOffset/>
      <feComposite in2="hardAlpha" operator="out"/>
      <feColorMatrix type="matrix" values="0 0 0 0 0.796078 0 0 0 0 0.854902 0 0 0 0 0.988235 0 0 0 1 0"/>
      <feBlend mode="normal" in2="BackgroundImageFix" result="effect1_dropShadow_2_382"/>
      <feBlend mode="normal" in="SourceGraphic" in2="effect1_dropShadow_2_382" result="shape"/>
    </filter>
  </defs>
</svg>
