<svg xmlns="http://www.w3.org/2000/svg" viewBox="0 0 172 46">
  <path fill="#ef5e54"
        d="M74.64 33.7c-.63 0-1.16-.22-1.59-.65a2.18 2.18 0 0 1-.64-1.6V2.25c0-.66.22-1.2.64-1.6.43-.43.96-.65 1.6-.65h8.56c2.14 0 4.04.48 5.7 1.42a9.88 9.88 0 0 1 3.86 3.97c.95 1.67 1.41 3.6 1.41 5.78 0 2.1-.47 3.97-1.4 5.61a9.74 9.74 0 0 1-3.87 3.84 11.56 11.56 0 0 1-5.7 1.38h-6.34v9.45a2.2 2.2 0 0 1-.64 1.6c-.4.44-.93.65-1.58.65zm2.23-15.8h6.34c1.31 0 2.47-.29 3.47-.86a6.25 6.25 0 0 0 2.36-2.37c.57-1.01.86-2.16.86-3.45 0-1.38-.29-2.6-.86-3.63a6.4 6.4 0 0 0-2.36-2.5c-1-.6-2.16-.9-3.47-.9h-6.34zm28.5 16a8.5 8.5 0 0 1-4.04-.95 7.3 7.3 0 0 1-2.8-2.85 9.58 9.58 0 0 1-1-4.59v-8.07c0-.48.15-.88.45-1.18a1.63 1.63 0 0 1 1.2-.5c.48 0 .87.17 1.17.5.33.3.49.7.49 1.18v8.07c0 1.22.23 2.24.68 3.05a4.4 4.4 0 0 0 1.86 1.77c.78.37 1.66.56 2.64.56.93 0 1.76-.19 2.47-.56a4.62 4.62 0 0 0 1.76-1.51 3.69 3.69 0 0 0 .65-2.13h2.05c0 1.36-.33 2.58-1 3.67a7.03 7.03 0 0 1-2.7 2.59 7.77 7.77 0 0 1-3.88.95zm7.2-.16c-.48 0-.88-.16-1.2-.46-.3-.33-.46-.74-.46-1.21v-14.6c0-.5.15-.91.45-1.21.33-.3.73-.46 1.2-.46.5 0 .9.15 1.2.46.3.3.46.7.46 1.2v14.6c0 .49-.15.9-.46 1.22-.3.3-.7.46-1.2.46zm11.2 0c-.63 0-1.17-.22-1.59-.65a2.18 2.18 0 0 1-.64-1.6V2.29c0-.66.22-1.2.64-1.6.43-.43.96-.65 1.58-.65.66 0 1.18.22 1.6.65.42.4.64.93.64 1.6v12.4h19.9V2.29c0-.66.2-1.2.64-1.6.43-.43.95-.65 1.58-.65.65 0 1.18.22 1.58.65.4.4.6.93.6 1.6v29.2c0 .63-.2 1.17-.6 1.6-.4.43-.93.65-1.58.65-.63 0-1.16-.22-1.58-.65a2.18 2.18 0 0 1-.65-1.6v-12.9H126v12.9a2.2 2.2 0 0 1-.64 1.6c-.4.43-.93.65-1.59.65z"/>
  <path fill="#444"
        d="M53.74 38.3c1 0 1.71.2 2.17.58.46.4.68.94.68 1.64 0 .32-.05.62-.16.9-.1.29-.26.54-.5.77-.23.23-.54.4-.93.54-.39.13-.87.2-1.43.2h-.87v2.94h-.95V38.3zm-.08.82h-.97v3h.77c.48 0 .88-.05 1.2-.15.32-.1.55-.28.7-.5.16-.23.24-.52.24-.9 0-.48-.15-.85-.46-1.08-.32-.24-.8-.36-1.48-.36zm10.3.97c.7 0 1.2.16 1.54.46.33.3.5.79.5 1.45v3.88h-.68l-.18-.8h-.05a3.24 3.24 0 0 1-.5.51c-.18.14-.37.24-.6.3a2.91 2.91 0 0 1-1.73-.08 1.42 1.42 0 0 1-.64-.56 1.8 1.8 0 0 1-.23-.95c0-.57.22-1 .67-1.31a3.83 3.83 0 0 1 2.06-.51l.96-.03v-.34c0-.48-.1-.8-.3-.99s-.5-.28-.87-.28c-.3 0-.59.05-.85.14-.27.09-.52.19-.76.3l-.29-.7a4.09 4.09 0 0 1 .89-.34c.34-.1.69-.15 1.06-.15zm.28 3.04c-.71.03-1.2.14-1.48.34-.27.2-.4.48-.4.84 0 .32.09.55.28.7.2.15.45.23.75.23.48 0 .88-.13 1.2-.4.32-.27.48-.68.48-1.23v-.5zm6.95-.67c0-.82.08-1.53.24-2.1.17-.6.43-1.07.78-1.4.35-.36.8-.6 1.36-.72a33.7 33.7 0 0 1 2.58-.48l.15.82-.61.1a23.71 23.71 0 0 0-1.37.24l-.56.1c-.24.06-.45.14-.63.26a1.58 1.58 0 0 0-.48.47c-.13.2-.23.44-.3.73s-.13.64-.14 1.03h.06c.1-.13.23-.27.4-.41a2.55 2.55 0 0 1 .63-.36c.25-.1.53-.15.84-.15.5 0 .9.1 1.23.33.33.21.58.5.74.9.17.37.26.82.26 1.33a3.4 3.4 0 0 1-.33 1.58 2.21 2.21 0 0 1-.92.96c-.39.2-.84.3-1.36.3a2.48 2.48 0 0 1-1.06-.22 2.28 2.28 0 0 1-.81-.68 3.2 3.2 0 0 1-.52-1.1 5.76 5.76 0 0 1-.18-1.52zm2.66 2.75c.3 0 .58-.06.8-.19.23-.12.42-.33.54-.62.13-.3.2-.68.2-1.16 0-.58-.12-1.04-.34-1.37-.2-.34-.56-.51-1.05-.51-.32 0-.6.07-.85.21a2.46 2.46 0 0 0-1 .91c0 .35.02.69.07 1.01.05.33.14.62.26.88s.3.46.52.62c.22.15.5.22.85.22zm12.7-2.19c0 .48-.07.9-.2 1.26-.12.36-.3.67-.53.93-.22.25-.5.45-.84.58a2.98 2.98 0 0 1-2.13 0 2.35 2.35 0 0 1-.82-.58 2.79 2.79 0 0 1-.56-.93 3.86 3.86 0 0 1-.19-1.26c0-.63.1-1.16.32-1.59.21-.44.52-.77.91-1 .4-.23.87-.34 1.41-.34.52 0 .97.11 1.36.35.4.22.7.56.93 1 .22.43.34.96.34 1.58zm-4.3 0c0 .45.05.84.17 1.17.12.33.3.58.55.76.24.17.56.26.94.26s.7-.09.95-.26c.24-.18.42-.43.54-.76.12-.33.18-.72.18-1.17 0-.45-.06-.84-.18-1.16a1.5 1.5 0 0 0-.55-.73 1.56 1.56 0 0 0-.95-.26c-.58 0-1 .19-1.26.57-.26.38-.4.91-.4 1.58zm13.3-2.05h-1.86v4.91h-.93v-4.9h-1.84v-.8h4.62zm7-.88c.69 0 1.2.15 1.54.46.33.3.5.79.5 1.45v3.88h-.69l-.18-.8h-.04a3.24 3.24 0 0 1-.5.51c-.18.14-.38.24-.6.3a2.93 2.93 0 0 1-.81.1 2.3 2.3 0 0 1-.92-.18 1.42 1.42 0 0 1-.64-.56 1.8 1.8 0 0 1-.24-.95c0-.57.23-1 .67-1.31a3.83 3.83 0 0 1 2.06-.51l.97-.03v-.34c0-.48-.1-.8-.3-1-.21-.17-.5-.27-.88-.27-.3 0-.58.05-.85.14a5.56 5.56 0 0 0-.75.3l-.29-.7c.25-.14.54-.25.88-.34.34-.1.7-.15 1.06-.15zm.27 3.04c-.7.03-1.2.14-1.48.34-.27.2-.4.48-.4.84 0 .32.1.55.28.7.2.15.45.23.76.23.48 0 .88-.13 1.2-.4.32-.27.48-.68.48-1.23v-.5zm14.1.53-.01.28-.01.37-.02.37a7.83 7.83 0 0 1-.02.28l3.05-4.77h1.15v5.69h-.87v-3.8a99.4 99.4 0 0 1 .04-.96l-3.03 4.76h-1.16V40.2h.88zm21.5 2.22h-.95v-3.54h-3.9v3.54h-.95V38.3h.95v3.21h3.9v-3.2h.95zm7.83-5.79c.7 0 1.21.16 1.54.46.33.3.5.79.5 1.45v3.88h-.68l-.18-.8h-.04a3.24 3.24 0 0 1-.51.51c-.17.14-.37.24-.6.3a2.93 2.93 0 0 1-.8.1c-.34 0-.65-.06-.93-.18a1.42 1.42 0 0 1-.64-.56 1.8 1.8 0 0 1-.23-.95c0-.57.22-1 .67-1.31a3.83 3.83 0 0 1 2.06-.51l.97-.03v-.34c0-.48-.1-.8-.31-.99s-.5-.28-.87-.28c-.3 0-.58.05-.85.14a5.56 5.56 0 0 0-.76.3l-.28-.7c.25-.14.54-.25.88-.34.34-.1.7-.15 1.06-.15zm.28 3.04c-.71.03-1.2.14-1.48.34-.27.2-.4.48-.4.84 0 .32.09.55.28.7.2.15.45.23.75.23.48 0 .89-.13 1.2-.4.32-.27.48-.68.48-1.23v-.5zm11.9-5.3c-.03.36-.12.65-.27.9a1.3 1.3 0 0 1-.63.54c-.29.12-.66.18-1.1.18-.46 0-.84-.06-1.12-.18a1.21 1.21 0 0 1-.61-.53c-.13-.25-.2-.55-.23-.9h.87c.03.38.13.63.3.77.16.13.43.19.8.19.33 0 .58-.07.77-.2.19-.14.3-.4.34-.77zm-3.73 5.83-.01.28-.01.37-.03.37a7.83 7.83 0 0 1-.02.28l3.05-4.77h1.15v5.69h-.87v-3.8l.02-.54.03-.42-3.03 4.76h-1.16V40.2h.88zm15.8-3.47v5.7h-.84v-4.11l.05-.48h-.03l-1.86 4.58h-.79l-1.8-4.58h-.03a10.23 10.23 0 0 1 .03.98v3.6h-.84v-5.7h1.24l1.8 4.59 1.83-4.58z"/>
  <path fill="#52be8d"
        d="M65.24 21.1a3.2 3.2 0 0 1-.95 2.46c-.63.59-1.44.99-2.44 1.2v.13c1.06.14 1.97.52 2.75 1.14.79.59 1.17 1.5 1.17 2.78a4.8 4.8 0 0 1-.4 1.99 3.95 3.95 0 0 1-1.2 1.58c-.56.44-1.27.78-2.13 1.04-.86.23-1.9.34-3.13.34h-7.3v-16.9h7.27c1.2 0 2.28.14 3.23.41.97.26 1.73.7 2.28 1.32.57.61.86 1.45.86 2.52zm-2.34 7.7c0-.97-.37-1.66-1.1-2.08a6.71 6.71 0 0 0-3.27-.63h-4.15v5.42h4.21c1.4 0 2.46-.2 3.2-.6.74-.42 1.11-1.12 1.11-2.11zm-.47-7.35c0-.8-.3-1.38-.89-1.73-.57-.38-1.5-.57-2.82-.57h-4.34v4.64h3.83c1.37 0 2.42-.19 3.13-.57a1.87 1.87 0 0 0 1.08-1.77zm103-5.3c1.45 0 2.69.32 3.72.95a6.12 6.12 0 0 1 2.4 2.69c.57 1.14.85 2.48.85 4.02v1.68h-11.6c.04 1.92.53 3.39 1.45 4.4a5.2 5.2 0 0 0 3.95 1.49c1.07 0 2.02-.1 2.84-.28a17.1 17.1 0 0 0 2.6-.9v2.45a13.77 13.77 0 0 1-5.56 1.1 9 9 0 0 1-4.27-.98 6.91 6.91 0 0 1-2.87-2.9 10.35 10.35 0 0 1-1-4.79c0-1.86.3-3.45.9-4.78a7.22 7.22 0 0 1 2.63-3.07 7.24 7.24 0 0 1 3.95-1.08zm-.03 2.28c-1.33 0-2.38.43-3.16 1.3a6.06 6.06 0 0 0-1.36 3.55h8.62a6.6 6.6 0 0 0-.45-2.53 3.55 3.55 0 0 0-1.36-1.68 3.87 3.87 0 0 0-2.3-.63z"/>
  <path fill="#e8e8e8" d="M23 45.98a23 23 0 1 0 0-46 23 23 0 0 0 0 46z"/>
  <path fill="#ef5e54"
        d="M17.5 13.38a.82.82 0 0 1-1.12.32.83.83 0 0 1-.3-1.13 7.72 7.72 0 0 1 2.8-2.88 7.59 7.59 0 0 1 3.86-1.05c1.41 0 2.72.38 3.86 1.05a7.7 7.7 0 0 1 1.97 1.66l.04-.39a.82.82 0 0 1 .9-.74c.45.05.78.45.73.9l-.14 1.35-.13 1.32a.83.83 0 0 1-1.05.73l-1.28-.38-1.28-.38a.83.83 0 0 1-.56-1.02.82.82 0 0 1 1.02-.56l.38.1a6.08 6.08 0 0 0-1.42-1.15 5.96 5.96 0 0 0-3.03-.82c-1.1 0-2.14.3-3.03.82a6.08 6.08 0 0 0-2.22 2.26zm-3.64 8.28a3.11 3.11 0 0 0 0-6.24 3.11 3.11 0 0 0 0 6.24zm0 3.84c-.1 0-.19-.05-.27-.16l-1.68-2.37c-.17-.24-.27-.34-.63-.34h-.78c-1.47 0-2.1.8-1.99 2.2l.22 2.91c.08.89.43 1.34 1.4 1.35h7.46c.96 0 1.32-.46 1.4-1.35l.21-2.92c.11-1.39-.52-2.19-1.99-2.19h-.77c-.36 0-.47.1-.63.34l-1.68 2.37c-.09.1-.18.16-.28.16z"/>
  <path fill="#52be8d"
        d="M32.7 25.68c-.1 0-.19-.05-.27-.16l-1.68-2.37c-.17-.24-.27-.34-.63-.34h-.78c-1.47 0-2.1.8-1.99 2.2l.22 2.91c.08.89.44 1.34 1.4 1.35h7.46c.96 0 1.32-.46 1.4-1.35l.22-2.92c.1-1.39-.53-2.19-2-2.19h-.77c-.36 0-.47.1-.63.34l-1.68 2.37c-.08.1-.18.16-.27.16zm-3.64 6.71a.82.82 0 0 1 1.12-.3.83.83 0 0 1 .3 1.11 7.72 7.72 0 0 1-2.8 2.88 7.59 7.59 0 0 1-3.86 1.05 7.59 7.59 0 0 1-3.86-1.05c-.75-.43-1.41-1-1.97-1.66l-.04.39a.82.82 0 0 1-.9.74.82.82 0 0 1-.73-.9l.27-2.67a.82.82 0 0 1 1.05-.73l2.56.77a.83.83 0 0 1-.46 1.59l-.38-.12c.42.46.9.85 1.42 1.16a5.96 5.96 0 0 0 3.03.83c1.1 0 2.14-.3 3.03-.83a6.08 6.08 0 0 0 2.22-2.26zm3.64-10.5a3.11 3.11 0 0 0 0-6.24 3.11 3.11 0 0 0 0 6.24z"/>
</svg>
