<svg xmlns="http://www.w3.org/2000/svg" width="144" height="48" fill="none"><path fill="#EF5E54" d="M57.506 42.679c-.703 0-1.293-.242-1.772-.724-.479-.483-.718-1.078-.718-1.785V7.509c0-.74.24-1.335.718-1.785.479-.483 1.07-.724 1.772-.724h9.577c2.395 0 4.518.53 6.37 1.592 1.851 1.061 3.288 2.54 4.31 4.439 1.053 1.865 1.58 4.02 1.58 6.464 0 2.348-.527 4.439-1.58 6.272a10.894 10.894 0 0 1-4.31 4.294c-1.852 1.029-3.975 1.544-6.37 1.544h-7.087V40.17c0 .707-.24 1.302-.718 1.785-.447.482-1.038.724-1.772.724Zm2.49-17.706h7.087c1.469 0 2.762-.322 3.88-.965a6.982 6.982 0 0 0 2.633-2.653c.638-1.126.958-2.413.958-3.86 0-1.544-.32-2.894-.958-4.052-.639-1.19-1.516-2.123-2.634-2.798-1.117-.676-2.41-1.014-3.879-1.014h-7.087v15.342ZM91.846 42.862c-1.674 0-3.178-.354-4.511-1.063-1.31-.733-2.353-1.796-3.13-3.189-.751-1.392-1.127-3.103-1.127-5.13v-9.017c0-.537.17-.977.51-1.32.363-.366.812-.549 1.346-.549.533 0 .97.183 1.31.55.363.342.545.782.545 1.32v9.015c0 1.369.254 2.505.764 3.409.51.88 1.2 1.54 2.073 1.979.874.415 1.856.623 2.947.623 1.043 0 1.965-.208 2.765-.623.825-.415 1.48-.977 1.965-1.686a4.12 4.12 0 0 0 .727-2.382h2.292c0 1.515-.376 2.883-1.128 4.105-.727 1.221-1.734 2.186-3.02 2.895-1.26.709-2.703 1.063-4.328 1.063Zm8.04-.183c-.534 0-.983-.171-1.346-.514-.34-.366-.51-.818-.51-1.355V24.462c0-.562.17-1.014.51-1.356.363-.342.812-.513 1.345-.513.558 0 1.007.171 1.347.513.339.342.509.794.509 1.356V40.81c0 .538-.17.99-.509 1.357-.34.342-.789.513-1.347.513ZM112.422 42.679c-.702 0-1.293-.242-1.772-.724-.479-.483-.718-1.078-.718-1.785V7.509c0-.74.239-1.335.718-1.785.479-.483 1.07-.724 1.772-.724.734 0 1.325.241 1.772.724.479.45.718 1.045.718 1.785v13.846h22.22V7.509c0-.74.239-1.335.718-1.785.479-.483 1.07-.724 1.772-.724.734 0 1.325.241 1.772.724.447.45.67 1.045.67 1.785V40.17c0 .707-.223 1.302-.67 1.785-.447.482-1.038.724-1.772.724-.702 0-1.293-.242-1.772-.724-.479-.483-.718-1.078-.718-1.785V25.793h-22.22V40.17c0 .707-.239 1.302-.718 1.785-.447.482-1.038.724-1.772.724Z"/><path fill="#E8E8E8" fill-rule="evenodd" d="M24 47c12.668 0 23-10.332 23-23S36.668 1 24 1 1 11.332 1 24s10.332 23 23 23Z" clip-rule="evenodd"/><path fill="#EF5E54" fill-rule="evenodd" d="M18.528 14.411a.817.817 0 0 1-1.118.31.829.829 0 0 1-.309-1.125 7.719 7.719 0 0 1 2.815-2.876 7.589 7.589 0 0 1 3.858-1.048c1.406 0 2.725.382 3.859 1.048a7.7 7.7 0 0 1 1.969 1.66l.04-.386a.822.822 0 0 1 .9-.738c.45.046.779.452.732.906l-.138 1.337-.137 1.318a.827.827 0 0 1-1.05.728l-1.28-.381-1.28-.38a.827.827 0 0 1-.556-1.026.82.82 0 0 1 1.019-.56l.377.112a6.071 6.071 0 0 0-1.425-1.16 5.958 5.958 0 0 0-3.03-.821c-1.105 0-2.14.3-3.029.822a6.078 6.078 0 0 0-2.217 2.26Zm-3.64 8.274c1.709 0 3.103-1.403 3.103-3.125 0-1.721-1.394-3.125-3.104-3.125-1.71 0-3.103 1.404-3.103 3.125 0 1.722 1.394 3.125 3.103 3.125Zm0 3.835c-.096 0-.191-.055-.274-.165l-1.68-2.372c-.164-.24-.268-.339-.63-.337h-.776c-1.472 0-2.104.8-1.992 2.188l.217 2.917c.079.886.437 1.344 1.404 1.35h7.462c.966-.006 1.325-.464 1.404-1.35l.217-2.917c.112-1.388-.52-2.188-1.992-2.188h-.777c-.36-.002-.465.097-.629.337l-1.68 2.372c-.084.11-.179.165-.275.165Z" clip-rule="evenodd"/><path fill="#52BE8D" fill-rule="evenodd" d="M33.727 26.648c-.096 0-.19-.056-.274-.165l-1.68-2.373c-.163-.24-.268-.338-.63-.336h-.776c-1.471 0-2.103.8-1.992 2.187l.217 2.918c.08.885.438 1.343 1.405 1.35h7.461c.967-.007 1.325-.464 1.404-1.35l.218-2.918c.111-1.387-.521-2.187-1.993-2.187h-.776c-.361-.002-.466.097-.63.336l-1.68 2.373c-.083.11-.179.165-.274.165Zm-3.64 6.708a.817.817 0 0 1 1.118-.31.83.83 0 0 1 .309 1.126 7.724 7.724 0 0 1-2.815 2.875 7.59 7.59 0 0 1-3.859 1.049 7.59 7.59 0 0 1-3.858-1.049c-.746-.438-1.411-1-1.97-1.659l-.04.386a.822.822 0 0 1-.9.738.825.825 0 0 1-.732-.906l.139-1.337.137-1.318a.825.825 0 0 1 1.049-.728l1.28.38 1.28.381a.827.827 0 0 1 .556 1.026.82.82 0 0 1-1.018.56l-.377-.112a6.08 6.08 0 0 0 1.424 1.159c.89.523 1.925.822 3.03.822 1.105 0 2.14-.3 3.03-.822a6.076 6.076 0 0 0 2.217-2.26Zm3.64-10.543c1.71 0 3.103-1.404 3.103-3.125 0-1.722-1.394-3.125-3.103-3.125-1.71 0-3.103 1.403-3.103 3.125 0 1.721 1.394 3.125 3.103 3.125Z" clip-rule="evenodd"/></svg>
