<svg width="1180" height="113" viewBox="0 0 1180 113" fill="none" xmlns="http://www.w3.org/2000/svg">
  <path d="M1 8C1 3.58172 4.58172 0 9 0H280V56H1V8Z" fill="#52BE8D"/>
  <path
    d="M86.9668 35H84.7891V28.8184H77.5527V35H75.3652V20.9082H77.5527V26.8262H84.7891V20.9082H86.9668V35ZM93.6097 33.4082C94.3974 33.4082 95.0517 33.1868 95.5726 32.7441C96.0999 32.3014 96.3636 31.748 96.3636 31.084V30.1953L93.7659 30.3613C93.0368 30.4069 92.4997 30.5566 92.1546 30.8105C91.8096 31.0645 91.637 31.4258 91.637 31.8945C91.637 32.3633 91.8193 32.7344 92.1839 33.0078C92.5485 33.2747 93.0238 33.4082 93.6097 33.4082ZM93.0726 35.1758C92.0309 35.1758 91.178 34.8861 90.514 34.3066C89.8564 33.7207 89.5277 32.9492 89.5277 31.9922C89.5277 31.0417 89.8695 30.2962 90.553 29.7559C91.2366 29.209 92.2132 28.8965 93.4827 28.8184L96.3636 28.6523V27.7344C96.3636 27.168 96.178 26.735 95.807 26.4355C95.4359 26.1296 94.8955 25.9766 94.1859 25.9766C93.5999 25.9766 93.1116 26.0807 92.721 26.2891C92.3369 26.4909 92.0863 26.7806 91.9691 27.1582H89.9378C90.042 26.2467 90.4879 25.5208 91.2757 24.9805C92.07 24.4336 93.0726 24.1602 94.2835 24.1602C95.6116 24.1602 96.637 24.4759 97.3597 25.1074C98.0889 25.7324 98.4534 26.6081 98.4534 27.7344V35H96.432V33.5059H96.2659C95.9469 34.0397 95.5075 34.4531 94.9476 34.7461C94.3942 35.0326 93.7692 35.1758 93.0726 35.1758ZM103.387 35H101.307V24.3652H103.387V31.6797H103.553L108.456 24.3652H110.536V35H108.456V27.6465H108.299L103.387 35ZM102.372 19.5508H104.12C104.12 20.0911 104.279 20.5501 104.598 20.9277C104.917 21.3053 105.334 21.4941 105.848 21.4941C106.376 21.4941 106.796 21.3053 107.108 20.9277C107.427 20.5501 107.59 20.0911 107.596 19.5508H109.335C109.335 20.5078 109.012 21.2988 108.368 21.9238C107.723 22.5423 106.883 22.8516 105.848 22.8516C104.813 22.8516 103.973 22.5423 103.329 21.9238C102.691 21.2988 102.372 20.5078 102.372 19.5508ZM121.378 24.3652V26.1328H118.028V35H115.929V26.1328H112.579V24.3652H121.378ZM125.501 35H123.421V24.3652H125.501V31.6797H125.667L130.57 24.3652H132.65V35H130.57V27.6465H130.413L125.501 35ZM146.228 24.1895C147.583 24.1895 148.657 24.6842 149.451 25.6738C150.245 26.6569 150.643 27.9915 150.643 29.6777C150.643 31.3639 150.245 32.7018 149.451 33.6914C148.663 34.681 147.596 35.1758 146.248 35.1758C145.493 35.1758 144.829 35.0195 144.256 34.707C143.683 34.388 143.256 33.9486 142.976 33.3887H142.81V38.5352H140.711V24.3652H142.732V26.123H142.889C143.208 25.5176 143.663 25.0456 144.256 24.707C144.848 24.362 145.506 24.1895 146.228 24.1895ZM145.633 33.291C146.525 33.291 147.221 32.972 147.723 32.334C148.23 31.6895 148.484 30.804 148.484 29.6777C148.484 28.5514 148.23 27.6693 147.723 27.0312C147.221 26.3932 146.528 26.0742 145.643 26.0742C144.757 26.0742 144.057 26.3997 143.543 27.0508C143.029 27.6953 142.771 28.5742 142.771 29.6875C142.771 30.7943 143.029 31.6732 143.543 32.3242C144.057 32.9688 144.754 33.291 145.633 33.291ZM156.533 33.4082C157.321 33.4082 157.975 33.1868 158.496 32.7441C159.024 32.3014 159.287 31.748 159.287 31.084V30.1953L156.69 30.3613C155.961 30.4069 155.423 30.5566 155.078 30.8105C154.733 31.0645 154.561 31.4258 154.561 31.8945C154.561 32.3633 154.743 32.7344 155.108 33.0078C155.472 33.2747 155.948 33.4082 156.533 33.4082ZM155.996 35.1758C154.955 35.1758 154.102 34.8861 153.438 34.3066C152.78 33.7207 152.451 32.9492 152.451 31.9922C152.451 31.0417 152.793 30.2962 153.477 29.7559C154.16 29.209 155.137 28.8965 156.406 28.8184L159.287 28.6523V27.7344C159.287 27.168 159.102 26.735 158.731 26.4355C158.36 26.1296 157.819 25.9766 157.11 25.9766C156.524 25.9766 156.035 26.0807 155.645 26.2891C155.261 26.4909 155.01 26.7806 154.893 27.1582H152.862C152.966 26.2467 153.412 25.5208 154.199 24.9805C154.994 24.4336 155.996 24.1602 157.207 24.1602C158.535 24.1602 159.561 24.4759 160.283 25.1074C161.013 25.7324 161.377 26.6081 161.377 27.7344V35H159.356V33.5059H159.19C158.871 34.0397 158.431 34.4531 157.871 34.7461C157.318 35.0326 156.693 35.1758 155.996 35.1758ZM166.643 32.4219C167.151 33.0339 167.867 33.3398 168.792 33.3398C169.716 33.3398 170.429 33.0339 170.93 32.4219C171.438 31.8099 171.692 30.944 171.692 29.8242C171.692 28.7565 171.438 27.9297 170.93 27.3438C170.429 26.7578 169.716 26.4648 168.792 26.4648C167.867 26.4648 167.151 26.7578 166.643 27.3438C166.142 27.9297 165.891 28.7565 165.891 29.8242C165.891 30.944 166.142 31.8099 166.643 32.4219ZM165.442 26.6504H165.608C165.94 26.0319 166.405 25.5469 167.004 25.1953C167.603 24.8372 168.329 24.6582 169.182 24.6582C170.588 24.6582 171.718 25.1204 172.571 26.0449C173.43 26.9629 173.86 28.2129 173.86 29.7949C173.86 31.4746 173.407 32.7962 172.503 33.7598C171.604 34.7233 170.374 35.2051 168.811 35.2051C167.177 35.2051 165.92 34.6712 165.042 33.6035C164.169 32.5358 163.733 30.9408 163.733 28.8184C163.733 27.4967 163.824 26.3607 164.006 25.4102C164.195 24.4531 164.501 23.6263 164.924 22.9297C165.354 22.2331 165.92 21.7057 166.624 21.3477C167.333 20.9896 168.199 20.791 169.221 20.752L170.383 20.7031C170.878 20.6771 171.357 20.6217 171.819 20.5371C172.281 20.4525 172.616 20.3776 172.825 20.3125C173.033 20.2409 173.144 20.1986 173.157 20.1855V22.041C173.111 22.0736 173.033 22.1191 172.922 22.1777C172.812 22.2298 172.529 22.3079 172.073 22.4121C171.624 22.5098 171.1 22.5716 170.501 22.5977L169.338 22.6367C168.661 22.6628 168.085 22.7669 167.61 22.9492C167.141 23.1315 166.76 23.4017 166.467 23.7598C166.174 24.1178 165.95 24.5247 165.794 24.9805C165.644 25.4362 165.527 25.9928 165.442 26.6504ZM180.776 35.2051C179.214 35.2051 177.987 34.7135 177.095 33.7305C176.203 32.7474 175.757 31.3965 175.757 29.6777C175.757 27.9655 176.203 26.6178 177.095 25.6348C177.993 24.6517 179.22 24.1602 180.776 24.1602C182.326 24.1602 183.546 24.6517 184.438 25.6348C185.337 26.6178 185.786 27.9655 185.786 29.6777C185.786 31.3965 185.34 32.7474 184.448 33.7305C183.556 34.7135 182.332 35.2051 180.776 35.2051ZM180.776 33.3398C181.681 33.3398 182.381 33.0208 182.876 32.3828C183.377 31.7383 183.628 30.8366 183.628 29.6777C183.628 28.5254 183.377 27.6302 182.876 26.9922C182.381 26.3477 181.681 26.0254 180.776 26.0254C179.865 26.0254 179.162 26.3444 178.667 26.9824C178.172 27.6204 177.925 28.5189 177.925 29.6777C177.925 30.8431 178.172 31.7448 178.667 32.3828C179.162 33.0208 179.865 33.3398 180.776 33.3398ZM195.466 24.3652V26.1328H192.116V35H190.017V26.1328H186.667V24.3652H195.466ZM198.574 38.8574C198.209 38.8574 197.919 38.8411 197.705 38.8086V37.002C197.854 37.028 198.082 37.041 198.388 37.041C198.89 37.041 199.29 36.9271 199.589 36.6992C199.889 36.4714 200.13 36.0905 200.312 35.5566L200.468 35.0391L196.621 24.3652H198.906L201.572 32.8125H201.738L204.394 24.3652H206.621L202.656 35.4395C202.2 36.7285 201.676 37.6204 201.084 38.1152C200.498 38.61 199.661 38.8574 198.574 38.8574Z"
    fill="white"/>
  <path d="M281 0H552C556.418 0 560 3.58172 560 8V56H281V0Z" fill="#6493C1"/>
  <path
    d="M353.967 35H351.789V28.8184H344.553V35H342.365V20.9082H344.553V26.8262H351.789V20.9082H353.967V35ZM360.61 33.4082C361.397 33.4082 362.052 33.1868 362.573 32.7441C363.1 32.3014 363.364 31.748 363.364 31.084V30.1953L360.766 30.3613C360.037 30.4069 359.5 30.5566 359.155 30.8105C358.81 31.0645 358.637 31.4258 358.637 31.8945C358.637 32.3633 358.819 32.7344 359.184 33.0078C359.548 33.2747 360.024 33.4082 360.61 33.4082ZM360.073 35.1758C359.031 35.1758 358.178 34.8861 357.514 34.3066C356.856 33.7207 356.528 32.9492 356.528 31.9922C356.528 31.0417 356.869 30.2962 357.553 29.7559C358.237 29.209 359.213 28.8965 360.483 28.8184L363.364 28.6523V27.7344C363.364 27.168 363.178 26.735 362.807 26.4355C362.436 26.1296 361.895 25.9766 361.186 25.9766C360.6 25.9766 360.112 26.0807 359.721 26.2891C359.337 26.4909 359.086 26.7806 358.969 27.1582H356.938C357.042 26.2467 357.488 25.5208 358.276 24.9805C359.07 24.4336 360.073 24.1602 361.284 24.1602C362.612 24.1602 363.637 24.4759 364.36 25.1074C365.089 25.7324 365.453 26.6081 365.453 27.7344V35H363.432V33.5059H363.266C362.947 34.0397 362.507 34.4531 361.948 34.7461C361.394 35.0326 360.769 35.1758 360.073 35.1758ZM370.387 35H368.307V24.3652H370.387V31.6797H370.553L375.456 24.3652H377.536V35H375.456V27.6465H375.299L370.387 35ZM369.372 19.5508H371.12C371.12 20.0911 371.279 20.5501 371.598 20.9277C371.917 21.3053 372.334 21.4941 372.848 21.4941C373.376 21.4941 373.796 21.3053 374.108 20.9277C374.427 20.5501 374.59 20.0911 374.596 19.5508H376.335C376.335 20.5078 376.012 21.2988 375.368 21.9238C374.723 22.5423 373.883 22.8516 372.848 22.8516C371.813 22.8516 370.973 22.5423 370.329 21.9238C369.691 21.2988 369.372 20.5078 369.372 19.5508ZM388.378 24.3652V26.1328H385.028V35H382.929V26.1328H379.579V24.3652H388.378ZM392.501 35H390.421V24.3652H392.501V31.6797H392.667L397.57 24.3652H399.65V35H397.57V27.6465H397.413L392.501 35ZM414.615 35V26.1328H409.81V35H407.711V24.3652H416.705V35H414.615ZM425.858 26.6992C425.389 26.1979 424.767 25.9473 423.992 25.9473C423.218 25.9473 422.58 26.1979 422.078 26.6992C421.577 27.2005 421.297 27.8678 421.239 28.7012H426.61C426.584 27.8613 426.333 27.194 425.858 26.6992ZM426.6 32.1289H428.621C428.38 33.0859 427.853 33.8379 427.039 34.3848C426.232 34.9316 425.223 35.2051 424.012 35.2051C422.489 35.2051 421.287 34.7168 420.408 33.7402C419.536 32.7572 419.1 31.416 419.1 29.7168C419.1 28.0176 419.543 26.6667 420.428 25.6641C421.313 24.6615 422.505 24.1602 424.002 24.1602C425.48 24.1602 426.639 24.6354 427.479 25.5859C428.325 26.5365 428.748 27.8483 428.748 29.5215V30.2539H421.239V30.3711C421.271 31.3086 421.541 32.0508 422.049 32.5977C422.557 33.1445 423.231 33.418 424.071 33.418C425.353 33.418 426.196 32.9883 426.6 32.1289ZM436.651 24.1895C438.005 24.1895 439.079 24.6842 439.874 25.6738C440.668 26.6569 441.065 27.9915 441.065 29.6777C441.065 31.3639 440.668 32.7018 439.874 33.6914C439.086 34.681 438.018 35.1758 436.67 35.1758C435.915 35.1758 435.251 35.0195 434.678 34.707C434.105 34.388 433.679 33.9486 433.399 33.3887H433.233V38.5352H431.133V24.3652H433.155V26.123H433.311C433.63 25.5176 434.086 25.0456 434.678 24.707C435.271 24.362 435.928 24.1895 436.651 24.1895ZM436.055 33.291C436.947 33.291 437.644 32.972 438.145 32.334C438.653 31.6895 438.907 30.804 438.907 29.6777C438.907 28.5514 438.653 27.6693 438.145 27.0312C437.644 26.3932 436.95 26.0742 436.065 26.0742C435.18 26.0742 434.48 26.3997 433.965 27.0508C433.451 27.6953 433.194 28.5742 433.194 29.6875C433.194 30.7943 433.451 31.6732 433.965 32.3242C434.48 32.9688 435.176 33.291 436.055 33.291ZM452.483 27.8418H450.442C450.312 27.3014 450.029 26.8652 449.593 26.5332C449.163 26.2012 448.61 26.0352 447.933 26.0352C447.054 26.0352 446.36 26.3542 445.852 26.9922C445.351 27.6302 445.1 28.5156 445.1 29.6484C445.1 30.7943 445.351 31.696 445.852 32.3535C446.36 33.0046 447.054 33.3301 447.933 33.3301C448.603 33.3301 449.153 33.1803 449.583 32.8809C450.019 32.5814 450.306 32.1484 450.442 31.582H452.483C452.347 32.6758 451.878 33.5547 451.077 34.2188C450.276 34.8763 449.231 35.2051 447.942 35.2051C446.393 35.2051 445.172 34.7135 444.28 33.7305C443.395 32.7409 442.952 31.3802 442.952 29.6484C442.952 27.9427 443.395 26.6016 444.28 25.625C445.166 24.6484 446.383 24.1602 447.933 24.1602C449.228 24.1602 450.273 24.4987 451.067 25.1758C451.868 25.8529 452.34 26.7415 452.483 27.8418ZM459.253 35.2051C457.691 35.2051 456.463 34.7135 455.571 33.7305C454.68 32.7474 454.234 31.3965 454.234 29.6777C454.234 27.9655 454.68 26.6178 455.571 25.6348C456.47 24.6517 457.697 24.1602 459.253 24.1602C460.803 24.1602 462.023 24.6517 462.915 25.6348C463.814 26.6178 464.263 27.9655 464.263 29.6777C464.263 31.3965 463.817 32.7474 462.925 33.7305C462.033 34.7135 460.809 35.2051 459.253 35.2051ZM459.253 33.3398C460.158 33.3398 460.858 33.0208 461.353 32.3828C461.854 31.7383 462.105 30.8366 462.105 29.6777C462.105 28.5254 461.854 27.6302 461.353 26.9922C460.858 26.3477 460.158 26.0254 459.253 26.0254C458.342 26.0254 457.639 26.3444 457.144 26.9824C456.649 27.6204 456.402 28.5189 456.402 29.6777C456.402 30.8431 456.649 31.7448 457.144 32.3828C457.639 33.0208 458.342 33.3398 459.253 33.3398ZM473.66 35V30.3906H468.757V35H466.658V24.3652H468.757V28.623H473.66V24.3652H475.75V35H473.66ZM482.148 33.4082C482.936 33.4082 483.59 33.1868 484.111 32.7441C484.639 32.3014 484.902 31.748 484.902 31.084V30.1953L482.305 30.3613C481.575 30.4069 481.038 30.5566 480.693 30.8105C480.348 31.0645 480.176 31.4258 480.176 31.8945C480.176 32.3633 480.358 32.7344 480.723 33.0078C481.087 33.2747 481.562 33.4082 482.148 33.4082ZM481.611 35.1758C480.57 35.1758 479.717 34.8861 479.053 34.3066C478.395 33.7207 478.066 32.9492 478.066 31.9922C478.066 31.0417 478.408 30.2962 479.092 29.7559C479.775 29.209 480.752 28.8965 482.021 28.8184L484.902 28.6523V27.7344C484.902 27.168 484.717 26.735 484.346 26.4355C483.974 26.1296 483.434 25.9766 482.724 25.9766C482.139 25.9766 481.65 26.0807 481.26 26.2891C480.875 26.4909 480.625 26.7806 480.508 27.1582H478.476C478.581 26.2467 479.027 25.5208 479.814 24.9805C480.609 24.4336 481.611 24.1602 482.822 24.1602C484.15 24.1602 485.176 24.4759 485.898 25.1074C486.627 25.7324 486.992 26.6081 486.992 27.7344V35H484.971V33.5059H484.805C484.486 34.0397 484.046 34.4531 483.486 34.7461C482.933 35.0326 482.308 35.1758 481.611 35.1758ZM492.727 30.1367C492.675 30.9375 492.583 31.6276 492.453 32.207C492.323 32.7799 492.131 33.2943 491.877 33.75C491.63 34.1992 491.301 34.5378 490.891 34.7656C490.481 34.9935 489.989 35.1074 489.416 35.1074C489.136 35.1074 488.895 35.0684 488.694 34.9902V33.0273C488.869 33.0794 489.058 33.1055 489.26 33.1055C489.748 33.1055 490.106 32.8418 490.334 32.3145C490.569 31.7871 490.722 31.0254 490.793 30.0293L491.164 24.3652H498.488V35H496.389V26.1328H493.02L492.727 30.1367Z"
    fill="white"/>
  <g filter="url(#filter0_d_2_382)">
    <rect y="57" width="980" height="56" rx="8" fill="white"/>
    <path
      d="M20.8711 93.5H14.2734V76.5898H20.7422C22.2891 76.5898 23.5078 76.9688 24.3984 77.7266C25.2969 78.4844 25.7461 79.5117 25.7461 80.8086C25.7461 81.6836 25.4609 82.4727 24.8906 83.1758C24.3281 83.8789 23.6406 84.3047 22.8281 84.4531V84.6406C23.9844 84.7891 24.9023 85.2344 25.582 85.9766C26.2617 86.7109 26.6016 87.6367 26.6016 88.7539C26.6016 90.2461 26.0938 91.4102 25.0781 92.2461C24.0703 93.082 22.668 93.5 20.8711 93.5ZM16.3828 78.4531V83.8789H19.7578C22.3281 83.8789 23.6133 82.9766 23.6133 81.1719C23.6133 80.3125 23.3203 79.6445 22.7344 79.168C22.1562 78.6914 21.3438 78.4531 20.2969 78.4531H16.3828ZM16.3828 91.6367H20.5547C21.8281 91.6367 22.793 91.3828 23.4492 90.875C24.1055 90.3672 24.4336 89.625 24.4336 88.6484C24.4336 86.6797 23.0742 85.6953 20.3555 85.6953H16.3828V91.6367ZM31.7073 93.5H29.6917V80.8672H31.7073V90.2891H31.8948L38.1878 80.8672H40.2034V93.5H38.1878V84.0781H38.0003L31.7073 93.5ZM51.942 91.8125V82.5547H47.1491L46.7506 87.957C46.6178 89.6602 46.2702 90.8828 45.7077 91.625V91.8125H51.942ZM44.1959 96.8398H42.2975V91.8125H43.3522C43.7897 91.5234 44.1334 91.0312 44.3834 90.3359C44.6334 89.6328 44.7897 88.8242 44.8522 87.9102L45.3444 80.8672H53.9577V91.8125H55.9733V96.8398H54.0748V93.5H44.1959V96.8398ZM70.9075 80.6445C72.5169 80.6445 73.802 81.2383 74.763 82.4258C75.7317 83.6133 76.2161 85.1992 76.2161 87.1836C76.2161 89.1602 75.7317 90.7461 74.763 91.9414C73.7942 93.1289 72.5091 93.7227 70.9075 93.7227C70.0091 93.7227 69.2122 93.5391 68.5169 93.1719C67.8216 92.7969 67.302 92.2734 66.9583 91.6016H66.7708V97.7188H64.7552V80.8672H66.677V82.9766H66.8645C67.2708 82.25 67.8294 81.6797 68.5403 81.2656C69.2591 80.8516 70.0481 80.6445 70.9075 80.6445ZM70.427 91.9062C71.5833 91.9062 72.4895 91.4883 73.1458 90.6523C73.802 89.8164 74.1302 88.6602 74.1302 87.1836C74.1302 85.707 73.802 84.5508 73.1458 83.7148C72.4973 82.8789 71.595 82.4609 70.4388 82.4609C69.2981 82.4609 68.3919 82.8867 67.72 83.7383C67.0481 84.582 66.7122 85.7305 66.7122 87.1836C66.7122 88.6289 67.0442 89.7773 67.7083 90.6289C68.3802 91.4805 69.2864 91.9062 70.427 91.9062ZM83.1969 91.9531C84.2359 91.9531 85.0953 91.6523 85.775 91.0508C86.4625 90.4492 86.8063 89.6953 86.8063 88.7891V87.6289L83.4078 87.8516C82.4547 87.9141 81.7555 88.1133 81.3102 88.4492C80.8648 88.7852 80.6422 89.2734 80.6422 89.9141C80.6422 90.5469 80.8805 91.0469 81.357 91.4141C81.8336 91.7734 82.4469 91.9531 83.1969 91.9531ZM82.8219 93.7227C81.5797 93.7227 80.5563 93.3828 79.7516 92.7031C78.9547 92.0156 78.5563 91.1016 78.5563 89.9609C78.5563 88.8359 78.9547 87.9531 79.7516 87.3125C80.5484 86.6719 81.6852 86.3086 83.1617 86.2227L86.8063 86V84.8516C86.8063 84.0703 86.5641 83.4727 86.0797 83.0586C85.5953 82.6445 84.8844 82.4375 83.9469 82.4375C83.1891 82.4375 82.5602 82.5742 82.0602 82.8477C81.5602 83.1211 81.2398 83.5078 81.0992 84.0078H79.0602C79.193 83 79.7125 82.1875 80.6188 81.5703C81.5328 80.9531 82.6656 80.6445 84.0172 80.6445C85.5484 80.6445 86.732 81.0156 87.568 81.7578C88.4039 82.5 88.8219 83.5312 88.8219 84.8516V93.5H86.9V91.6367H86.7125C86.3063 92.3086 85.7672 92.8242 85.0953 93.1836C84.4234 93.543 83.6656 93.7227 82.8219 93.7227ZM94.9003 90.6992C95.5644 91.5039 96.5019 91.9062 97.7128 91.9062C98.9238 91.9062 99.8573 91.5039 100.514 90.6992C101.178 89.8945 101.51 88.7617 101.51 87.3008C101.51 85.9102 101.178 84.8359 100.514 84.0781C99.8573 83.3125 98.9238 82.9297 97.7128 82.9297C96.5019 82.9297 95.5644 83.3125 94.9003 84.0781C94.2441 84.8359 93.9159 85.9102 93.9159 87.3008C93.9159 88.7617 94.2441 89.8945 94.9003 90.6992ZM93.5527 83.457H93.7402C94.1464 82.7461 94.7089 82.1797 95.4277 81.7578C96.1464 81.3359 97.0097 81.125 98.0175 81.125C99.6972 81.125 101.045 81.6797 102.06 82.7891C103.084 83.8906 103.596 85.3945 103.596 87.3008C103.596 89.293 103.068 90.8633 102.014 92.0117C100.967 93.1523 99.5331 93.7227 97.7128 93.7227C95.8144 93.7227 94.3573 93.0898 93.3417 91.8242C92.3339 90.5508 91.83 88.6406 91.83 86.0938C91.83 84.8828 91.8886 83.8125 92.0058 82.8828C92.1308 81.9531 92.3378 81.0898 92.6269 80.293C92.9238 79.4883 93.3105 78.8242 93.787 78.3008C94.2636 77.7773 94.8691 77.3633 95.6034 77.0586C96.3456 76.7461 97.2128 76.5664 98.205 76.5195L99.4706 76.4609C100.057 76.4297 100.623 76.3594 101.17 76.25C101.725 76.1328 102.123 76.0312 102.365 75.9453C102.615 75.8516 102.748 75.7969 102.764 75.7812V77.5859C102.709 77.6328 102.619 77.6953 102.494 77.7734C102.369 77.8438 102.033 77.9492 101.486 78.0898C100.939 78.2227 100.299 78.3047 99.5644 78.3359L98.2753 78.3945C97.4472 78.4336 96.748 78.5703 96.1777 78.8047C95.6073 79.0312 95.1464 79.3711 94.7948 79.8242C94.4433 80.2773 94.1738 80.7891 93.9863 81.3594C93.7988 81.9297 93.6542 82.6289 93.5527 83.457ZM116.119 91.9766C115.08 93.1406 113.662 93.7227 111.865 93.7227C110.069 93.7227 108.647 93.1406 107.6 91.9766C106.561 90.8047 106.041 89.207 106.041 87.1836C106.041 85.1523 106.561 83.5547 107.6 82.3906C108.639 81.2266 110.061 80.6445 111.865 80.6445C113.67 80.6445 115.092 81.2266 116.131 82.3906C117.17 83.5547 117.69 85.1523 117.69 87.1836C117.69 89.207 117.166 90.8047 116.119 91.9766ZM109.1 90.6758C109.748 91.4961 110.67 91.9062 111.865 91.9062C113.061 91.9062 113.983 91.4961 114.631 90.6758C115.28 89.8477 115.604 88.6836 115.604 87.1836C115.604 85.6836 115.28 84.5234 114.631 83.7031C113.983 82.875 113.061 82.4609 111.865 82.4609C110.67 82.4609 109.748 82.875 109.1 83.7031C108.451 84.5234 108.127 85.6836 108.127 87.1836C108.127 88.6836 108.451 89.8477 109.1 90.6758ZM129.088 80.8672V82.5547H124.987V93.5H122.971V82.5547H118.87V80.8672H129.088ZM142.761 93.5V80.8672H144.776V93.5H142.761ZM136.222 86.6094H133.725V91.8125H136.222C137.05 91.8125 137.71 91.5781 138.202 91.1094C138.702 90.6328 138.952 90 138.952 89.2109C138.952 88.4219 138.702 87.793 138.202 87.3242C137.71 86.8477 137.05 86.6094 136.222 86.6094ZM131.71 93.5V80.8672H133.725V84.9219H136.222C137.667 84.9219 138.819 85.3086 139.679 86.082C140.538 86.8555 140.968 87.8984 140.968 89.2109C140.968 90.5234 140.538 91.5664 139.679 92.3398C138.819 93.1133 137.667 93.5 136.222 93.5H131.71ZM149.812 97.8008H148.054L149.179 91.1328H151.546L149.812 97.8008ZM162.824 98.0703C162.504 98.0703 162.203 98.0469 161.922 98V96.2773C162.125 96.3164 162.406 96.3359 162.765 96.3359C163.351 96.3359 163.816 96.1797 164.16 95.8672C164.512 95.5547 164.82 95.0195 165.086 94.2617L165.32 93.5117L160.644 80.8672H162.824L166.293 91.2617H166.48L169.937 80.8672H172.082L167.148 94.2734C166.609 95.7344 166.035 96.7305 165.426 97.2617C164.816 97.8008 163.949 98.0703 162.824 98.0703ZM184.676 84.7344H182.637C182.465 84.0703 182.094 83.5273 181.524 83.1055C180.961 82.6758 180.246 82.4609 179.379 82.4609C178.246 82.4609 177.344 82.8828 176.672 83.7266C176.008 84.5703 175.676 85.707 175.676 87.1367C175.676 88.5898 176.012 89.75 176.684 90.6172C177.356 91.4766 178.254 91.9062 179.379 91.9062C180.231 91.9062 180.938 91.7148 181.5 91.332C182.07 90.9492 182.449 90.4023 182.637 89.6914H184.676C184.488 90.8867 183.93 91.8594 183 92.6094C182.07 93.3516 180.867 93.7227 179.391 93.7227C177.617 93.7227 176.207 93.1289 175.16 91.9414C174.113 90.7461 173.59 89.1445 173.59 87.1367C173.59 85.168 174.113 83.5938 175.16 82.4141C176.207 81.2344 177.613 80.6445 179.379 80.6445C180.856 80.6445 182.059 81.0312 182.988 81.8047C183.926 82.5781 184.488 83.5547 184.676 84.7344ZM190.59 87.957C190.536 88.6836 190.458 89.3242 190.356 89.8789C190.254 90.4336 190.11 90.9531 189.922 91.4375C189.743 91.9219 189.516 92.3203 189.243 92.6328C188.977 92.9375 188.645 93.1758 188.247 93.3477C187.848 93.5195 187.391 93.6055 186.875 93.6055C186.586 93.6055 186.34 93.5625 186.137 93.4766V91.625C186.325 91.6875 186.536 91.7188 186.77 91.7188C187.364 91.7188 187.805 91.3984 188.094 90.7578C188.391 90.1094 188.583 89.1602 188.668 87.9102L189.161 80.8672H197.422V93.5H195.407V82.5547H190.989L190.59 87.957ZM202.2 98.0703C201.88 98.0703 201.579 98.0469 201.298 98V96.2773C201.501 96.3164 201.782 96.3359 202.141 96.3359C202.727 96.3359 203.192 96.1797 203.536 95.8672C203.887 95.5547 204.196 95.0195 204.462 94.2617L204.696 93.5117L200.02 80.8672H202.2L205.669 91.2617H205.856L209.313 80.8672H211.458L206.524 94.2734C205.985 95.7344 205.411 96.7305 204.802 97.2617C204.192 97.8008 203.325 98.0703 202.2 98.0703ZM222.142 82.5547H216.071V93.5H214.056V80.8672H222.142V82.5547ZM228.443 91.9531C229.482 91.9531 230.341 91.6523 231.021 91.0508C231.708 90.4492 232.052 89.6953 232.052 88.7891V87.6289L228.654 87.8516C227.701 87.9141 227.001 88.1133 226.556 88.4492C226.111 88.7852 225.888 89.2734 225.888 89.9141C225.888 90.5469 226.126 91.0469 226.603 91.4141C227.08 91.7734 227.693 91.9531 228.443 91.9531ZM228.068 93.7227C226.826 93.7227 225.802 93.3828 224.997 92.7031C224.201 92.0156 223.802 91.1016 223.802 89.9609C223.802 88.8359 224.201 87.9531 224.997 87.3125C225.794 86.6719 226.931 86.3086 228.408 86.2227L232.052 86V84.8516C232.052 84.0703 231.81 83.4727 231.326 83.0586C230.841 82.6445 230.13 82.4375 229.193 82.4375C228.435 82.4375 227.806 82.5742 227.306 82.8477C226.806 83.1211 226.486 83.5078 226.345 84.0078H224.306C224.439 83 224.958 82.1875 225.865 81.5703C226.779 80.9531 227.912 80.6445 229.263 80.6445C230.794 80.6445 231.978 81.0156 232.814 81.7578C233.65 82.5 234.068 83.5312 234.068 84.8516V93.5H232.146V91.6367H231.958C231.552 92.3086 231.013 92.8242 230.341 93.1836C229.669 93.543 228.912 93.7227 228.068 93.7227ZM239.033 97.8008H237.275L238.4 91.1328H240.767L239.033 97.8008ZM259.159 93.5V82.5547H252.971V93.5H250.955V80.8672H261.174V93.5H259.159ZM271.014 80.6445C272.624 80.6445 273.909 81.2383 274.87 82.4258C275.839 83.6133 276.323 85.1992 276.323 87.1836C276.323 89.1602 275.839 90.7461 274.87 91.9414C273.901 93.1289 272.616 93.7227 271.014 93.7227C270.116 93.7227 269.319 93.5391 268.624 93.1719C267.928 92.7969 267.409 92.2734 267.065 91.6016H266.878V97.7188H264.862V80.8672H266.784V82.9766H266.971C267.378 82.25 267.936 81.6797 268.647 81.2656C269.366 80.8516 270.155 80.6445 271.014 80.6445ZM270.534 91.9062C271.69 91.9062 272.596 91.4883 273.253 90.6523C273.909 89.8164 274.237 88.6602 274.237 87.1836C274.237 85.707 273.909 84.5508 273.253 83.7148C272.604 82.8789 271.702 82.4609 270.546 82.4609C269.405 82.4609 268.499 82.8867 267.827 83.7383C267.155 84.582 266.819 85.7305 266.819 87.1836C266.819 88.6289 267.151 89.7773 267.815 90.6289C268.487 91.4805 269.393 91.9062 270.534 91.9062ZM288.858 91.9766C287.819 93.1406 286.401 93.7227 284.605 93.7227C282.808 93.7227 281.386 93.1406 280.339 91.9766C279.3 90.8047 278.78 89.207 278.78 87.1836C278.78 85.1523 279.3 83.5547 280.339 82.3906C281.378 81.2266 282.8 80.6445 284.605 80.6445C286.409 80.6445 287.831 81.2266 288.87 82.3906C289.909 83.5547 290.429 85.1523 290.429 87.1836C290.429 89.207 289.905 90.8047 288.858 91.9766ZM281.839 90.6758C282.487 91.4961 283.409 91.9062 284.605 91.9062C285.8 91.9062 286.722 91.4961 287.37 90.6758C288.019 89.8477 288.343 88.6836 288.343 87.1836C288.343 85.6836 288.019 84.5234 287.37 83.7031C286.722 82.875 285.8 82.4609 284.605 82.4609C283.409 82.4609 282.487 82.875 281.839 83.7031C281.19 84.5234 280.866 85.6836 280.866 87.1836C280.866 88.6836 281.19 89.8477 281.839 90.6758ZM299.39 91.9062V82.4609C298.015 82.4922 296.925 82.9297 296.12 83.7734C295.324 84.6094 294.925 85.7461 294.925 87.1836C294.925 88.6133 295.324 89.75 296.12 90.5938C296.925 91.4297 298.015 91.8672 299.39 91.9062ZM305.812 87.1836C305.812 85.7539 305.41 84.6211 304.605 83.7852C303.808 82.9414 302.726 82.5 301.359 82.4609V91.9062C302.726 91.875 303.808 91.4414 304.605 90.6055C305.41 89.7617 305.812 88.6211 305.812 87.1836ZM299.39 93.6523C297.421 93.6133 295.843 93.0117 294.656 91.8477C293.468 90.6758 292.874 89.1211 292.874 87.1836C292.874 85.2383 293.468 83.6836 294.656 82.5195C295.843 81.3477 297.421 80.7461 299.39 80.7148V76.5898H301.359V80.7148C303.32 80.7539 304.894 81.3594 306.081 82.5312C307.269 83.6953 307.863 85.2461 307.863 87.1836C307.863 89.1289 307.269 90.6875 306.081 91.8594C304.894 93.0234 303.32 93.6211 301.359 93.6523V97.7188H299.39V93.6523ZM315.992 82.4258C314.984 82.4258 314.156 82.7656 313.508 83.4453C312.859 84.125 312.496 85.0234 312.418 86.1406H319.379C319.355 85.0234 319.035 84.125 318.418 83.4453C317.8 82.7656 316.992 82.4258 315.992 82.4258ZM319.32 90.2305H321.336C321.031 91.3242 320.41 92.1797 319.472 92.7969C318.543 93.4141 317.39 93.7227 316.015 93.7227C314.265 93.7227 312.879 93.1367 311.855 91.9648C310.832 90.7852 310.32 89.1953 310.32 87.1953C310.32 85.2031 310.836 83.6133 311.867 82.4258C312.898 81.2383 314.281 80.6445 316.015 80.6445C317.718 80.6445 319.058 81.2109 320.035 82.3438C321.011 83.4766 321.5 85.0273 321.5 86.9961V87.7695H312.418V87.8633C312.472 89.1133 312.824 90.1055 313.472 90.8398C314.129 91.5742 314.992 91.9414 316.062 91.9414C317.695 91.9414 318.781 91.3711 319.32 90.2305ZM335.031 84.7344H332.992C332.82 84.0703 332.449 83.5273 331.879 83.1055C331.316 82.6758 330.602 82.4609 329.734 82.4609C328.602 82.4609 327.699 82.8828 327.027 83.7266C326.363 84.5703 326.031 85.707 326.031 87.1367C326.031 88.5898 326.367 89.75 327.039 90.6172C327.711 91.4766 328.609 91.9062 329.734 91.9062C330.586 91.9062 331.293 91.7148 331.855 91.332C332.426 90.9492 332.805 90.4023 332.992 89.6914H335.031C334.844 90.8867 334.285 91.8594 333.355 92.6094C332.426 93.3516 331.223 93.7227 329.746 93.7227C327.973 93.7227 326.562 93.1289 325.516 91.9414C324.469 90.7461 323.945 89.1445 323.945 87.1367C323.945 85.168 324.469 83.5938 325.516 82.4141C326.562 81.2344 327.969 80.6445 329.734 80.6445C331.211 80.6445 332.414 81.0312 333.344 81.8047C334.281 82.5781 334.844 83.5547 335.031 84.7344ZM348.375 84.7344H346.336C346.164 84.0703 345.793 83.5273 345.223 83.1055C344.66 82.6758 343.946 82.4609 343.078 82.4609C341.946 82.4609 341.043 82.8828 340.371 83.7266C339.707 84.5703 339.375 85.707 339.375 87.1367C339.375 88.5898 339.711 89.75 340.383 90.6172C341.055 91.4766 341.953 91.9062 343.078 91.9062C343.93 91.9062 344.637 91.7148 345.2 91.332C345.77 90.9492 346.149 90.4023 346.336 89.6914H348.375C348.188 90.8867 347.629 91.8594 346.7 92.6094C345.77 93.3516 344.567 93.7227 343.09 93.7227C341.317 93.7227 339.907 93.1289 338.86 91.9414C337.813 90.7461 337.289 89.1445 337.289 87.1367C337.289 85.168 337.813 83.5938 338.86 82.4141C339.907 81.2344 341.313 80.6445 343.078 80.6445C344.555 80.6445 345.758 81.0312 346.688 81.8047C347.625 82.5781 348.188 83.5547 348.375 84.7344ZM353.27 93.5H351.255V80.8672H353.27V90.2891H353.458L359.751 80.8672H361.766V93.5H359.751V84.0781H359.563L353.27 93.5ZM369.813 87.2891H372.192V82.5547H369.813C368.978 82.5547 368.313 82.7734 367.821 83.2109C367.329 83.6406 367.083 84.2383 367.083 85.0039C367.083 85.6758 367.333 86.2266 367.833 86.6562C368.333 87.0781 368.993 87.2891 369.813 87.2891ZM372.192 93.5V88.9766H370.024L366.802 93.5H364.399L367.927 88.6016C367.036 88.3516 366.337 87.9141 365.829 87.2891C365.321 86.6641 365.067 85.918 365.067 85.0508C365.067 83.7539 365.493 82.7344 366.345 81.9922C367.204 81.2422 368.36 80.8672 369.813 80.8672H374.208V93.5H372.192Z"
      fill="#777777"/>
  </g>
  <rect x="1002" y="57" width="178" height="56" rx="8" fill="#FCB042"/>
  <path
    d="M1074.22 92H1071.71V85.8867H1064.86V92H1062.34V77.9082H1064.86V83.7676H1071.71V77.9082H1074.22V92ZM1080.82 90.3301C1081.52 90.3301 1082.11 90.125 1082.58 89.7148C1083.06 89.2982 1083.3 88.7806 1083.3 88.1621V87.3711L1080.91 87.5176C1080.33 87.5566 1079.87 87.7031 1079.54 87.957C1079.23 88.2044 1079.07 88.5332 1079.07 88.9434C1079.07 89.3665 1079.23 89.7051 1079.54 89.959C1079.87 90.2064 1080.3 90.3301 1080.82 90.3301ZM1080.09 92.166C1079.08 92.166 1078.25 91.8763 1077.6 91.2969C1076.96 90.7174 1076.63 89.9655 1076.63 89.041C1076.63 88.123 1076.97 87.3971 1077.65 86.8633C1078.33 86.3294 1079.31 86.0234 1080.57 85.9453L1083.3 85.7891V85.0469C1083.3 84.5065 1083.13 84.0866 1082.79 83.7871C1082.45 83.4876 1081.98 83.3379 1081.37 83.3379C1080.8 83.3379 1080.34 83.4648 1079.98 83.7188C1079.63 83.9727 1079.41 84.3177 1079.33 84.7539H1077.07C1077.13 83.7708 1077.55 82.9733 1078.33 82.3613C1079.13 81.7428 1080.17 81.4336 1081.47 81.4336C1082.75 81.4336 1083.78 81.7461 1084.54 82.3711C1085.32 82.9961 1085.71 83.8294 1085.71 84.8711V92H1083.36V90.3496H1083.31C1083.02 90.903 1082.58 91.3457 1081.99 91.6777C1081.39 92.0033 1080.76 92.166 1080.09 92.166ZM1090.6 92H1088.22V81.6484H1090.6V88.5625H1090.68L1095.18 81.6484H1097.56V92H1095.18V85.0371H1095.1L1090.6 92ZM1089.68 77.0293H1091.24C1091.25 77.5827 1091.41 78.0352 1091.73 78.3867C1092.06 78.7383 1092.48 78.9141 1093.01 78.9141C1093.54 78.9141 1093.96 78.7383 1094.28 78.3867C1094.61 78.0352 1094.77 77.5827 1094.78 77.0293H1096.34C1096.34 77.9733 1096.03 78.735 1095.42 79.3145C1094.81 79.8874 1094.01 80.1738 1093.01 80.1738C1092.01 80.1738 1091.21 79.8874 1090.6 79.3145C1089.99 78.735 1089.68 77.9733 1089.68 77.0293ZM1108.22 81.6484V83.5234H1105.04V92H1102.63V83.5234H1099.44V81.6484H1108.22ZM1112.49 92H1110.11V81.6484H1112.49V88.5625H1112.57L1117.07 81.6484H1119.45V92H1117.07V85.0371H1116.99L1112.49 92Z"
    fill="white"/>
  <defs>
    <filter id="filter0_d_2_382" x="0" y="57" width="980" height="56" filterUnits="userSpaceOnUse"
            color-interpolation-filters="sRGB">
      <feFlood flood-opacity="0" result="BackgroundImageFix"/>
      <feColorMatrix in="SourceAlpha" type="matrix" values="0 0 0 0 0 0 0 0 0 0 0 0 0 0 0 0 0 0 127 0"
                     result="hardAlpha"/>
      <feOffset/>
      <feComposite in2="hardAlpha" operator="out"/>
      <feColorMatrix type="matrix" values="0 0 0 0 0.796078 0 0 0 0 0.854902 0 0 0 0 0.988235 0 0 0 1 0"/>
      <feBlend mode="normal" in2="BackgroundImageFix" result="effect1_dropShadow_2_382"/>
      <feBlend mode="normal" in="SourceGraphic" in2="effect1_dropShadow_2_382" result="shape"/>
    </filter>
  </defs>
</svg>
