<svg width="121" height="74" viewBox="0 0 121 74" fill="none" xmlns="http://www.w3.org/2000/svg">
  <path d="M0 37.5C0 16.7893 16.7893 0 37.5 0H121V36.5C121 57.2107 104.211 74 83.5 74H0V37.5Z" fill="#FCB042"/>
  <path
    d="M59.9768 11.9969C54.4543 11.9969 49.9768 16.4744 49.9768 21.9969C46.2668 21.9969 40.2893 21.9969 39.9768 21.9969C38.5968 21.9969 37.4768 23.1169 37.4768 24.4969V51.997C37.4768 57.5195 41.9543 61.997 47.4768 61.997H72.4768C77.9993 61.997 82.4768 57.5195 82.4768 51.997V24.4969C82.4768 23.1169 81.3568 21.9969 79.9768 21.9969C79.6643 21.9969 73.6868 21.9969 69.9768 21.9969C69.9768 16.4744 65.4993 11.9969 59.9768 11.9969ZM59.9768 16.9969C62.7393 16.9969 64.9768 19.2344 64.9768 21.9969C60.4168 21.9969 59.5368 21.9969 54.9768 21.9969C54.9768 19.2344 57.2143 16.9969 59.9768 16.9969ZM69.9768 34.497C70.6168 34.497 71.2843 34.712 71.7743 35.1995C72.7493 36.177 72.7493 37.817 71.7743 38.7945L61.7743 48.7945C60.7968 49.7695 59.1568 49.7695 58.1793 48.7945L53.1793 43.7945C52.2043 42.817 52.2043 41.177 53.1793 40.1995C54.1568 39.2245 55.7968 39.2245 56.7743 40.1995L59.9768 43.402L68.1793 35.1995C68.6693 34.712 69.3368 34.497 69.9768 34.497Z"
    fill="white"/>
</svg>
