<svg xmlns="http://www.w3.org/2000/svg" width="171" height="158" fill="none">
  <path fill="#aaa"
        d="M108.625 59.25c0 16.361-13.264 29.625-29.625 29.625S49.375 75.611 49.375 59.25 62.639 29.625 79 29.625s29.625 13.264 29.625 29.625"/>
  <path fill="#aaa" fill-rule="evenodd"
        d="M0 79C0 35.37 35.37 0 79 0s79 35.37 79 79-35.37 79-79 79S0 122.63 0 79M79 9.875C40.823 9.875 9.875 40.823 9.875 79c0 16.328 5.66 31.333 15.127 43.161C32.024 110.849 47.446 98.75 79 98.75s46.976 12.099 53.998 23.411c9.466-11.828 15.127-26.833 15.127-43.161 0-38.177-30.948-69.125-69.125-69.125"
        clip-rule="evenodd"/>
  <circle cx="143" cy="28" r="28" fill="#fff"/>
  <path fill="#52be8d"
        d="M157 36a2 2 0 0 1-2 2h-24a2 2 0 0 1-2-2V24a2 2 0 0 1 2-2h2.343a6 6 0 0 0 4.243-1.757l1.657-1.657a2 2 0 0 1 1.414-.586h4.686c.531 0 1.039.21 1.414.586l1.657 1.657A6 6 0 0 0 152.657 22H155a2 2 0 0 1 2 2zm-26-16a4 4 0 0 0-4 4v12a4 4 0 0 0 4 4h24a4 4 0 0 0 4-4V24a4 4 0 0 0-4-4h-2.343a4 4 0 0 1-2.829-1.172l-1.656-1.656A4 4 0 0 0 145.343 16h-4.686a4 4 0 0 0-2.829 1.172l-1.656 1.656A4 4 0 0 1 133.343 20z"/>
  <path fill="#52be8d"
        d="M143 34a5 5 0 1 1 0-10 5 5 0 0 1 0 10m0 2a7 7 0 1 0 0-14 7 7 0 0 0 0 14M133 25a1 1 0 1 1-2 0 1 1 0 0 1 2 0"/>
</svg>
